AnekDevanagari-Medium.ufo
<glyph name="quotedbl" format="2">
  <advance width="716"/>
  <unicode hex="0022"/>
  <outline>
    <contour>
      <point x="283" y="1324" type="line"/>
      <point x="90" y="1324" type="line"/>
      <point x="109" y="831" type="line"/>
      <point x="263" y="831" type="line"/>
    </contour>
    <contour>
      <point x="626" y="1324" type="line"/>
      <point x="433" y="1324" type="line"/>
      <point x="452" y="831" type="line"/>
      <point x="606" y="831" type="line"/>
    </contour>
  </outline>
</glyph>
<glyph name="dollar" format="2">
  <advance width="1049"/>
  <unicode hex="0024"/>
  <anchor x="516" y="0" name="bottom"/>
  <anchor x="516" y="1278" name="top"/>
  <outline>
    <contour>
      <point x="607" y="1487" type="line"/>
      <point x="433" y="1487" type="line"/>
      <point x="433" y="1195" type="line"/>
      <point x="607" y="1195" type="line"/>
    </contour>
    <contour>
      <point x="607" y="113" type="line"/>
      <point x="433" y="113" type="line"/>
      <point x="433" y="-214" type="line"/>
      <point x="607" y="-214" type="line"/>
    </contour>
    <contour>
      <point x="507" y="-24" type="curve" smooth="yes"/>
      <point x="814" y="-24"/>
      <point x="967" y="99"/>
      <point x="967" y="335" type="curve" smooth="yes"/>
      <point x="967" y="355" type="line" smooth="yes"/>
      <point x="967" y="581"/>
      <point x="854" y="659"/>
      <point x="577" y="729" type="curve" smooth="yes"/>
      <point x="343" y="788"/>
      <point x="283" y="844"/>
      <point x="283" y="956" type="curve" smooth="yes"/>
      <point x="283" y="960" type="line" smooth="yes"/>
      <point x="283" y="1068"/>
      <point x="352" y="1132"/>
      <point x="538" y="1132" type="curve" smooth="yes"/>
      <point x="696" y="1132"/>
      <point x="823" y="1089"/>
      <point x="920" y="1033" type="curve"/>
      <point x="902" y="1216" type="line"/>
      <point x="818" y="1260"/>
      <point x="689" y="1302"/>
      <point x="507" y="1302" type="curve" smooth="yes"/>
      <point x="222" y="1302"/>
      <point x="79" y="1181"/>
      <point x="79" y="967" type="curve" smooth="yes"/>
      <point x="79" y="957" type="line" smooth="yes"/>
      <point x="79" y="743"/>
      <point x="192" y="646"/>
      <point x="476" y="577" type="curve" smooth="yes"/>
      <point x="692" y="524"/>
      <point x="763" y="476"/>
      <point x="763" y="354" type="curve" smooth="yes"/>
      <point x="763" y="339" type="line" smooth="yes"/>
      <point x="763" y="214"/>
      <point x="678" y="152"/>
      <point x="491" y="152" type="curve" smooth="yes"/>
      <point x="327" y="152"/>
      <point x="183" y="205"/>
      <point x="80" y="264" type="curve"/>
      <point x="99" y="67" type="line"/>
      <point x="182" y="24"/>
      <point x="325" y="-24"/>
    </contour>
  </outline>
</glyph>
<glyph name="equal" format="2">
  <advance width="1031"/>
  <unicode hex="003D"/>
  <outline>
    <contour>
      <point x="918" y="337" type="line"/>
      <point x="918" y="493" type="line"/>
      <point x="113" y="493" type="line"/>
      <point x="113" y="337" type="line"/>
    </contour>
    <contour>
      <point x="918" y="749" type="line"/>
      <point x="918" y="905" type="line"/>
      <point x="113" y="905" type="line"/>
      <point x="113" y="749" type="line"/>
    </contour>
  </outline>
</glyph>
<glyph name="i" format="2">
  <advance width="450"/>
  <unicode hex="0069"/>
  <anchor x="225" y="0" name="bottom"/>
  <anchor x="361" y="0" name="ogonek"/>
  <outline>
    <contour>
      <point x="323" y="0" type="line"/>
      <point x="323" y="978" type="line"/>
      <point x="127" y="978" type="line"/>
      <point x="127" y="0" type="line"/>
    </contour>
    <contour>
      <point x="225" y="1122" type="curve" smooth="yes"/>
      <point x="302" y="1122"/>
      <point x="340" y="1162"/>
      <point x="340" y="1233" type="curve" smooth="yes"/>
      <point x="340" y="1237" type="line" smooth="yes"/>
      <point x="340" y="1306"/>
      <point x="302" y="1348"/>
      <point x="225" y="1348" type="curve" smooth="yes"/>
      <point x="147" y="1348"/>
      <point x="110" y="1306"/>
      <point x="110" y="1237" type="curve" smooth="yes"/>
      <point x="110" y="1233" type="line" smooth="yes"/>
      <point x="110" y="1163"/>
      <point x="147" y="1122"/>
    </contour>
  </outline>
</glyph>
<glyph name="z" format="2">
  <advance width="912"/>
  <unicode hex="007A"/>
  <anchor x="456" y="0" name="bottom"/>
  <anchor x="457" y="490" name="center"/>
  <anchor x="456" y="978" name="top"/>
  <outline>
    <contour>
      <point x="311" y="162" type="line"/>
      <point x="831" y="832" type="line"/>
      <point x="831" y="978" type="line"/>
      <point x="79" y="978" type="line"/>
      <point x="79" y="817" type="line"/>
      <point x="596" y="817" type="line"/>
      <point x="76" y="147" type="line"/>
      <point x="76" y="0" type="line"/>
      <point x="836" y="0" type="line"/>
      <point x="836" y="162" type="line"/>
    </contour>
  </outline>
</glyph>
<glyph name="yen" format="2">
  <advance width="1133"/>
  <unicode hex="00A5"/>
  <anchor x="565" y="0" name="bottom"/>
  <anchor x="565" y="1278" name="top"/>
  <anchor x="29" y="1278" name="topleft"/>
  <outline>
    <contour>
      <point x="1011" y="536" type="line"/>
      <point x="1025" y="682" type="line"/>
      <point x="681" y="682" type="line"/>
      <point x="646" y="536" type="line"/>
    </contour>
    <contour>
      <point x="111" y="240" type="line"/>
      <point x="1011" y="240" type="line"/>
      <point x="1025" y="385" type="line"/>
      <point x="125" y="385" type="line"/>
    </contour>
    <contour>
      <point x="125" y="682" type="line"/>
      <point x="111" y="536" type="line"/>
      <point x="484" y="536" type="line"/>
      <point x="448" y="682" type="line"/>
    </contour>
    <contour>
      <point x="652" y="372" type="line"/>
      <point x="1091" y="1278" type="line"/>
      <point x="879" y="1278" type="line"/>
      <point x="662" y="813" type="line"/>
      <point x="572" y="602" type="line"/>
      <point x="559" y="602" type="line"/>
      <point x="469" y="813" type="line"/>
      <point x="251" y="1278" type="line"/>
      <point x="39" y="1278" type="line"/>
      <point x="479" y="372" type="line"/>
    </contour>
    <contour>
      <point x="664" y="0" type="line"/>
      <point x="664" y="558" type="line"/>
      <point x="467" y="558" type="line"/>
      <point x="467" y="0" type="line"/>
    </contour>
  </outline>
</glyph>
<glyph name="micro" format="2">
  <advance width="1093"/>
  <unicode hex="00B5"/>
  <outline>
    <contour>
      <point x="773" y="978" type="line"/>
      <point x="773" y="241" type="line"/>
      <point x="781" y="229" type="line"/>
      <point x="773" y="0" type="line"/>
      <point x="969" y="0" type="line"/>
      <point x="969" y="978" type="line"/>
    </contour>
    <contour>
      <point x="320" y="978" type="line"/>
      <point x="124" y="978" type="line"/>
      <point x="124" y="-344" type="line"/>
      <point x="316" y="-344" type="line"/>
      <point x="316" y="-219" type="line"/>
      <point x="304" y="121" type="line"/>
      <point x="312" y="121" type="line"/>
      <point x="346" y="29"/>
      <point x="412" y="-21"/>
      <point x="529" y="-21" type="curve" smooth="yes"/>
      <point x="669" y="-21"/>
      <point x="741" y="63"/>
      <point x="770" y="196" type="curve"/>
      <point x="811" y="196" type="line"/>
      <point x="779" y="339" type="line"/>
      <point x="754" y="228"/>
      <point x="671" y="143"/>
      <point x="539" y="143" type="curve" smooth="yes"/>
      <point x="387" y="143"/>
      <point x="320" y="232"/>
      <point x="320" y="385" type="curve" smooth="yes"/>
    </contour>
  </outline>
</glyph>
<glyph name="ordmasculine" format="2">
  <advance width="694"/>
  <unicode hex="00BA"/>
  <outline>
    <contour>
      <point x="347" y="629" type="curve" smooth="yes"/>
      <point x="532" y="629"/>
      <point x="632" y="732"/>
      <point x="632" y="923" type="curve" smooth="yes"/>
      <point x="632" y="1000" type="line" smooth="yes"/>
      <point x="632" y="1190"/>
      <point x="533" y="1293"/>
      <point x="347" y="1293" type="curve" smooth="yes"/>
      <point x="162" y="1293"/>
      <point x="62" y="1190"/>
      <point x="62" y="1000" type="curve" smooth="yes"/>
      <point x="62" y="923" type="line" smooth="yes"/>
      <point x="62" y="732"/>
      <point x="162" y="629"/>
    </contour>
    <contour>
      <point x="347" y="747" type="curve" smooth="yes"/>
      <point x="255" y="747"/>
      <point x="208" y="806"/>
      <point x="208" y="916" type="curve" smooth="yes"/>
      <point x="208" y="1008" type="line" smooth="yes"/>
      <point x="208" y="1117"/>
      <point x="255" y="1175"/>
      <point x="347" y="1175" type="curve" smooth="yes"/>
      <point x="439" y="1175"/>
      <point x="486" y="1117"/>
      <point x="486" y="1008" type="curve" smooth="yes"/>
      <point x="486" y="916" type="line" smooth="yes"/>
      <point x="486" y="805"/>
      <point x="438" y="747"/>
    </contour>
  </outline>
</glyph>
<glyph name="Atilde" format="2">
  <advance width="1179"/>
  <unicode hex="00C3"/>
  <anchor x="590" y="0" name="bottom"/>
  <anchor x="1176" y="0" name="ogonek"/>
  <anchor x="590" y="1611" name="top"/>
  <outline>
    <contour>
      <point x="245" y="0" type="line"/>
      <point x="577" y="1144" type="line"/>
      <point x="602" y="1144" type="line"/>
      <point x="934" y="0" type="line"/>
      <point x="1137" y="0" type="line"/>
      <point x="745" y="1278" type="line"/>
      <point x="434" y="1278" type="line"/>
      <point x="42" y="0" type="line"/>
    </contour>
    <contour>
      <point x="879" y="357" type="line"/>
      <point x="879" y="523" type="line"/>
      <point x="298" y="523" type="line"/>
      <point x="298" y="357" type="line"/>
    </contour>
    <contour>
      <point x="730" y="1415" type="curve" smooth="yes"/>
      <point x="842" y="1415"/>
      <point x="885" y="1483"/>
      <point x="885" y="1597" type="curve" smooth="yes"/>
      <point x="885" y="1628" type="line"/>
      <point x="762" y="1628" type="line"/>
      <point x="762" y="1619" type="line" smooth="yes"/>
      <point x="762" y="1575"/>
      <point x="749" y="1553"/>
      <point x="711" y="1553" type="curve" smooth="yes"/>
      <point x="643" y="1553"/>
      <point x="555" y="1617"/>
      <point x="450" y="1617" type="curve" smooth="yes"/>
      <point x="337" y="1617"/>
      <point x="294" y="1547"/>
      <point x="294" y="1434" type="curve" smooth="yes"/>
      <point x="294" y="1404" type="line"/>
      <point x="417" y="1404" type="line"/>
      <point x="417" y="1413" type="line" smooth="yes"/>
      <point x="417" y="1455"/>
      <point x="431" y="1478"/>
      <point x="469" y="1478" type="curve" smooth="yes"/>
      <point x="537" y="1478"/>
      <point x="629" y="1415"/>
    </contour>
  </outline>
</glyph>
<glyph name="Adieresis" format="2">
  <advance width="1179"/>
  <unicode hex="00C4"/>
  <anchor x="590" y="0" name="bottom"/>
  <anchor x="1176" y="0" name="ogonek"/>
  <anchor x="590" y="1602" name="top"/>
  <outline>
    <contour>
      <point x="245" y="0" type="line"/>
      <point x="577" y="1144" type="line"/>
      <point x="602" y="1144" type="line"/>
      <point x="934" y="0" type="line"/>
      <point x="1137" y="0" type="line"/>
      <point x="745" y="1278" type="line"/>
      <point x="434" y="1278" type="line"/>
      <point x="42" y="0" type="line"/>
    </contour>
    <contour>
      <point x="879" y="357" type="line"/>
      <point x="879" y="523" type="line"/>
      <point x="298" y="523" type="line"/>
      <point x="298" y="357" type="line"/>
    </contour>
    <contour>
      <point x="432" y="1419" type="curve" smooth="yes"/>
      <point x="500" y="1419"/>
      <point x="532" y="1457"/>
      <point x="532" y="1524" type="curve" smooth="yes"/>
      <point x="532" y="1531" type="line" smooth="yes"/>
      <point x="532" y="1597"/>
      <point x="500" y="1635"/>
      <point x="432" y="1635" type="curve" smooth="yes"/>
      <point x="366" y="1635"/>
      <point x="333" y="1597"/>
      <point x="333" y="1531" type="curve" smooth="yes"/>
      <point x="333" y="1524" type="line" smooth="yes"/>
      <point x="333" y="1457"/>
      <point x="366" y="1419"/>
    </contour>
    <contour>
      <point x="748" y="1419" type="curve" smooth="yes"/>
      <point x="814" y="1419"/>
      <point x="847" y="1457"/>
      <point x="847" y="1524" type="curve" smooth="yes"/>
      <point x="847" y="1531" type="line" smooth="yes"/>
      <point x="847" y="1597"/>
      <point x="814" y="1635"/>
      <point x="748" y="1635" type="curve" smooth="yes"/>
      <point x="681" y="1635"/>
      <point x="649" y="1597"/>
      <point x="649" y="1531" type="curve" smooth="yes"/>
      <point x="649" y="1524" type="line" smooth="yes"/>
      <point x="649" y="1457"/>
      <point x="681" y="1419"/>
    </contour>
  </outline>
</glyph>
<glyph name="Ccedilla" format="2">
  <advance width="1021"/>
  <unicode hex="00C7"/>
  <anchor x="607" y="-389" name="bottom"/>
  <anchor x="563" y="1278" name="top"/>
  <outline>
    <contour>
      <point x="586" y="-25" type="curve" smooth="yes"/>
      <point x="740" y="-25"/>
      <point x="857" y="21"/>
      <point x="928" y="68" type="curve"/>
      <point x="944" y="257" type="line"/>
      <point x="864" y="200"/>
      <point x="757" y="155"/>
      <point x="619" y="155" type="curve" smooth="yes"/>
      <point x="408" y="155"/>
      <point x="302" y="283"/>
      <point x="302" y="505" type="curve" smooth="yes"/>
      <point x="302" y="779" type="line" smooth="yes"/>
      <point x="302" y="1001"/>
      <point x="408" y="1128"/>
      <point x="613" y="1128" type="curve" smooth="yes"/>
      <point x="754" y="1128"/>
      <point x="855" y="1081"/>
      <point x="934" y="1028" type="curve"/>
      <point x="918" y="1212" type="line"/>
      <point x="847" y="1258"/>
      <point x="735" y="1303"/>
      <point x="586" y="1303" type="curve" smooth="yes"/>
      <point x="259" y="1303"/>
      <point x="98" y="1115"/>
      <point x="98" y="782" type="curve" smooth="yes"/>
      <point x="98" y="498" type="line" smooth="yes"/>
      <point x="98" y="163"/>
      <point x="259" y="-25"/>
    </contour>
    <contour>
      <point x="502" y="18" type="line"/>
      <point x="480" y="-159" type="line"/>
      <point x="480" y="-159"/>
      <point x="485" y="-159"/>
      <point x="498" y="-160" type="curve" smooth="yes"/>
      <point x="611" y="-167"/>
      <point x="651" y="-180"/>
      <point x="651" y="-220" type="curve"/>
      <point x="651" y="-222" type="line"/>
      <point x="651" y="-256"/>
      <point x="615" y="-273"/>
      <point x="550" y="-273" type="curve" smooth="yes"/>
      <point x="497" y="-273"/>
      <point x="447" y="-264"/>
      <point x="406" y="-251" type="curve"/>
      <point x="428" y="-371" type="line"/>
      <point x="466" y="-381"/>
      <point x="520" y="-390"/>
      <point x="575" y="-390" type="curve" smooth="yes"/>
      <point x="718" y="-390"/>
      <point x="796" y="-341"/>
      <point x="796" y="-236" type="curve" smooth="yes"/>
      <point x="796" y="-230" type="line" smooth="yes"/>
      <point x="796" y="-137"/>
      <point x="732" y="-88"/>
      <point x="599" y="-82" type="curve" smooth="yes"/>
      <point x="576" y="-81"/>
      <point x="554" y="-82"/>
      <point x="531" y="-83" type="curve"/>
      <point x="613" y="-138" type="line"/>
      <point x="635" y="18" type="line"/>
    </contour>
  </outline>
</glyph>
<glyph name="Edieresis" format="2">
  <advance width="1055"/>
  <unicode hex="00CB"/>
  <anchor x="556" y="0" name="bottom"/>
  <anchor x="987" y="0" name="ogonek"/>
  <anchor x="556" y="1602" name="top"/>
  <anchor x="20" y="1278" name="topleft"/>
  <outline>
    <contour>
      <point x="340" y="0" type="line"/>
      <point x="340" y="1278" type="line"/>
      <point x="142" y="1278" type="line"/>
      <point x="142" y="0" type="line"/>
    </contour>
    <contour>
      <point x="962" y="0" type="line"/>
      <point x="962" y="168" type="line"/>
      <point x="201" y="168" type="line"/>
      <point x="201" y="0" type="line"/>
    </contour>
    <contour>
      <point x="940" y="568" type="line"/>
      <point x="940" y="734" type="line"/>
      <point x="256" y="734" type="line"/>
      <point x="256" y="568" type="line"/>
    </contour>
    <contour>
      <point x="955" y="1111" type="line"/>
      <point x="955" y="1278" type="line"/>
      <point x="200" y="1278" type="line"/>
      <point x="200" y="1111" type="line"/>
    </contour>
    <contour>
      <point x="398" y="1419" type="curve" smooth="yes"/>
      <point x="466" y="1419"/>
      <point x="498" y="1457"/>
      <point x="498" y="1524" type="curve" smooth="yes"/>
      <point x="498" y="1531" type="line" smooth="yes"/>
      <point x="498" y="1597"/>
      <point x="466" y="1635"/>
      <point x="398" y="1635" type="curve" smooth="yes"/>
      <point x="332" y="1635"/>
      <point x="299" y="1597"/>
      <point x="299" y="1531" type="curve" smooth="yes"/>
      <point x="299" y="1524" type="line" smooth="yes"/>
      <point x="299" y="1457"/>
      <point x="332" y="1419"/>
    </contour>
    <contour>
      <point x="714" y="1419" type="curve" smooth="yes"/>
      <point x="780" y="1419"/>
      <point x="813" y="1457"/>
      <point x="813" y="1524" type="curve" smooth="yes"/>
      <point x="813" y="1531" type="line" smooth="yes"/>
      <point x="813" y="1597"/>
      <point x="780" y="1635"/>
      <point x="714" y="1635" type="curve" smooth="yes"/>
      <point x="647" y="1635"/>
      <point x="615" y="1597"/>
      <point x="615" y="1531" type="curve" smooth="yes"/>
      <point x="615" y="1524" type="line" smooth="yes"/>
      <point x="615" y="1457"/>
      <point x="647" y="1419"/>
    </contour>
  </outline>
</glyph>
<glyph name="Iacute" format="2">
  <advance width="487"/>
  <unicode hex="00CD"/>
  <anchor x="243" y="0" name="bottom"/>
  <anchor x="384" y="0" name="ogonek"/>
  <anchor x="243" y="1615" name="top"/>
  <anchor x="20" y="1278" name="topleft"/>
  <outline>
    <contour>
      <point x="344" y="1278" type="line"/>
      <point x="143" y="1278" type="line"/>
      <point x="143" y="0" type="line"/>
      <point x="344" y="0" type="line"/>
    </contour>
    <contour>
      <point x="153" y="1398" type="line"/>
      <point x="153" y="1396" type="line"/>
      <point x="339" y="1396" type="line"/>
      <point x="614" y="1648" type="line"/>
      <point x="614" y="1651" type="line"/>
      <point x="389" y="1651" type="line"/>
    </contour>
  </outline>
</glyph>
<glyph name="Eth" format="2">
  <advance width="1195"/>
  <unicode hex="00D0"/>
  <anchor x="589" y="0" name="bottom"/>
  <anchor x="606" y="639" name="center"/>
  <anchor x="589" y="1278" name="top"/>
  <outline>
    <contour>
      <point x="634" y="581" type="line"/>
      <point x="634" y="731" type="line"/>
      <point x="5" y="731" type="line"/>
      <point x="5" y="581" type="line"/>
    </contour>
    <contour>
      <point x="589" y="0" type="line" smooth="yes"/>
      <point x="928" y="0"/>
      <point x="1101" y="178"/>
      <point x="1101" y="500" type="curve" smooth="yes"/>
      <point x="1101" y="780" type="line" smooth="yes"/>
      <point x="1101" y="1101"/>
      <point x="927" y="1278"/>
      <point x="589" y="1278" type="curve" smooth="yes"/>
      <point x="278" y="1278" type="line"/>
      <point x="278" y="1111" type="line"/>
      <point x="582" y="1111" type="line" smooth="yes"/>
      <point x="792" y="1111"/>
      <point x="899" y="994"/>
      <point x="899" y="779" type="curve" smooth="yes"/>
      <point x="899" y="501" type="line" smooth="yes"/>
      <point x="899" y="287"/>
      <point x="792" y="169"/>
      <point x="582" y="169" type="curve" smooth="yes"/>
      <point x="279" y="169" type="line"/>
      <point x="279" y="0" type="line"/>
    </contour>
    <contour>
      <point x="340" y="0" type="line"/>
      <point x="340" y="1278" type="line"/>
      <point x="142" y="1278" type="line"/>
      <point x="142" y="0" type="line"/>
    </contour>
  </outline>
</glyph>
<glyph name="Ntilde" format="2">
  <advance width="1254"/>
  <unicode hex="00D1"/>
  <anchor x="630" y="0" name="bottom"/>
  <anchor x="630" y="1611" name="top"/>
  <outline>
    <contour>
      <point x="142" y="1278" type="line"/>
      <point x="142" y="0" type="line"/>
      <point x="337" y="0" type="line"/>
      <point x="337" y="497" type="line"/>
      <point x="329" y="1072" type="line"/>
      <point x="341" y="1072" type="line"/>
      <point x="819" y="0" type="line"/>
      <point x="1112" y="0" type="line"/>
      <point x="1112" y="1278" type="line"/>
      <point x="917" y="1278" type="line"/>
      <point x="917" y="770" type="line"/>
      <point x="925" y="218" type="line"/>
      <point x="913" y="218" type="line"/>
      <point x="442" y="1278" type="line"/>
    </contour>
    <contour>
      <point x="770" y="1415" type="curve" smooth="yes"/>
      <point x="882" y="1415"/>
      <point x="925" y="1483"/>
      <point x="925" y="1597" type="curve" smooth="yes"/>
      <point x="925" y="1628" type="line"/>
      <point x="802" y="1628" type="line"/>
      <point x="802" y="1619" type="line" smooth="yes"/>
      <point x="802" y="1575"/>
      <point x="789" y="1553"/>
      <point x="751" y="1553" type="curve" smooth="yes"/>
      <point x="683" y="1553"/>
      <point x="595" y="1617"/>
      <point x="490" y="1617" type="curve" smooth="yes"/>
      <point x="377" y="1617"/>
      <point x="334" y="1547"/>
      <point x="334" y="1434" type="curve" smooth="yes"/>
      <point x="334" y="1404" type="line"/>
      <point x="457" y="1404" type="line"/>
      <point x="457" y="1413" type="line" smooth="yes"/>
      <point x="457" y="1455"/>
      <point x="471" y="1478"/>
      <point x="509" y="1478" type="curve" smooth="yes"/>
      <point x="577" y="1478"/>
      <point x="669" y="1415"/>
    </contour>
  </outline>
</glyph>
<glyph name="Ucircumflex" format="2">
  <advance width="1234"/>
  <unicode hex="00DB"/>
  <anchor x="617" y="0" name="bottom"/>
  <anchor x="876" y="5" name="ogonek"/>
  <anchor x="618" y="1610" name="top"/>
  <anchor x="1213" y="1278" name="topright"/>
  <outline>
    <contour>
      <point x="617" y="-26" type="curve" smooth="yes"/>
      <point x="950" y="-26"/>
      <point x="1102" y="144"/>
      <point x="1102" y="466" type="curve" smooth="yes"/>
      <point x="1102" y="1278" type="line"/>
      <point x="901" y="1278" type="line"/>
      <point x="901" y="460" type="line" smooth="yes"/>
      <point x="901" y="254"/>
      <point x="818" y="145"/>
      <point x="617" y="145" type="curve" smooth="yes"/>
      <point x="416" y="145"/>
      <point x="333" y="254"/>
      <point x="333" y="460" type="curve" smooth="yes"/>
      <point x="333" y="1278" type="line"/>
      <point x="132" y="1278" type="line"/>
      <point x="132" y="466" type="line" smooth="yes"/>
      <point x="132" y="144"/>
      <point x="285" y="-26"/>
    </contour>
    <contour>
      <point x="297" y="1399" type="line"/>
      <point x="297" y="1396" type="line"/>
      <point x="462" y="1396" type="line"/>
      <point x="613" y="1544" type="line"/>
      <point x="621" y="1544" type="line"/>
      <point x="772" y="1396" type="line"/>
      <point x="937" y="1396" type="line"/>
      <point x="937" y="1399" type="line"/>
      <point x="720" y="1651" type="line"/>
      <point x="514" y="1651" type="line"/>
    </contour>
  </outline>
</glyph>
<glyph name="ecircumflex" format="2">
  <advance width="1012"/>
  <unicode hex="00EA"/>
  <anchor x="520" y="0" name="bottom"/>
  <anchor x="837" y="8" name="ogonek"/>
  <anchor x="516" y="1327" name="top"/>
  <outline>
    <contour>
      <point x="553" y="-23" type="curve" smooth="yes"/>
      <point x="694" y="-23"/>
      <point x="812" y="11"/>
      <point x="900" y="63" type="curve"/>
      <point x="918" y="230" type="line"/>
      <point x="820" y="176"/>
      <point x="711" y="142"/>
      <point x="586" y="142" type="curve" smooth="yes"/>
      <point x="365" y="142"/>
      <point x="281" y="241"/>
      <point x="281" y="387" type="curve" smooth="yes"/>
      <point x="281" y="474" type="line"/>
      <point x="280" y="497" type="line"/>
      <point x="280" y="589" type="line" smooth="yes"/>
      <point x="280" y="753"/>
      <point x="355" y="845"/>
      <point x="511" y="845" type="curve" smooth="yes"/>
      <point x="668" y="845"/>
      <point x="746" y="755"/>
      <point x="746" y="593" type="curve" smooth="yes"/>
      <point x="746" y="542"/>
      <point x="745" y="480"/>
      <point x="743" y="411" type="curve"/>
      <point x="923" y="411" type="line"/>
      <point x="930" y="454"/>
      <point x="934" y="501"/>
      <point x="934" y="547" type="curve" smooth="yes"/>
      <point x="934" y="584" type="line" smooth="yes"/>
      <point x="934" y="841"/>
      <point x="792" y="1004"/>
      <point x="511" y="1004" type="curve" smooth="yes"/>
      <point x="234" y="1004"/>
      <point x="86" y="846"/>
      <point x="86" y="570" type="curve" smooth="yes"/>
      <point x="86" y="410" type="line" smooth="yes"/>
      <point x="86" y="130"/>
      <point x="241" y="-23"/>
    </contour>
    <contour>
      <point x="883" y="411" type="line"/>
      <point x="883" y="558" type="line"/>
      <point x="190" y="558" type="line"/>
      <point x="190" y="411" type="line"/>
    </contour>
    <contour>
      <point x="224" y="1096" type="line"/>
      <point x="224" y="1093" type="line"/>
      <point x="378" y="1093" type="line"/>
      <point x="512" y="1261" type="line"/>
      <point x="520" y="1261" type="line"/>
      <point x="654" y="1093" type="line"/>
      <point x="808" y="1093" type="line"/>
      <point x="808" y="1096" type="line"/>
      <point x="621" y="1368" type="line"/>
      <point x="411" y="1368" type="line"/>
    </contour>
  </outline>
</glyph>
<glyph name="igrave" format="2">
  <advance width="449"/>
  <unicode hex="00EC"/>
  <anchor x="225" y="0" name="bottom"/>
  <anchor x="361" y="0" name="ogonek"/>
  <anchor x="113" y="1333" name="top"/>
  <outline>
    <contour>
      <point x="323" y="0" type="line"/>
      <point x="323" y="978" type="line"/>
      <point x="127" y="978" type="line"/>
      <point x="127" y="0" type="line"/>
    </contour>
    <contour>
      <point x="-3" y="1368" type="line"/>
      <point x="-3" y="1366" type="line"/>
      <point x="142" y="1093" type="line"/>
      <point x="303" y="1093" type="line"/>
      <point x="303" y="1095" type="line"/>
      <point x="197" y="1368" type="line"/>
    </contour>
  </outline>
</glyph>
<glyph name="icircumflex" format="2">
  <advance width="449"/>
  <unicode hex="00EE"/>
  <anchor x="225" y="0" name="bottom"/>
  <anchor x="361" y="0" name="ogonek"/>
  <anchor x="225" y="1327" name="top"/>
  <outline>
    <contour>
      <point x="323" y="0" type="line"/>
      <point x="323" y="978" type="line"/>
      <point x="127" y="978" type="line"/>
      <point x="127" y="0" type="line"/>
    </contour>
    <contour>
      <point x="-27" y="1095" type="line"/>
      <point x="-27" y="1093" type="line"/>
      <point x="120" y="1093" type="line"/>
      <point x="221" y="1259" type="line"/>
      <point x="228" y="1259" type="line"/>
      <point x="330" y="1093" type="line"/>
      <point x="477" y="1093" type="line"/>
      <point x="477" y="1095" type="line"/>
      <point x="327" y="1368" type="line"/>
      <point x="123" y="1368" type="line"/>
    </contour>
  </outline>
</glyph>
<glyph name="idieresis" format="2">
  <advance width="449"/>
  <unicode hex="00EF"/>
  <anchor x="225" y="0" name="bottom"/>
  <anchor x="361" y="0" name="ogonek"/>
  <anchor x="225" y="1330" name="top"/>
  <outline>
    <contour>
      <point x="323" y="0" type="line"/>
      <point x="323" y="978" type="line"/>
      <point x="127" y="978" type="line"/>
      <point x="127" y="0" type="line"/>
    </contour>
    <contour>
      <point x="91" y="1122" type="curve" smooth="yes"/>
      <point x="154" y="1122"/>
      <point x="186" y="1159"/>
      <point x="186" y="1226" type="curve" smooth="yes"/>
      <point x="186" y="1234" type="line" smooth="yes"/>
      <point x="186" y="1300"/>
      <point x="154" y="1338"/>
      <point x="91" y="1338" type="curve" smooth="yes"/>
      <point x="28" y="1338"/>
      <point x="-3" y="1300"/>
      <point x="-3" y="1234" type="curve" smooth="yes"/>
      <point x="-3" y="1226" type="line" smooth="yes"/>
      <point x="-3" y="1159"/>
      <point x="28" y="1122"/>
    </contour>
    <contour>
      <point x="360" y="1122" type="curve" smooth="yes"/>
      <point x="422" y="1122"/>
      <point x="454" y="1159"/>
      <point x="454" y="1226" type="curve" smooth="yes"/>
      <point x="454" y="1234" type="line" smooth="yes"/>
      <point x="454" y="1300"/>
      <point x="422" y="1338"/>
      <point x="360" y="1338" type="curve" smooth="yes"/>
      <point x="296" y="1338"/>
      <point x="265" y="1300"/>
      <point x="265" y="1234" type="curve" smooth="yes"/>
      <point x="265" y="1226" type="line" smooth="yes"/>
      <point x="265" y="1159"/>
      <point x="296" y="1122"/>
    </contour>
  </outline>
</glyph>
<glyph name="ntilde" format="2">
  <advance width="1080"/>
  <unicode hex="00F1"/>
  <anchor x="541" y="0" name="bottom"/>
  <anchor x="541" y="1320" name="top"/>
  <outline>
    <contour>
      <point x="968" y="0" type="line"/>
      <point x="968" y="626" type="line" smooth="yes"/>
      <point x="968" y="867"/>
      <point x="873" y="1000"/>
      <point x="644" y="1000" type="curve" smooth="yes"/>
      <point x="452" y="1000"/>
      <point x="357" y="900"/>
      <point x="323" y="777" type="curve"/>
      <point x="281" y="777" type="line"/>
      <point x="313" y="641" type="line"/>
      <point x="340" y="752"/>
      <point x="424" y="837"/>
      <point x="567" y="837" type="curve" smooth="yes"/>
      <point x="720" y="837"/>
      <point x="772" y="745"/>
      <point x="772" y="604" type="curve" smooth="yes"/>
      <point x="772" y="0" type="line"/>
    </contour>
    <contour>
      <point x="320" y="0" type="line"/>
      <point x="320" y="737" type="line"/>
      <point x="312" y="749" type="line"/>
      <point x="320" y="978" type="line"/>
      <point x="124" y="978" type="line"/>
      <point x="124" y="0" type="line"/>
    </contour>
    <contour>
      <point x="672" y="1117" type="curve" smooth="yes"/>
      <point x="784" y="1117"/>
      <point x="827" y="1186"/>
      <point x="827" y="1303" type="curve" smooth="yes"/>
      <point x="827" y="1338" type="line"/>
      <point x="704" y="1338" type="line"/>
      <point x="704" y="1324" type="line" smooth="yes"/>
      <point x="704" y="1278"/>
      <point x="691" y="1255"/>
      <point x="654" y="1255" type="curve" smooth="yes"/>
      <point x="590" y="1255"/>
      <point x="506" y="1327"/>
      <point x="408" y="1327" type="curve" smooth="yes"/>
      <point x="295" y="1327"/>
      <point x="252" y="1256"/>
      <point x="252" y="1140" type="curve" smooth="yes"/>
      <point x="252" y="1106" type="line"/>
      <point x="375" y="1106" type="line"/>
      <point x="375" y="1120" type="line" smooth="yes"/>
      <point x="375" y="1165"/>
      <point x="389" y="1188"/>
      <point x="425" y="1188" type="curve" smooth="yes"/>
      <point x="489" y="1188"/>
      <point x="577" y="1117"/>
    </contour>
  </outline>
</glyph>
<glyph name="ocircumflex" format="2">
  <advance width="1051"/>
  <unicode hex="00F4"/>
  <anchor x="526" y="0" name="bottom"/>
  <anchor x="531" y="400" name="center"/>
  <anchor x="772" y="5" name="ogonek"/>
  <anchor x="526" y="1327" name="top"/>
  <anchor x="953" y="978" name="topright"/>
  <outline>
    <contour>
      <point x="526" y="-25" type="curve" smooth="yes"/>
      <point x="814" y="-25"/>
      <point x="965" y="133"/>
      <point x="965" y="421" type="curve" smooth="yes"/>
      <point x="965" y="560" type="line" smooth="yes"/>
      <point x="965" y="847"/>
      <point x="814" y="1004"/>
      <point x="526" y="1004" type="curve" smooth="yes"/>
      <point x="238" y="1004"/>
      <point x="86" y="847"/>
      <point x="86" y="560" type="curve" smooth="yes"/>
      <point x="86" y="421" type="line" smooth="yes"/>
      <point x="86" y="133"/>
      <point x="238" y="-25"/>
    </contour>
    <contour>
      <point x="526" y="134" type="curve" smooth="yes"/>
      <point x="367" y="134"/>
      <point x="283" y="231"/>
      <point x="283" y="409" type="curve" smooth="yes"/>
      <point x="283" y="572" type="line" smooth="yes"/>
      <point x="283" y="748"/>
      <point x="367" y="845"/>
      <point x="526" y="845" type="curve" smooth="yes"/>
      <point x="685" y="845"/>
      <point x="769" y="748"/>
      <point x="769" y="572" type="curve" smooth="yes"/>
      <point x="769" y="409" type="line" smooth="yes"/>
      <point x="769" y="231"/>
      <point x="685" y="134"/>
    </contour>
    <contour>
      <point x="234" y="1096" type="line"/>
      <point x="234" y="1093" type="line"/>
      <point x="388" y="1093" type="line"/>
      <point x="522" y="1261" type="line"/>
      <point x="530" y="1261" type="line"/>
      <point x="664" y="1093" type="line"/>
      <point x="818" y="1093" type="line"/>
      <point x="818" y="1096" type="line"/>
      <point x="631" y="1368" type="line"/>
      <point x="421" y="1368" type="line"/>
    </contour>
  </outline>
</glyph>
<glyph name="divide" format="2">
  <advance width="1004"/>
  <unicode hex="00F7"/>
  <outline>
    <contour>
      <point x="905" y="541" type="line"/>
      <point x="905" y="701" type="line"/>
      <point x="99" y="701" type="line"/>
      <point x="99" y="541" type="line"/>
    </contour>
    <contour>
      <point x="506.9" y="159.1" type="curve" smooth="yes"/>
      <point x="578" y="159.1"/>
      <point x="612.2" y="199.6"/>
      <point x="612.2" y="269.8" type="curve" smooth="yes"/>
      <point x="612.2" y="278.8" type="line" smooth="yes"/>
      <point x="612.2" y="348.1"/>
      <point x="578" y="388.6"/>
      <point x="506.9" y="388.6" type="curve" smooth="yes"/>
      <point x="434.9" y="388.6"/>
      <point x="401.6" y="348.1"/>
      <point x="401.6" y="278.8" type="curve" smooth="yes"/>
      <point x="401.6" y="269.8" type="line" smooth="yes"/>
      <point x="401.6" y="199.6"/>
      <point x="434.9" y="159.1"/>
    </contour>
    <contour>
      <point x="506.9" y="854.1" type="curve" smooth="yes"/>
      <point x="578" y="854.1"/>
      <point x="612.2" y="894.6"/>
      <point x="612.2" y="964.8" type="curve" smooth="yes"/>
      <point x="612.2" y="973.8" type="line" smooth="yes"/>
      <point x="612.2" y="1043.1"/>
      <point x="578" y="1083.6"/>
      <point x="506.9" y="1083.6" type="curve" smooth="yes"/>
      <point x="434.9" y="1083.6"/>
      <point x="401.6" y="1043.1"/>
      <point x="401.6" y="973.8" type="curve" smooth="yes"/>
      <point x="401.6" y="964.8" type="line" smooth="yes"/>
      <point x="401.6" y="894.6"/>
      <point x="434.9" y="854.1"/>
    </contour>
  </outline>
</glyph>
<glyph name="uacute" format="2">
  <advance width="1080"/>
  <unicode hex="00FA"/>
  <anchor x="541" y="0" name="bottom"/>
  <anchor x="994" y="0" name="ogonek"/>
  <anchor x="544" y="1333" name="top"/>
  <anchor x="1064" y="978" name="topright"/>
  <outline>
    <contour>
      <point x="112" y="978" type="line"/>
      <point x="112" y="352" type="line" smooth="yes"/>
      <point x="112" y="111"/>
      <point x="207" y="-22"/>
      <point x="436" y="-22" type="curve" smooth="yes"/>
      <point x="628" y="-22"/>
      <point x="723" y="78"/>
      <point x="757" y="201" type="curve"/>
      <point x="799" y="201" type="line"/>
      <point x="767" y="337" type="line"/>
      <point x="740" y="226"/>
      <point x="656" y="141"/>
      <point x="513" y="141" type="curve" smooth="yes"/>
      <point x="360" y="141"/>
      <point x="308" y="233"/>
      <point x="308" y="374" type="curve" smooth="yes"/>
      <point x="308" y="978" type="line"/>
    </contour>
    <contour>
      <point x="760" y="978" type="line"/>
      <point x="760" y="241" type="line"/>
      <point x="768" y="229" type="line"/>
      <point x="760" y="0" type="line"/>
      <point x="956" y="0" type="line"/>
      <point x="956" y="978" type="line"/>
    </contour>
    <contour>
      <point x="456" y="1096" type="line"/>
      <point x="456" y="1093" type="line"/>
      <point x="628" y="1093" type="line"/>
      <point x="861" y="1365" type="line"/>
      <point x="861" y="1368" type="line"/>
      <point x="645" y="1368" type="line"/>
    </contour>
  </outline>
</glyph>
<glyph name="yacute" format="2">
  <advance width="1002"/>
  <unicode hex="00FD"/>
  <anchor x="696" y="-88" name="bottom"/>
  <anchor x="505" y="1333" name="top"/>
  <outline>
    <contour>
      <point x="484" y="173" type="line"/>
      <point x="240" y="978" type="line"/>
      <point x="37" y="978" type="line"/>
      <point x="344" y="41" type="line"/>
      <point x="565" y="41" type="line"/>
      <point x="477" y="115" type="line"/>
      <point x="322" y="-344" type="line"/>
      <point x="520" y="-344" type="line"/>
      <point x="965" y="978" type="line"/>
      <point x="764" y="978" type="line"/>
      <point x="489" y="128" type="line"/>
      <point x="593" y="173" type="line"/>
    </contour>
    <contour>
      <point x="417" y="1096" type="line"/>
      <point x="417" y="1093" type="line"/>
      <point x="589" y="1093" type="line"/>
      <point x="822" y="1365" type="line"/>
      <point x="822" y="1368" type="line"/>
      <point x="606" y="1368" type="line"/>
    </contour>
  </outline>
</glyph>
<glyph name="ydieresis" format="2">
  <advance width="1002"/>
  <unicode hex="00FF"/>
  <anchor x="696" y="-88" name="bottom"/>
  <anchor x="502" y="1320" name="top"/>
  <outline>
    <contour>
      <point x="484" y="173" type="line"/>
      <point x="240" y="978" type="line"/>
      <point x="37" y="978" type="line"/>
      <point x="344" y="41" type="line"/>
      <point x="565" y="41" type="line"/>
      <point x="477" y="115" type="line"/>
      <point x="322" y="-344" type="line"/>
      <point x="520" y="-344" type="line"/>
      <point x="965" y="978" type="line"/>
      <point x="764" y="978" type="line"/>
      <point x="489" y="128" type="line"/>
      <point x="593" y="173" type="line"/>
    </contour>
    <contour>
      <point x="344" y="1122" type="curve" smooth="yes"/>
      <point x="412" y="1122"/>
      <point x="444" y="1160"/>
      <point x="444" y="1227" type="curve" smooth="yes"/>
      <point x="444" y="1234" type="line" smooth="yes"/>
      <point x="444" y="1300"/>
      <point x="412" y="1338"/>
      <point x="344" y="1338" type="curve" smooth="yes"/>
      <point x="278" y="1338"/>
      <point x="245" y="1300"/>
      <point x="245" y="1234" type="curve" smooth="yes"/>
      <point x="245" y="1227" type="line" smooth="yes"/>
      <point x="245" y="1160"/>
      <point x="278" y="1122"/>
    </contour>
    <contour>
      <point x="660" y="1122" type="curve" smooth="yes"/>
      <point x="726" y="1122"/>
      <point x="759" y="1160"/>
      <point x="759" y="1227" type="curve" smooth="yes"/>
      <point x="759" y="1234" type="line" smooth="yes"/>
      <point x="759" y="1300"/>
      <point x="726" y="1338"/>
      <point x="660" y="1338" type="curve" smooth="yes"/>
      <point x="593" y="1338"/>
      <point x="561" y="1300"/>
      <point x="561" y="1234" type="curve" smooth="yes"/>
      <point x="561" y="1227" type="line" smooth="yes"/>
      <point x="561" y="1160"/>
      <point x="593" y="1122"/>
    </contour>
  </outline>
</glyph>
<glyph name="ring" format="2">
  <advance width="597"/>
  <unicode hex="02DA"/>
  <anchor x="299" y="978" name="_top"/>
  <anchor x="299" y="1394" name="top"/>
  <outline>
    <contour>
      <point x="100" y="1246" type="line" smooth="yes"/>
      <point x="100" y="1146"/>
      <point x="165" y="1078"/>
      <point x="299" y="1078" type="curve" smooth="yes"/>
      <point x="431" y="1078"/>
      <point x="497" y="1146"/>
      <point x="497" y="1246" type="curve" smooth="yes"/>
      <point x="497" y="1250" type="line" smooth="yes"/>
      <point x="497" y="1352"/>
      <point x="431" y="1419"/>
      <point x="299" y="1419" type="curve" smooth="yes"/>
      <point x="165" y="1419"/>
      <point x="100" y="1352"/>
      <point x="100" y="1250" type="curve" smooth="yes"/>
    </contour>
    <contour>
      <point x="215" y="1250" type="line" smooth="yes"/>
      <point x="215" y="1297"/>
      <point x="244" y="1323"/>
      <point x="299" y="1323" type="curve" smooth="yes"/>
      <point x="353" y="1323"/>
      <point x="382" y="1297"/>
      <point x="382" y="1250" type="curve" smooth="yes"/>
      <point x="382" y="1247" type="line" smooth="yes"/>
      <point x="382" y="1200"/>
      <point x="353" y="1174"/>
      <point x="299" y="1174" type="curve" smooth="yes"/>
      <point x="244" y="1174"/>
      <point x="215" y="1200"/>
      <point x="215" y="1247" type="curve" smooth="yes"/>
    </contour>
  </outline>
</glyph>
<glyph name="Chandrabindu.dv" format="2">
  <unicode hex="0901"/>
  <anchor x="-265.25" y="1238" name="_top"/>
  <outline>
    <contour>
      <point x="-264.482" y="1654.25" type="curve" smooth="yes"/>
      <point x="-333.786" y="1654.25"/>
      <point x="-362.428" y="1697.45"/>
      <point x="-362.428" y="1766.64" type="curve" smooth="yes"/>
      <point x="-362.428" y="1776.56" type="line" smooth="yes"/>
      <point x="-362.428" y="1844.33"/>
      <point x="-333.786" y="1887.77"/>
      <point x="-264.482" y="1887.77" type="curve" smooth="yes"/>
      <point x="-194.179" y="1887.77"/>
      <point x="-166.822" y="1844.33"/>
      <point x="-166.822" y="1776.56" type="curve" smooth="yes"/>
      <point x="-166.822" y="1766.64" type="line" smooth="yes"/>
      <point x="-166.822" y="1697.45"/>
      <point x="-194.179" y="1654.25"/>
    </contour>
    <contour>
      <point x="90.5" y="1758" type="line"/>
      <point x="93.25" y="1732.5"/>
      <point x="93.25" y="1720"/>
      <point x="93.25" y="1710.5" type="curve" smooth="yes"/>
      <point x="93.25" y="1513.1"/>
      <point x="-28.4082" y="1411"/>
      <point x="-265.383" y="1411" type="curve" smooth="yes"/>
      <point x="-498.857" y="1411"/>
      <point x="-622.75" y="1513.42"/>
      <point x="-622.75" y="1710" type="curve" smooth="yes"/>
      <point x="-622.75" y="1719.38"/>
      <point x="-622.75" y="1732.51"/>
      <point x="-619.75" y="1758" type="curve"/>
      <point x="-466.75" y="1758" type="line"/>
      <point x="-466.75" y="1727.8" type="line" smooth="yes"/>
      <point x="-466.75" y="1603.44"/>
      <point x="-403.301" y="1545.25"/>
      <point x="-265.43" y="1545.25" type="curve" smooth="yes"/>
      <point x="-127.559" y="1545.25"/>
      <point x="-62.25" y="1604.53"/>
      <point x="-62.25" y="1728.25" type="curve" smooth="yes"/>
      <point x="-62.25" y="1758.5" type="line"/>
    </contour>
  </outline>
  <guideline angle="90" x="-169" y="0"/>
  <guideline angle="0" x="0" y="1262"/>
</glyph>
<glyph name="Visarga.dv" format="2">
  <advance width="424"/>
  <unicode hex="0903"/>
  <outline>
    <contour>
      <point x="-29.25" y="1123.5" type="line"/>
      <point x="-41.75" y="1268.75" type="line"/>
      <point x="453.5" y="1268.75" type="line"/>
      <point x="465.5" y="1123.5" type="line"/>
    </contour>
    <contour>
      <point x="206.236" y="656.704" type="curve" smooth="yes"/>
      <point x="296.047" y="656.704"/>
      <point x="336.864" y="703.812"/>
      <point x="336.864" y="781.076" type="curve" smooth="yes"/>
      <point x="336.864" y="792.151" type="line" smooth="yes"/>
      <point x="336.864" y="869.416"/>
      <point x="295.033" y="916.796"/>
      <point x="206.756" y="916.796" type="curve" smooth="yes"/>
      <point x="117.44" y="916.796"/>
      <point x="76.636" y="868.896"/>
      <point x="76.636" y="792.151" type="curve" smooth="yes"/>
      <point x="76.636" y="781.076" type="line" smooth="yes"/>
      <point x="76.636" y="703.812"/>
      <point x="116.4" y="656.704"/>
    </contour>
    <contour>
      <point x="206.236" y="152.709" type="curve" smooth="yes"/>
      <point x="296.047" y="152.709"/>
      <point x="336.864" y="200.337"/>
      <point x="336.864" y="277.081" type="curve" smooth="yes"/>
      <point x="336.864" y="288.416" type="line" smooth="yes"/>
      <point x="336.864" y="364.641"/>
      <point x="295.033" y="412.541"/>
      <point x="206.756" y="412.541" type="curve" smooth="yes"/>
      <point x="117.44" y="412.541"/>
      <point x="76.636" y="364.381"/>
      <point x="76.636" y="288.416" type="curve" smooth="yes"/>
      <point x="76.636" y="277.081" type="line" smooth="yes"/>
      <point x="76.636" y="200.337"/>
      <point x="116.4" y="152.709"/>
    </contour>
  </outline>
</glyph>
<glyph name="vowelIi.dv" format="2">
  <advance width="1094"/>
  <unicode hex="0908"/>
  <anchor x="978" y="-247.25" name="bottom3"/>
  <anchor x="829.5" y="1238" name="top"/>
  <outline>
    <contour>
      <point x="639" y="1124" type="line"/>
      <point x="627" y="1268.75" type="line"/>
      <point x="1098" y="1268.75" type="line"/>
      <point x="1110" y="1124" type="line"/>
    </contour>
    <contour>
      <point x="923.25" y="1174.75" type="line"/>
      <point x="923.25" y="950.5" type="line"/>
      <point x="741" y="951.5" type="line"/>
      <point x="741" y="1174.75" type="line"/>
    </contour>
    <contour>
      <point x="1129" y="1124" type="line"/>
      <point x="-24.5" y="1124" type="line"/>
      <point x="-36.5" y="1269" type="line"/>
      <point x="1117" y="1269" type="line"/>
    </contour>
    <contour>
      <point x="739" y="1166.5" type="line"/>
      <point x="923.5" y="1166.5" type="line"/>
      <point x="923.5" y="785.5" type="line"/>
      <point x="739" y="830" type="line"/>
    </contour>
    <contour>
      <point x="791.5" y="-364.5" type="line"/>
      <point x="565.804" y="-364.5" type="line"/>
      <point x="275.637" y="2.83863" type="line"/>
      <point x="110" y="72.9997" type="line"/>
      <point x="442.5" y="20.4997" type="line"/>
      <point x="442.5" y="-17.4434" type="line"/>
      <point x="533.687" y="-73.7522"/>
      <point x="598.368" y="-129.716"/>
      <point x="667.842" y="-210.174" type="curve" smooth="yes"/>
      <point x="791.5" y="-353.384" type="line"/>
    </contour>
    <contour>
      <point x="96.5" y="262" type="line"/>
      <point x="230.373" y="178.62"/>
      <point x="373.165" y="130.5"/>
      <point x="531.813" y="130.5" type="curve" smooth="yes"/>
      <point x="732.202" y="130.5"/>
      <point x="804" y="179.17"/>
      <point x="804" y="280.971" type="curve" smooth="yes"/>
      <point x="804" y="288.944" type="line" smooth="yes"/>
      <point x="804" y="375.04"/>
      <point x="752.383" y="429.5"/>
      <point x="597.551" y="429.5" type="curve" smooth="yes"/>
      <point x="492.103" y="429.5"/>
      <point x="394.601" y="407.5"/>
      <point x="297.355" y="368.5" type="curve"/>
      <point x="179.353" y="440.281"/>
      <point x="112" y="529.422"/>
      <point x="112" y="656.43" type="curve" smooth="yes"/>
      <point x="112" y="662.951" type="line" smooth="yes"/>
      <point x="112" y="842.108"/>
      <point x="226.333" y="956"/>
      <point x="549.375" y="956" type="curve" smooth="yes"/>
      <point x="684.663" y="956"/>
      <point x="796" y="944"/>
      <point x="923.5" y="921" type="curve"/>
      <point x="923.5" y="778.5" type="line"/>
      <point x="814.529" y="796"/>
      <point x="704.255" y="803.5"/>
      <point x="593.539" y="803.5" type="curve" smooth="yes"/>
      <point x="380.417" y="803.5"/>
      <point x="304" y="750.352"/>
      <point x="304" y="653.059" type="curve" smooth="yes"/>
      <point x="304" y="648.144" type="line" smooth="yes"/>
      <point x="304" y="603.041"/>
      <point x="319.815" y="567.66"/>
      <point x="353.056" y="539.5" type="curve"/>
      <point x="436.066" y="567.5"/>
      <point x="522.256" y="584.5"/>
      <point x="629.288" y="584.5" type="curve" smooth="yes"/>
      <point x="894.026" y="584.5"/>
      <point x="996" y="470"/>
      <point x="996" y="288.5" type="curve" smooth="yes"/>
      <point x="996" y="277.5" type="line" smooth="yes"/>
      <point x="996" y="80.1534"/>
      <point x="873.907" y="-27.0003"/>
      <point x="555.502" y="-27.0003" type="curve" smooth="yes"/>
      <point x="449.965" y="-27.0003"/>
      <point x="362.566" y="4.23459"/>
      <point x="285.111" y="25.1196" type="curve" smooth="yes"/>
      <point x="109.955" y="72.5071" type="line"/>
    </contour>
    <contour>
      <point x="904.25" y="1249.75" type="line"/>
      <point x="734.25" y="1249.75" type="line"/>
      <point x="734.25" y="1275.5" type="line"/>
      <point x="604.75" y="1323"/>
      <point x="542" y="1394"/>
      <point x="542" y="1523.25" type="curve" smooth="yes"/>
      <point x="542" y="1536.01" type="line" smooth="yes"/>
      <point x="542" y="1690.83"/>
      <point x="641.75" y="1786"/>
      <point x="840.25" y="1786" type="curve" smooth="yes"/>
      <point x="904.25" y="1786"/>
      <point x="961.25" y="1779"/>
      <point x="1008.5" y="1765" type="curve"/>
      <point x="1027.25" y="1616.5" type="line"/>
      <point x="973.659" y="1628.35"/>
      <point x="931.807" y="1632.5"/>
      <point x="884.25" y="1632.5" type="curve" smooth="yes"/>
      <point x="778.291" y="1632.5"/>
      <point x="724.25" y="1585.64"/>
      <point x="724.25" y="1494.94" type="curve" smooth="yes"/>
      <point x="724.25" y="1481.44" type="line" smooth="yes"/>
      <point x="724.25" y="1389.9"/>
      <point x="779.469" y="1323.48"/>
      <point x="904.25" y="1265.25" type="curve"/>
    </contour>
  </outline>
  <guideline angle="90" x="447" y="0"/>
  <guideline angle="0" x="0" y="-178"/>
  <guideline angle="90" x="732.5" y="0"/>
  <guideline angle="90" x="944.25" y="0"/>
  <guideline angle="90" x="656.75" y="0"/>
</glyph>
<glyph name="vowelShortE.dv" format="2">
  <advance width="1140"/>
  <unicode hex="090E"/>
  <anchor x="999.5" y="23" name="bottom3"/>
  <anchor x="983.5" y="1238" name="top"/>
  <outline>
    <contour>
      <point x="318.25" y="1785.01" type="curve" smooth="yes"/>
      <point x="319.25" y="1669.73"/>
      <point x="364.681" y="1620.71"/>
      <point x="510.514" y="1619.75" type="curve" smooth="yes"/>
      <point x="661.822" y="1618.75" type="line" smooth="yes"/>
      <point x="896.571" y="1617.2"/>
      <point x="985" y="1508.66"/>
      <point x="985" y="1308.12" type="curve" smooth="yes"/>
      <point x="985" y="1237.5" type="line"/>
      <point x="814.75" y="1237.5" type="line"/>
      <point x="814.75" y="1298.75" type="line" smooth="yes"/>
      <point x="814.75" y="1409.26"/>
      <point x="773.754" y="1462.29"/>
      <point x="638.922" y="1463.31" type="curve" smooth="yes"/>
      <point x="478.192" y="1464.54" type="line" smooth="yes"/>
      <point x="252.17" y="1466.26"/>
      <point x="148.5" y="1557.27"/>
      <point x="148.5" y="1722.22" type="curve" smooth="yes"/>
      <point x="148.5" y="1753.02"/>
      <point x="152" y="1781.5"/>
      <point x="160" y="1810" type="curve"/>
      <point x="318" y="1810" type="line"/>
      <point x="318.021" y="1807.21"/>
      <point x="318.224" y="1787.93"/>
    </contour>
    <contour>
      <point x="-30" y="1124" type="line"/>
      <point x="-42" y="1269" type="line"/>
      <point x="1169.5" y="1269" type="line"/>
      <point x="1182" y="1124" type="line"/>
    </contour>
    <contour>
      <point x="347.5" y="583.5" type="line" smooth="yes"/>
      <point x="347.5" y="263.671"/>
      <point x="482.113" y="150.5"/>
      <point x="729" y="150.5" type="curve" smooth="yes"/>
      <point x="810.314" y="150.5"/>
      <point x="896.212" y="163.901"/>
      <point x="964.5" y="187" type="curve"/>
      <point x="947" y="24.5" type="line"/>
      <point x="881.491" y="1.26923"/>
      <point x="801.567" y="-8.5"/>
      <point x="713" y="-8.5" type="curve" smooth="yes"/>
      <point x="362.473" y="-8.5"/>
      <point x="156.5" y="170"/>
      <point x="156.5" y="581.5" type="curve" smooth="yes"/>
      <point x="156.5" y="1172.5" type="line"/>
      <point x="347.5" y="1172.5" type="line"/>
    </contour>
    <contour>
      <point x="997" y="805.5" type="line" smooth="yes"/>
      <point x="997" y="525.811"/>
      <point x="893" y="418"/>
      <point x="679.5" y="418" type="curve" smooth="yes"/>
      <point x="654.5" y="418"/>
      <point x="625" y="421.2"/>
      <point x="604" y="425.5" type="curve"/>
      <point x="604" y="576" type="line"/>
      <point x="607.607" y="576"/>
      <point x="618.892" y="576"/>
      <point x="622.5" y="576" type="curve" smooth="yes"/>
      <point x="762" y="576"/>
      <point x="807" y="631.825"/>
      <point x="807" y="810.5" type="curve" smooth="yes"/>
      <point x="807" y="1168" type="line"/>
      <point x="997" y="1168.5" type="line"/>
    </contour>
  </outline>
  <guideline angle="90" x="155" y="0"/>
  <guideline angle="90" x="317" y="0"/>
  <guideline angle="90" x="689" y="0"/>
  <guideline angle="90" x="547" y="0"/>
</glyph>
<glyph name="Gha.dv" format="2">
  <advance width="1286"/>
  <unicode hex="0918"/>
  <anchor x="1020.75" y="23" name="bottom"/>
  <anchor x="1013.75" y="23" name="bottom2"/>
  <anchor x="1114.75" y="23" name="bottom3"/>
  <anchor x="1019.75" y="42.5" name="bottom5"/>
  <anchor x="1019.75" y="1238" name="top"/>
  <outline>
    <contour>
      <point x="1114.75" y="1174.5" type="line"/>
      <point x="1114.75" y="0" type="line"/>
      <point x="925.75" y="0" type="line"/>
      <point x="925.75" y="1174.5" type="line"/>
    </contour>
    <contour>
      <point x="832.5" y="1123.5" type="line"/>
      <point x="820.5" y="1268.75" type="line"/>
      <point x="1315.5" y="1268.75" type="line"/>
      <point x="1327.5" y="1123.5" type="line"/>
    </contour>
    <contour>
      <point x="-30.25" y="1124" type="line"/>
      <point x="-42.25" y="1268.75" type="line"/>
      <point x="1214.5" y="1268.75" type="line"/>
      <point x="1226.5" y="1124" type="line"/>
    </contour>
    <contour>
      <point x="397.75" y="740" type="line"/>
      <point x="196.004" y="764.123"/>
      <point x="124.25" y="841.264"/>
      <point x="124.25" y="988.58" type="curve" smooth="yes"/>
      <point x="124.25" y="997.62" type="line" smooth="yes"/>
      <point x="124.25" y="1063.27"/>
      <point x="142.804" y="1121.09"/>
      <point x="187.826" y="1157" type="curve"/>
      <point x="393.75" y="1157" type="line"/>
      <point x="342.228" y="1124.78"/>
      <point x="321.5" y="1073.66"/>
      <point x="321.5" y="1008.64" type="curve" smooth="yes"/>
      <point x="321.5" y="999.97" type="line" smooth="yes"/>
      <point x="321.5" y="879.58"/>
      <point x="377.594" y="821.306"/>
      <point x="595.5" y="812.25" type="curve" smooth="yes"/>
      <point x="691.75" y="808.25" type="line"/>
      <point x="691.75" y="654" type="line"/>
      <point x="593.25" y="651.446" type="line" smooth="yes"/>
      <point x="379.515" y="645.903"/>
      <point x="317.75" y="597.887"/>
      <point x="317.75" y="491.59" type="curve" smooth="yes"/>
      <point x="317.75" y="482.6" type="line" smooth="yes"/>
      <point x="317.75" y="377.807"/>
      <point x="407.487" y="324.75"/>
      <point x="591.75" y="324.75" type="curve" smooth="yes"/>
      <point x="787.013" y="324.75"/>
      <point x="893.867" y="377.397"/>
      <point x="930" y="497" type="curve"/>
      <point x="934.25" y="326.5" type="line"/>
      <point x="915.5" y="326.5" type="line"/>
      <point x="873.735" y="221.457"/>
      <point x="766.081" y="162.25"/>
      <point x="548" y="162.25" type="curve" smooth="yes"/>
      <point x="271" y="162.25"/>
      <point x="119.75" y="266"/>
      <point x="119.75" y="464" type="curve" smooth="yes"/>
      <point x="119.75" y="474.384" type="line" smooth="yes"/>
      <point x="119.75" y="627"/>
      <point x="195.834" y="717.138"/>
      <point x="397.75" y="732.25" type="curve"/>
    </contour>
  </outline>
  <guideline angle="90" x="917.75" y="0"/>
  <guideline angle="0" x="0" y="9"/>
  <guideline angle="90" x="922.75" y="0"/>
  <guideline angle="90" x="905.75" y="0"/>
  <guideline angle="0" x="0" y="1262"/>
  <guideline angle="90" x="1019.75" y="0"/>
  <guideline angle="0" x="0" y="30"/>
</glyph>
<glyph name="Ca.dv" format="2">
  <advance width="1296"/>
  <unicode hex="091A"/>
  <anchor x="1031" y="23" name="bottom"/>
  <anchor x="1024" y="23" name="bottom2"/>
  <anchor x="1125" y="23" name="bottom3"/>
  <anchor x="1030" y="42.5" name="bottom5"/>
  <anchor x="1030" y="1238" name="top"/>
  <outline>
    <contour>
      <point x="1125" y="1174.5" type="line"/>
      <point x="1125" y="0" type="line"/>
      <point x="936" y="0" type="line"/>
      <point x="936" y="1174.5" type="line"/>
    </contour>
    <contour>
      <point x="842.75" y="1123.5" type="line"/>
      <point x="830.75" y="1268.75" type="line"/>
      <point x="1325.75" y="1268.75" type="line"/>
      <point x="1337.75" y="1123.5" type="line"/>
    </contour>
    <contour>
      <point x="-29.5" y="1123.5" type="line"/>
      <point x="-41.5" y="1268.75" type="line"/>
      <point x="1225" y="1268.75" type="line"/>
      <point x="1236.75" y="1123.5" type="line"/>
    </contour>
    <contour>
      <point x="770.75" y="902.25" type="line"/>
      <point x="770.75" y="753" type="line"/>
      <point x="428.68" y="752.75" type="line"/>
      <point x="282.25" y="747.75" type="line"/>
      <point x="50" y="747.75" type="line"/>
      <point x="50" y="902.25" type="line"/>
    </contour>
    <contour>
      <point x="599.166" y="160" type="curve" smooth="yes"/>
      <point x="339.446" y="160"/>
      <point x="201.5" y="273.722"/>
      <point x="201.5" y="490.79" type="curve" smooth="yes"/>
      <point x="201.5" y="501.372" type="line" smooth="yes"/>
      <point x="201.5" y="629.789"/>
      <point x="253.119" y="712.284"/>
      <point x="367" y="741.25" type="curve"/>
      <point x="367" y="792.75" type="line"/>
      <point x="770.75" y="792.75" type="line"/>
      <point x="770.75" y="753" type="line"/>
      <point x="633.974" y="748.275" type="line" smooth="yes"/>
      <point x="468.462" y="742.557"/>
      <point x="401.75" y="669.605"/>
      <point x="401.75" y="539.305" type="curve" smooth="yes"/>
      <point x="401.75" y="526.653" type="line" smooth="yes"/>
      <point x="401.75" y="385.864"/>
      <point x="484.48" y="323.25"/>
      <point x="645.777" y="323.25" type="curve" smooth="yes"/>
      <point x="814.458" y="323.25"/>
      <point x="903.725" y="374.39"/>
      <point x="939.5" y="498.75" type="curve"/>
      <point x="944.25" y="327.5" type="line"/>
      <point x="925.25" y="327.5" type="line"/>
      <point x="889.23" y="228.758"/>
      <point x="796.919" y="160"/>
    </contour>
  </outline>
  <guideline angle="0" x="0" y="94"/>
  <guideline angle="90" x="928" y="0"/>
  <guideline angle="0" x="0" y="9"/>
  <guideline angle="90" x="933" y="0"/>
  <guideline angle="90" x="916" y="0"/>
  <guideline angle="0" x="0" y="1262"/>
  <guideline angle="90" x="1030" y="0"/>
  <guideline angle="0" x="0" y="30"/>
</glyph>
<glyph name="Jha.dv" format="2">
  <advance width="1603"/>
  <unicode hex="091D"/>
  <anchor x="1337.5" y="23" name="bottom"/>
  <anchor x="1330.5" y="23" name="bottom2"/>
  <anchor x="1431.5" y="23" name="bottom3"/>
  <anchor x="1336.5" y="42.5" name="bottom5"/>
  <anchor x="1336.5" y="1238" name="top"/>
  <outline>
    <contour>
      <point x="1431.5" y="1174.5" type="line"/>
      <point x="1431.5" y="0" type="line"/>
      <point x="1242.5" y="0" type="line"/>
      <point x="1242.5" y="1174.5" type="line"/>
    </contour>
    <contour>
      <point x="1149.25" y="1123.5" type="line"/>
      <point x="1137.25" y="1268.75" type="line"/>
      <point x="1632.25" y="1268.75" type="line"/>
      <point x="1644.25" y="1123.5" type="line"/>
    </contour>
    <contour>
      <point x="1543.25" y="1123.5" type="line"/>
      <point x="-24.25" y="1123.5" type="line"/>
      <point x="-36.5" y="1268.75" type="line"/>
      <point x="1531.25" y="1268.75" type="line"/>
    </contour>
    <contour>
      <point x="715" y="1166.25" type="line"/>
      <point x="899.5" y="1166.25" type="line"/>
      <point x="899.5" y="787.25" type="line"/>
      <point x="715" y="832.5" type="line"/>
    </contour>
    <contour>
      <point x="1277.25" y="539.5" type="line"/>
      <point x="1277.25" y="385.25" type="line"/>
      <point x="1113.5" y="385.25" type="line" smooth="yes"/>
      <point x="998.121" y="385.25"/>
      <point x="926.427" y="410.803"/>
      <point x="853.25" y="454.656" type="curve"/>
      <point x="810.25" y="539.5" type="line"/>
    </contour>
    <contour>
      <point x="787.5" y="-364.5" type="line"/>
      <point x="565.5" y="-364.5" type="line"/>
      <point x="273" y="3.83862" type="line"/>
      <point x="110" y="73" type="line"/>
      <point x="436.5" y="20.5" type="line"/>
      <point x="436.5" y="-17" type="line"/>
      <point x="527.651" y="-72.6629"/>
      <point x="592.555" y="-129.793"/>
      <point x="660.381" y="-208.148" type="curve" smooth="yes"/>
      <point x="787.5" y="-355" type="line"/>
    </contour>
    <contour>
      <point x="96.5" y="260" type="line"/>
      <point x="229.804" y="177.62"/>
      <point x="371.646" y="130.5"/>
      <point x="530.16" y="130.5" type="curve" smooth="yes"/>
      <point x="718.068" y="130.5"/>
      <point x="781" y="179.193"/>
      <point x="781" y="278.985" type="curve" smooth="yes"/>
      <point x="781" y="286.957" type="line" smooth="yes"/>
      <point x="781" y="375.045"/>
      <point x="731.722" y="428.5"/>
      <point x="583.951" y="428.5" type="curve" smooth="yes"/>
      <point x="478.42" y="428.5"/>
      <point x="385.466" y="406.5"/>
      <point x="298.139" y="369.5" type="curve"/>
      <point x="178.99" y="440.281"/>
      <point x="112" y="531.422"/>
      <point x="112" y="654.431" type="curve" smooth="yes"/>
      <point x="112" y="661.951" type="line" smooth="yes"/>
      <point x="112" y="841.108"/>
      <point x="227.383" y="956"/>
      <point x="542.724" y="956" type="curve" smooth="yes"/>
      <point x="665.407" y="956"/>
      <point x="773" y="944"/>
      <point x="900.5" y="921" type="curve"/>
      <point x="900.5" y="778.5" type="line"/>
      <point x="791.332" y="796"/>
      <point x="693.5" y="803.5"/>
      <point x="579.971" y="803.5" type="curve" smooth="yes"/>
      <point x="372.308" y="803.5"/>
      <point x="304.001" y="750.682"/>
      <point x="304.001" y="654.165" type="curve" smooth="yes"/>
      <point x="304.001" y="646.124" type="line" smooth="yes"/>
      <point x="304.001" y="603.454"/>
      <point x="320.19" y="567.641"/>
      <point x="353.356" y="539.5" type="curve"/>
      <point x="433.66" y="567.5"/>
      <point x="519.044" y="583.5"/>
      <point x="615.964" y="583.5" type="curve" smooth="yes"/>
      <point x="876.173" y="583.5"/>
      <point x="973.001" y="470.555"/>
      <point x="973.001" y="286.957" type="curve" smooth="yes"/>
      <point x="973.001" y="273.026" type="line" smooth="yes"/>
      <point x="973.001" y="80.6248"/>
      <point x="849.68" y="-27"/>
      <point x="536.15" y="-27" type="curve" smooth="yes"/>
      <point x="445.726" y="-27"/>
      <point x="361.777" y="-5.488"/>
      <point x="287.072" y="14.1991" type="curve"/>
      <point x="110.001" y="72.5819" type="line"/>
    </contour>
  </outline>
  <guideline angle="90" x="1234.5" y="0"/>
  <guideline angle="0" x="0" y="9"/>
  <guideline angle="90" x="1239.5" y="0"/>
  <guideline angle="90" x="1222.5" y="0"/>
  <guideline angle="0" x="0" y="1262"/>
  <guideline angle="90" x="1336.5" y="0"/>
  <guideline angle="0" x="0" y="30"/>
</glyph>
<glyph name="Ttha.dv" format="2">
  <advance width="1195"/>
  <unicode hex="0920"/>
  <anchor x="637.5" y="7.5" name="bottom"/>
  <anchor x="546.25" y="7.5" name="bottom2"/>
  <anchor x="1018.25" y="7.5" name="bottom3"/>
  <anchor x="602" y="-43" name="bottom4"/>
  <anchor x="605" y="27.25" name="bottom5"/>
  <anchor x="757.5" y="1238" name="top"/>
  <outline>
    <contour>
      <point x="567" y="1124" type="line"/>
      <point x="555" y="1268.75" type="line"/>
      <point x="1026" y="1268.75" type="line"/>
      <point x="1038" y="1124" type="line"/>
    </contour>
    <contour>
      <point x="851.25" y="1174.75" type="line"/>
      <point x="851.25" y="950.5" type="line"/>
      <point x="669" y="951.5" type="line"/>
      <point x="669" y="1174.75" type="line"/>
    </contour>
    <contour>
      <point x="-34" y="1269" type="line"/>
      <point x="1224" y="1269" type="line"/>
      <point x="1236" y="1124" type="line"/>
      <point x="-22" y="1124" type="line"/>
    </contour>
    <contour>
      <point x="667" y="1179.5" type="line"/>
      <point x="851.5" y="1179.5" type="line"/>
      <point x="851.5" y="759.5" type="line"/>
      <point x="667" y="769" type="line"/>
    </contour>
    <contour>
      <point x="824" y="861" type="line"/>
      <point x="1003" y="799.063"/>
      <point x="1090" y="678.23"/>
      <point x="1090" y="453" type="curve" smooth="yes"/>
      <point x="1090" y="422.583" type="line" smooth="yes"/>
      <point x="1090" y="122.356"/>
      <point x="930" y="-15.5"/>
      <point x="599.5" y="-15.5" type="curve" smooth="yes"/>
      <point x="279" y="-15.5"/>
      <point x="108" y="125"/>
      <point x="108" y="425.5" type="curve" smooth="yes"/>
      <point x="108" y="457" type="line" smooth="yes"/>
      <point x="108" y="753"/>
      <point x="270" y="887.5"/>
      <point x="586.5" y="887.5" type="curve" smooth="yes"/>
      <point x="672" y="887.5"/>
      <point x="750" y="880"/>
      <point x="850" y="858.5" type="curve"/>
      <point x="850" y="697" type="line"/>
      <point x="762" y="725"/>
      <point x="690.5" y="734"/>
      <point x="609" y="734" type="curve" smooth="yes"/>
      <point x="402" y="734"/>
      <point x="304" y="649.5"/>
      <point x="304" y="457" type="curve" smooth="yes"/>
      <point x="304" y="426" type="line" smooth="yes"/>
      <point x="304" y="229.5"/>
      <point x="401" y="143.5"/>
      <point x="600.5" y="143.5" type="curve" smooth="yes"/>
      <point x="799" y="143.5"/>
      <point x="894" y="228.239"/>
      <point x="894" y="425.609" type="curve" smooth="yes"/>
      <point x="894" y="451" type="line" smooth="yes"/>
      <point x="894" y="625.948"/>
      <point x="837" y="703.186"/>
      <point x="709" y="734.5" type="curve"/>
    </contour>
  </outline>
  <guideline angle="0" x="0" y="29"/>
  <guideline angle="0" x="0" y="-77"/>
  <guideline angle="90" x="660.5" y="0"/>
</glyph>
<glyph name="NaNukta.dv" format="2">
  <advance width="1160"/>
  <unicode hex="0929"/>
  <anchor x="895" y="23" name="bottom"/>
  <anchor x="888" y="23" name="bottom2"/>
  <anchor x="989" y="23" name="bottom3"/>
  <anchor x="894" y="42.5" name="bottom5"/>
  <anchor x="894" y="1238" name="top"/>
  <outline>
    <contour>
      <point x="989" y="1174.5" type="line"/>
      <point x="989" y="0" type="line"/>
      <point x="800" y="0" type="line"/>
      <point x="800" y="1174.5" type="line"/>
    </contour>
    <contour>
      <point x="706.75" y="1123.5" type="line"/>
      <point x="694.75" y="1268.75" type="line"/>
      <point x="1189.75" y="1268.75" type="line"/>
      <point x="1201.75" y="1123.5" type="line"/>
    </contour>
    <contour>
      <point x="1101.5" y="1123.75" type="line"/>
      <point x="-30" y="1123.75" type="line"/>
      <point x="-42" y="1268.75" type="line"/>
      <point x="1089.5" y="1268.75" type="line"/>
    </contour>
    <contour>
      <point x="876.25" y="786.75" type="line"/>
      <point x="876.25" y="631" type="line"/>
      <point x="290.75" y="631" type="line"/>
      <point x="290.75" y="786.75" type="line"/>
    </contour>
    <contour>
      <point x="198.25" y="257.75" type="line"/>
      <point x="146.5" y="406.75"/>
      <point x="111.5" y="537.25"/>
      <point x="95.5" y="715.5" type="curve"/>
      <point x="196.5" y="786.75" type="line"/>
      <point x="362.25" y="786.75" type="line"/>
      <point x="362.25" y="257.75" type="line"/>
    </contour>
    <contour>
      <point x="270.5" y="-129.13" type="curve" smooth="yes"/>
      <point x="192.29" y="-129.13"/>
      <point x="153.98" y="-83.5502"/>
      <point x="153.98" y="-9.96015" type="curve"/>
      <point x="153.98" y="-8.40425"/>
      <point x="153.98" y="-3.48915"/>
      <point x="153.98" y="-1.79015" type="curve"/>
      <point x="153.98" y="73.0498"/>
      <point x="192.29" y="118.13"/>
      <point x="270.5" y="118.13" type="curve" smooth="yes"/>
      <point x="348.71" y="118.13"/>
      <point x="386.52" y="72.5498"/>
      <point x="386.52" y="-1.79015" type="curve"/>
      <point x="386.52" y="-3.33995"/>
      <point x="386.52" y="-8.25741"/>
      <point x="386.52" y="-9.96001" type="curve"/>
      <point x="386.52" y="-83.8"/>
      <point x="348.46" y="-129.13"/>
    </contour>
  </outline>
  <guideline angle="90" x="792" y="0"/>
  <guideline angle="0" x="0" y="9"/>
  <guideline angle="90" x="797" y="0"/>
  <guideline angle="90" x="780" y="0"/>
  <guideline angle="0" x="0" y="1262"/>
  <guideline angle="90" x="894" y="0"/>
  <guideline angle="0" x="0" y="30"/>
</glyph>
<glyph name="La.dv" format="2">
  <advance width="1482"/>
  <unicode hex="0932"/>
  <anchor x="1217" y="23" name="bottom"/>
  <anchor x="1210" y="23" name="bottom2"/>
  <anchor x="1311" y="23" name="bottom3"/>
  <anchor x="1216" y="42.5" name="bottom5"/>
  <anchor x="1216" y="1238" name="top"/>
  <outline>
    <contour>
      <point x="1311" y="1174.5" type="line"/>
      <point x="1311" y="0" type="line"/>
      <point x="1122" y="0" type="line"/>
      <point x="1122" y="1174.5" type="line"/>
    </contour>
    <contour>
      <point x="1028.75" y="1123.5" type="line"/>
      <point x="1016.75" y="1268.75" type="line"/>
      <point x="1511.75" y="1268.75" type="line"/>
      <point x="1523.75" y="1123.5" type="line"/>
    </contour>
    <contour>
      <point x="-28" y="1124" type="line"/>
      <point x="-40" y="1269" type="line"/>
      <point x="1405.5" y="1269" type="line"/>
      <point x="1417.5" y="1124" type="line"/>
    </contour>
    <contour>
      <point x="458.833" y="891.5" type="curve" smooth="yes"/>
      <point x="612.094" y="891.5"/>
      <point x="693.945" y="827.95"/>
      <point x="723.5" y="718.5" type="curve"/>
      <point x="731.5" y="718.5" type="line"/>
      <point x="756.921" y="829.505"/>
      <point x="840.556" y="890.5"/>
      <point x="962.682" y="890.5" type="curve" smooth="yes"/>
      <point x="1052.77" y="890.5"/>
      <point x="1109.6" y="859.5"/>
      <point x="1140.5" y="804.831" type="curve"/>
      <point x="1128.5" y="624" type="line"/>
      <point x="1107.11" y="689.5"/>
      <point x="1058.49" y="729.5"/>
      <point x="979.715" y="729.5" type="curve" smooth="yes"/>
      <point x="882.512" y="729.5"/>
      <point x="828.957" y="672.522"/>
      <point x="825.707" y="538" type="curve" smooth="yes"/>
      <point x="819.5" y="281" type="line"/>
      <point x="641.5" y="281" type="line"/>
      <point x="635.542" y="538" type="line" smooth="yes"/>
      <point x="632.458" y="671.01"/>
      <point x="584.614" y="731.5"/>
      <point x="481.045" y="731.5" type="curve" smooth="yes"/>
      <point x="367.47" y="731.5"/>
      <point x="308" y="658.326"/>
      <point x="308" y="517.5" type="curve" smooth="yes"/>
      <point x="308" y="341.693"/>
      <point x="382" y="186.894"/>
      <point x="525.5" y="2.88036" type="curve"/>
      <point x="525.5" y="0" type="line"/>
      <point x="301.464" y="0" type="line"/>
      <point x="174.721" y="168.392"/>
      <point x="108" y="343.687"/>
      <point x="108" y="524" type="curve" smooth="yes"/>
      <point x="108" y="763.344"/>
      <point x="235.888" y="891.5"/>
    </contour>
  </outline>
  <guideline angle="0" x="0" y="519"/>
  <guideline angle="0" x="0" y="518"/>
  <guideline angle="90" x="108" y="0"/>
  <guideline angle="90" x="1114" y="0"/>
  <guideline angle="0" x="0" y="9"/>
  <guideline angle="90" x="1119" y="0"/>
  <guideline angle="90" x="1102" y="0"/>
  <guideline angle="0" x="0" y="1262"/>
  <guideline angle="90" x="1216" y="0"/>
  <guideline angle="0" x="0" y="30"/>
</glyph>
<glyph name="Va.dv" format="2">
  <advance width="1205"/>
  <unicode hex="0935"/>
  <anchor x="939.5" y="23" name="bottom"/>
  <anchor x="932.5" y="23" name="bottom2"/>
  <anchor x="1033.5" y="23" name="bottom3"/>
  <anchor x="938.5" y="42.5" name="bottom5"/>
  <anchor x="938.5" y="1238" name="top"/>
  <outline>
    <contour>
      <point x="1033.5" y="1174.5" type="line"/>
      <point x="1033.5" y="0" type="line"/>
      <point x="844.5" y="0" type="line"/>
      <point x="844.5" y="1174.5" type="line"/>
    </contour>
    <contour>
      <point x="751.25" y="1123.5" type="line"/>
      <point x="739.25" y="1268.75" type="line"/>
      <point x="1234.25" y="1268.75" type="line"/>
      <point x="1246.25" y="1123.5" type="line"/>
    </contour>
    <contour>
      <point x="-28" y="1124" type="line"/>
      <point x="-40" y="1269" type="line"/>
      <point x="1132" y="1269" type="line"/>
      <point x="1144.5" y="1124" type="line"/>
    </contour>
    <contour>
      <point x="105" y="542.746" type="curve" smooth="yes"/>
      <point x="105" y="562.661" type="line" smooth="yes"/>
      <point x="105" y="811.354"/>
      <point x="247.392" y="937"/>
      <point x="515.5" y="937" type="curve" smooth="yes"/>
      <point x="587.516" y="937"/>
      <point x="654.669" y="928"/>
      <point x="710.5" y="911.5" type="curve"/>
      <point x="725" y="757" type="line"/>
      <point x="670.242" y="771.5"/>
      <point x="610.957" y="779"/>
      <point x="543.156" y="779" type="curve" smooth="yes"/>
      <point x="381.886" y="779"/>
      <point x="301" y="707.911"/>
      <point x="301" y="560.123" type="curve" smooth="yes"/>
      <point x="301" y="549.758" type="line" smooth="yes"/>
      <point x="301" y="396.395"/>
      <point x="382.526" y="328"/>
      <point x="548.421" y="328" type="curve" smooth="yes"/>
      <point x="713.348" y="328"/>
      <point x="818.289" y="386.221"/>
      <point x="847" y="506.5" type="curve"/>
      <point x="855.5" y="334.5" type="line"/>
      <point x="833" y="334.5" type="line"/>
      <point x="790.457" y="226.57"/>
      <point x="693.587" y="164.5"/>
      <point x="507.5" y="164.5" type="curve" smooth="yes"/>
      <point x="255.158" y="164.5"/>
      <point x="105" y="287.845"/>
    </contour>
  </outline>
  <guideline angle="90" x="836.5" y="0"/>
  <guideline angle="0" x="0" y="9"/>
  <guideline angle="90" x="841.5" y="0"/>
  <guideline angle="90" x="824.5" y="0"/>
  <guideline angle="0" x="0" y="1262"/>
  <guideline angle="90" x="938.5" y="0"/>
  <guideline angle="0" x="0" y="30"/>
</glyph>
<glyph name="Ssa.dv" format="2">
  <advance width="1204"/>
  <unicode hex="0937"/>
  <anchor x="938.5" y="23" name="bottom"/>
  <anchor x="931.5" y="23" name="bottom2"/>
  <anchor x="1032.5" y="23" name="bottom3"/>
  <anchor x="937.5" y="42.5" name="bottom5"/>
  <anchor x="937.5" y="1238" name="top"/>
  <outline>
    <contour>
      <point x="1032.5" y="1174.5" type="line"/>
      <point x="1032.5" y="0" type="line"/>
      <point x="843.5" y="0" type="line"/>
      <point x="843.5" y="1174.5" type="line"/>
    </contour>
    <contour>
      <point x="750.25" y="1123.5" type="line"/>
      <point x="738.25" y="1268.75" type="line"/>
      <point x="1233.25" y="1268.75" type="line"/>
      <point x="1245.25" y="1123.5" type="line"/>
    </contour>
    <contour>
      <point x="-29.75" y="1123.5" type="line"/>
      <point x="-41.75" y="1268.75" type="line"/>
      <point x="1182" y="1268.75" type="line"/>
      <point x="1194" y="1123.5" type="line"/>
    </contour>
    <contour>
      <point x="534.5" y="294.25" type="curve" smooth="yes"/>
      <point x="284.902" y="294.25"/>
      <point x="143.75" y="431.933"/>
      <point x="143.75" y="714.25" type="curve" smooth="yes"/>
      <point x="143.75" y="1173.75" type="line"/>
      <point x="331.5" y="1173.75" type="line"/>
      <point x="331.5" y="732" type="line" smooth="yes"/>
      <point x="331.5" y="539.209"/>
      <point x="416.004" y="453.75"/>
      <point x="574.25" y="453.75" type="curve" smooth="yes"/>
      <point x="722.996" y="453.75"/>
      <point x="812.605" y="508.455"/>
      <point x="846" y="621" type="curve"/>
      <point x="851.5" y="462.75" type="line"/>
      <point x="833" y="462.75" type="line"/>
      <point x="794.651" y="361.858"/>
      <point x="706.025" y="294.25"/>
    </contour>
    <contour>
      <point x="288.152" y="1071.25" type="curve"/>
      <point x="321.352" y="1172.93" type="line"/>
      <point x="695.715" y="815.186" type="line" smooth="yes"/>
      <point x="780.582" y="734.087"/>
      <point x="848.499" y="661.193"/>
      <point x="906.667" y="565.683" type="curve"/>
      <point x="860.158" y="486.385" type="line"/>
      <point x="486.025" y="834.377" type="line" smooth="yes"/>
      <point x="392.218" y="921.63"/>
      <point x="331.06" y="985.762"/>
    </contour>
  </outline>
  <guideline angle="90" x="835.5" y="0"/>
  <guideline angle="0" x="0" y="9"/>
  <guideline angle="90" x="840.5" y="0"/>
  <guideline angle="90" x="823.5" y="0"/>
  <guideline angle="0" x="0" y="1262"/>
  <guideline angle="90" x="937.5" y="0"/>
  <guideline angle="0" x="0" y="30"/>
</glyph>
<glyph name="uni093A" format="2">
  <unicode hex="093A"/>
  <anchor x="-266" y="1238" name="_top"/>
  <outline>
    <contour>
      <point x="-350.75" y="1695" type="line"/>
      <point x="-182.25" y="1695" type="line"/>
      <point x="-182.25" y="1245" type="line"/>
      <point x="-350.75" y="1245" type="line"/>
    </contour>
  </outline>
  <guideline angle="90" x="-98" y="0"/>
</glyph>
<glyph name="uni093B" format="2">
  <advance width="530"/>
  <unicode hex="093B"/>
  <outline>
    <contour>
      <point x="360" y="0" type="line"/>
      <point x="170.25" y="0" type="line"/>
      <point x="170.25" y="1174.5" type="line"/>
      <point x="360" y="1174.5" type="line"/>
    </contour>
    <contour>
      <point x="571.75" y="1123.5" type="line"/>
      <point x="-29.5" y="1123.5" type="line"/>
      <point x="-44.5" y="1268.75" type="line"/>
      <point x="559.75" y="1268.75" type="line"/>
    </contour>
    <contour>
      <point x="179.5" y="1695" type="line"/>
      <point x="348" y="1695" type="line"/>
      <point x="348" y="1245" type="line"/>
      <point x="179.5" y="1245" type="line"/>
    </contour>
  </outline>
  <guideline angle="90" x="89" y="0"/>
</glyph>
<glyph name="matraUu.dv" format="2">
  <unicode hex="0942"/>
  <anchor x="-265" y="23" name="_bottom"/>
  <outline>
    <contour>
      <point x="-190.916" y="-554.228" type="line"/>
      <point x="-235.131" y="-576.596"/>
      <point x="-288.282" y="-587.75"/>
      <point x="-360.25" y="-587.75" type="curve" smooth="yes"/>
      <point x="-548.102" y="-587.75"/>
      <point x="-675" y="-483.727"/>
      <point x="-675" y="-295.255" type="curve" smooth="yes"/>
      <point x="-675" y="-277.747" type="line" smooth="yes"/>
      <point x="-675" y="-87.9403"/>
      <point x="-548.624" y="23.5"/>
      <point x="-323.884" y="23.5" type="curve" smooth="yes"/>
      <point x="7.66046" y="23.5"/>
      <point x="130.039" y="-189.25"/>
      <point x="223.5" y="-585.75" type="curve"/>
      <point x="35.5" y="-585.75" type="line"/>
      <point x="-43.1155" y="-266.632"/>
      <point x="-123.388" y="-130.25"/>
      <point x="-315.066" y="-130.25" type="curve" smooth="yes"/>
      <point x="-428.562" y="-130.25"/>
      <point x="-493.25" y="-181.678"/>
      <point x="-493.25" y="-279.332" type="curve" smooth="yes"/>
      <point x="-493.25" y="-291.461" type="line" smooth="yes"/>
      <point x="-493.25" y="-389.004"/>
      <point x="-434.562" y="-434"/>
      <point x="-334.495" y="-434" type="curve" smooth="yes"/>
      <point x="-278.568" y="-434"/>
      <point x="-223.788" y="-421.973"/>
      <point x="-174.75" y="-397" type="curve"/>
    </contour>
  </outline>
  <guideline angle="0" x="0" y="9"/>
  <guideline angle="90" x="-344" y="0"/>
</glyph>
<glyph name="matraShortO.dv" format="2">
  <advance width="530"/>
  <unicode hex="094A"/>
  <outline>
    <contour>
      <point x="-321.324" y="1787.37" type="curve" smooth="yes"/>
      <point x="-320.318" y="1671.49"/>
      <point x="-274.655" y="1622.23"/>
      <point x="-128.079" y="1621.26" type="curve" smooth="yes"/>
      <point x="24.0007" y="1620.26" type="line" smooth="yes"/>
      <point x="259.947" y="1618.7"/>
      <point x="348.827" y="1509.61"/>
      <point x="348.827" y="1308.04" type="curve" smooth="yes"/>
      <point x="348.827" y="1237.06" type="line"/>
      <point x="177.709" y="1237.06" type="line"/>
      <point x="177.709" y="1298.62" type="line" smooth="yes"/>
      <point x="177.709" y="1409.69"/>
      <point x="136.503" y="1462.99"/>
      <point x="0.984188" y="1464.03" type="curve" smooth="yes"/>
      <point x="-160.566" y="1465.26" type="line" smooth="yes"/>
      <point x="-387.741" y="1466.99"/>
      <point x="-491.939" y="1558.46"/>
      <point x="-491.939" y="1724.26" type="curve" smooth="yes"/>
      <point x="-491.939" y="1755.21"/>
      <point x="-488.421" y="1783.83"/>
      <point x="-480.381" y="1812.48" type="curve"/>
      <point x="-321.575" y="1812.48" type="line"/>
      <point x="-321.554" y="1809.68"/>
      <point x="-321.349" y="1790.29"/>
    </contour>
    <contour>
      <point x="360" y="1.43695e-07" type="line"/>
      <point x="170.25" y="1.43695e-07" type="line"/>
      <point x="170.25" y="1174.5" type="line"/>
      <point x="360" y="1174.5" type="line"/>
    </contour>
    <contour>
      <point x="571.75" y="1123.5" type="line"/>
      <point x="-29.5" y="1123.5" type="line"/>
      <point x="-44.5" y="1268.75" type="line"/>
      <point x="559.75" y="1268.75" type="line"/>
    </contour>
  </outline>
  <guideline angle="90" x="224.495" y="0"/>
</glyph>
<glyph name="matraO.dv" format="2">
  <advance width="530"/>
  <unicode hex="094B"/>
  <outline>
    <contour>
      <point x="360" y="0" type="line"/>
      <point x="170.25" y="0" type="line"/>
      <point x="170.25" y="1174.5" type="line"/>
      <point x="360" y="1174.5" type="line"/>
    </contour>
    <contour>
      <point x="571.75" y="1123.5" type="line"/>
      <point x="-29.5" y="1123.5" type="line"/>
      <point x="-44.5" y="1268.75" type="line"/>
      <point x="559.75" y="1268.75" type="line"/>
    </contour>
    <contour>
      <point x="-453.25" y="1776.25" type="line"/>
      <point x="-204.854" y="1776.25" type="line"/>
      <point x="-92.5845" y="1669.67"/>
      <point x="232.575" y="1361.51"/>
      <point x="340" y="1260.75" type="curve"/>
      <point x="340" y="1238" type="line"/>
      <point x="162.25" y="1238" type="line"/>
      <point x="162.25" y="1275.5" type="line"/>
      <point x="3.20035" y="1358.59"/>
      <point x="-89.5522" y="1421.92"/>
      <point x="-221" y="1542.5" type="curve" smooth="yes"/>
      <point x="-453.25" y="1755.54" type="line"/>
    </contour>
  </outline>
  <guideline angle="90" x="133" y="0"/>
</glyph>
<glyph name="uni0953" format="2">
  <unicode hex="0953"/>
  <anchor x="-265.25" y="1238" name="_top"/>
  <outline>
    <contour>
      <point x="-379.5" y="1406.25" type="line"/>
      <point x="-681.25" y="1766.25" type="line"/>
      <point x="-681.25" y="1777.5" type="line"/>
      <point x="-464.75" y="1777.5" type="line"/>
      <point x="-196.75" y="1414" type="line"/>
      <point x="-196.75" y="1406.25" type="line"/>
    </contour>
  </outline>
  <guideline angle="90" x="-169" y="0"/>
  <guideline angle="0" x="0" y="1262"/>
</glyph>
<glyph name="uni0954" format="2">
  <unicode hex="0954"/>
  <anchor x="-265.25" y="1238" name="_top"/>
  <outline>
    <contour>
      <point x="-157" y="1406.25" type="line"/>
      <point x="-342.75" y="1406.25" type="line"/>
      <point x="-342.75" y="1414" type="line"/>
      <point x="-74.5" y="1777.75" type="line"/>
      <point x="142" y="1777.75" type="line"/>
      <point x="142" y="1766.5" type="line"/>
    </contour>
  </outline>
  <guideline angle="90" x="-169" y="0"/>
  <guideline angle="0" x="0" y="1262"/>
</glyph>
<glyph name="uni0956" format="2">
  <unicode hex="0956"/>
  <anchor x="-265.25" y="42.5" name="_bottom5"/>
  <outline>
    <contour>
      <point x="-264.5" y="-403" type="curve" smooth="yes"/>
      <point x="-420.828" y="-403"/>
      <point x="-551.986" y="-375.894"/>
      <point x="-648.761" y="-327.903" type="curve"/>
      <point x="-657.74" y="-162.25" type="line"/>
      <point x="-547.194" y="-215.099"/>
      <point x="-412.505" y="-244.75"/>
      <point x="-265" y="-244.75" type="curve" smooth="yes"/>
      <point x="-117.495" y="-244.75"/>
      <point x="16.7038" y="-215.608"/>
      <point x="127.75" y="-162.25" type="curve"/>
      <point x="118.797" y="-327.903" type="line"/>
      <point x="20.255" y="-376.434"/>
      <point x="-108.57" y="-403"/>
    </contour>
  </outline>
  <guideline angle="90" x="-169" y="0"/>
  <guideline angle="0" x="0" y="9"/>
</glyph>
<glyph name="PhaNukta.dv" format="2">
  <advance width="1663"/>
  <unicode hex="095E"/>
  <anchor x="850" y="23" name="bottom"/>
  <anchor x="845.25" y="23" name="bottom2"/>
  <anchor x="1260.75" y="23" name="bottom3"/>
  <anchor x="851.25" y="42.5" name="bottom5"/>
  <anchor x="851.25" y="1238" name="top"/>
  <outline>
    <contour>
      <point x="-29.75" y="1123.5" type="line"/>
      <point x="-41.75" y="1268.75" type="line"/>
      <point x="1691.5" y="1268.75" type="line"/>
      <point x="1703.25" y="1123.5" type="line"/>
    </contour>
    <contour>
      <point x="485" y="298.25" type="curve" smooth="yes"/>
      <point x="266.008" y="298.25"/>
      <point x="143.5" y="413.222"/>
      <point x="143.5" y="684" type="curve" smooth="yes"/>
      <point x="143.5" y="1173.75" type="line"/>
      <point x="333.5" y="1173.75" type="line"/>
      <point x="333.5" y="702.25" type="line" smooth="yes"/>
      <point x="333.5" y="524.772"/>
      <point x="404.826" y="461"/>
      <point x="539.25" y="461" type="curve" smooth="yes"/>
      <point x="663.696" y="461"/>
      <point x="729.526" y="516.481"/>
      <point x="759" y="610.5" type="curve"/>
      <point x="764.25" y="452.25" type="line"/>
      <point x="744" y="452.25" type="line"/>
      <point x="712.987" y="359.873"/>
      <point x="635.371" y="298.25"/>
    </contour>
    <contour>
      <point x="1170.03" y="751.75" type="curve" smooth="yes"/>
      <point x="1054.34" y="751.75"/>
      <point x="972.084" y="693.5"/>
      <point x="937" y="585.25" type="curve"/>
      <point x="931" y="744.75" type="line"/>
      <point x="952.5" y="744.75" type="line"/>
      <point x="991.388" y="844.112"/>
      <point x="1082.32" y="911.5"/>
      <point x="1232.57" y="911.5" type="curve" smooth="yes"/>
      <point x="1450.76" y="911.5"/>
      <point x="1560.5" y="774.005"/>
      <point x="1560.5" y="531.43" type="curve" smooth="yes"/>
      <point x="1560.5" y="504.842" type="line" smooth="yes"/>
      <point x="1560.5" y="238.831"/>
      <point x="1454.05" y="128"/>
      <point x="1233.54" y="128" type="curve" smooth="yes"/>
      <point x="1181.22" y="128"/>
      <point x="1128.52" y="136.461"/>
      <point x="1091.75" y="149.5" type="curve"/>
      <point x="1079" y="306.5" type="line"/>
      <point x="1110.51" y="293.5"/>
      <point x="1153.32" y="285"/>
      <point x="1196.88" y="285" type="curve" smooth="yes"/>
      <point x="1317.74" y="285"/>
      <point x="1367.25" y="345.792"/>
      <point x="1367.25" y="510.108" type="curve" smooth="yes"/>
      <point x="1367.25" y="529.783" type="line" smooth="yes"/>
      <point x="1367.25" y="679.161"/>
      <point x="1308.45" y="751.75"/>
    </contour>
    <contour>
      <point x="944.25" y="1174.5" type="line"/>
      <point x="944.25" y="0" type="line"/>
      <point x="753.5" y="0" type="line"/>
      <point x="753.5" y="1174.5" type="line"/>
    </contour>
    <contour>
      <point x="294.5" y="-100.88" type="curve" smooth="yes"/>
      <point x="216.29" y="-100.88"/>
      <point x="177.98" y="-55.3002"/>
      <point x="177.98" y="18.2898" type="curve"/>
      <point x="177.98" y="19.8457"/>
      <point x="177.98" y="24.7608"/>
      <point x="177.98" y="26.4598" type="curve"/>
      <point x="177.98" y="101.3"/>
      <point x="216.29" y="146.38"/>
      <point x="294.5" y="146.38" type="curve" smooth="yes"/>
      <point x="372.71" y="146.38"/>
      <point x="410.52" y="100.8"/>
      <point x="410.52" y="26.4598" type="curve"/>
      <point x="410.52" y="24.91"/>
      <point x="410.52" y="19.9926"/>
      <point x="410.52" y="18.29" type="curve"/>
      <point x="410.52" y="-55.55"/>
      <point x="372.46" y="-100.88"/>
    </contour>
  </outline>
  <guideline angle="90" x="178" y="0"/>
  <guideline angle="0" x="0" y="147"/>
  <guideline angle="90" x="389" y="0"/>
  <guideline angle="0" x="0" y="9"/>
  <guideline angle="90" x="501" y="0"/>
  <guideline angle="0" x="0" y="9"/>
  <guideline angle="90" x="506" y="0"/>
  <guideline angle="90" x="489" y="0"/>
  <guideline angle="0" x="0" y="1262"/>
  <guideline angle="90" x="1136" y="0"/>
  <guideline angle="0" x="0" y="30"/>
</glyph>
<glyph name="vowelRuu.dv" format="2">
  <advance width="1688"/>
  <unicode hex="0960"/>
  <anchor x="1262" y="23" name="bottom3"/>
  <anchor x="854.5" y="42.5" name="bottom5"/>
  <anchor x="854.25" y="1238" name="top"/>
  <outline>
    <contour>
      <point x="950" y="0.5" type="line"/>
      <point x="760" y="0.5" type="line"/>
      <point x="760" y="1168.5" type="line"/>
      <point x="950" y="1168.5" type="line"/>
    </contour>
    <contour>
      <point x="797.5" y="349" type="line"/>
      <point x="96" y="49.5" type="line"/>
      <point x="96" y="227.202" type="line"/>
      <point x="389" y="352" type="line"/>
      <point x="407.5" y="345" type="line"/>
      <point x="465" y="376.911"/>
      <point x="519.925" y="406.145"/>
      <point x="579" y="429.759" type="curve" smooth="yes"/>
      <point x="796" y="516.5" type="line"/>
    </contour>
    <contour>
      <point x="459.5" y="355" type="line"/>
      <point x="275.499" y="295" type="line"/>
      <point x="359.287" y="368.714"/>
      <point x="382.499" y="428.11"/>
      <point x="382.499" y="570.218" type="curve" smooth="yes"/>
      <point x="382.499" y="595.715" type="line" smooth="yes"/>
      <point x="382.499" y="720.751"/>
      <point x="340.121" y="779.5"/>
      <point x="239.75" y="779.5" type="curve" smooth="yes"/>
      <point x="182.54" y="779.5"/>
      <point x="134.308" y="765.5"/>
      <point x="86.5" y="742.5" type="curve"/>
      <point x="99.5" y="901.5" type="line"/>
      <point x="146.52" y="925"/>
      <point x="207.933" y="938"/>
      <point x="275.173" y="938" type="curve" smooth="yes"/>
      <point x="475.352" y="938"/>
      <point x="564.5" y="831.556"/>
      <point x="564.5" y="639" type="curve" smooth="yes"/>
      <point x="564.5" y="624" type="line" smooth="yes"/>
      <point x="564.5" y="511.5"/>
      <point x="530.5" y="439.5"/>
      <point x="449.5" y="382.5" type="curve"/>
    </contour>
    <contour>
      <point x="1724.75" y="1124" type="line"/>
      <point x="-29.25" y="1124" type="line"/>
      <point x="-41.25" y="1268.75" type="line"/>
      <point x="1712.75" y="1268.75" type="line"/>
    </contour>
    <contour>
      <point x="1348" y="734.5" type="line"/>
      <point x="1401.25" y="594" type="line"/>
      <point x="910.75" y="389.5" type="line"/>
      <point x="909" y="555" type="line"/>
    </contour>
    <contour>
      <point x="1413" y="938" type="line"/>
      <point x="1442.25" y="861.924"/>
      <point x="1462" y="788.685"/>
      <point x="1473" y="696.277" type="curve"/>
      <point x="1392.74" y="584.75" type="line"/>
      <point x="1238.25" y="572.5" type="line"/>
      <point x="1238.25" y="938" type="line"/>
    </contour>
    <contour>
      <point x="1459.25" y="-98" type="curve" smooth="yes"/>
      <point x="1278.24" y="-98"/>
      <point x="1163.75" y="-20.5712"/>
      <point x="1163.75" y="155.741" type="curve" smooth="yes"/>
      <point x="1163.75" y="166.728" type="line" smooth="yes"/>
      <point x="1163.75" y="311.957"/>
      <point x="1241.97" y="387.808"/>
      <point x="1407.25" y="405.75" type="curve"/>
      <point x="1407.25" y="412.25" type="line"/>
      <point x="1326.66" y="456.249"/>
      <point x="1279.33" y="512.9"/>
      <point x="1244.5" y="590.75" type="curve"/>
      <point x="1396.5" y="649.75" type="line"/>
      <point x="1426.93" y="561.546"/>
      <point x="1510.82" y="482.512"/>
      <point x="1598" y="440.5" type="curve"/>
      <point x="1598" y="306.5" type="line"/>
      <point x="1407.54" y="302.97"/>
      <point x="1343.25" y="267.317"/>
      <point x="1343.25" y="177.269" type="curve" smooth="yes"/>
      <point x="1343.25" y="170.049" type="line" smooth="yes"/>
      <point x="1343.25" y="86.8839"/>
      <point x="1392.45" y="54.25"/>
      <point x="1488.25" y="54.25" type="curve" smooth="yes"/>
      <point x="1547.7" y="54.25"/>
      <point x="1599.37" y="66.5"/>
      <point x="1648" y="90.25" type="curve"/>
      <point x="1637" y="-62.5181" type="line"/>
      <point x="1591.62" y="-86.4772"/>
      <point x="1531.95" y="-98"/>
    </contour>
  </outline>
  <guideline angle="90" x="492" y="0"/>
  <guideline angle="90" x="-29" y="0"/>
</glyph>
<glyph name="Danda.dv" format="2">
  <advance width="773"/>
  <unicode hex="0964"/>
  <outline>
    <contour>
      <point x="478.25" y="1300.75" type="line"/>
      <point x="478.25" y="-4.5" type="line"/>
      <point x="294" y="-4.5" type="line"/>
      <point x="294" y="1328" type="line"/>
    </contour>
  </outline>
</glyph>
<glyph name="Shunya.dv" format="2">
  <advance width="1110"/>
  <unicode hex="0966"/>
  <outline>
    <contour>
      <point x="555.285" y="337.195" type="curve" smooth="yes"/>
      <point x="723.58" y="337.195"/>
      <point x="809" y="416.399"/>
      <point x="809" y="610" type="curve" smooth="yes"/>
      <point x="809" y="662.03" type="line" smooth="yes"/>
      <point x="809" y="859.058"/>
      <point x="724.04" y="937.525"/>
      <point x="555.745" y="937.525" type="curve" smooth="yes"/>
      <point x="386.99" y="937.525"/>
      <point x="299.75" y="859.806"/>
      <point x="299.75" y="662.28" type="curve" smooth="yes"/>
      <point x="299.75" y="610.25" type="line" smooth="yes"/>
      <point x="299.75" y="416.647"/>
      <point x="386.49" y="337.195"/>
    </contour>
    <contour>
      <point x="555.285" y="178.88" type="curve"/>
      <point x="260.07" y="178.88"/>
      <point x="104.455" y="316.545"/>
      <point x="104.455" y="608.675" type="curve" smooth="yes"/>
      <point x="104.455" y="663.545" type="line" smooth="yes"/>
      <point x="104.455" y="960.095"/>
      <point x="261.935" y="1095.84"/>
      <point x="555.745" y="1095.84" type="curve" smooth="yes"/>
      <point x="849.095" y="1095.84"/>
      <point x="1005.17" y="959.65"/>
      <point x="1005.17" y="663.545" type="curve" smooth="yes"/>
      <point x="1005.17" y="608.675" type="line" smooth="yes"/>
      <point x="1005.17" y="317.74"/>
      <point x="849.555" y="178.88"/>
    </contour>
  </outline>
  <guideline angle="0" x="0" y="711"/>
  <guideline angle="0" x="0" y="1655"/>
</glyph>
<glyph name="Teen.dv" format="2">
  <advance width="1003"/>
  <unicode hex="0969"/>
  <outline>
    <contour>
      <point x="68.98" y="283.905" type="line"/>
      <point x="179.591" y="219.015"/>
      <point x="311.485" y="177.47"/>
      <point x="440.925" y="177.47" type="curve" smooth="yes"/>
      <point x="618.335" y="177.47"/>
      <point x="697.06" y="241.25"/>
      <point x="697.06" y="371.13" type="curve" smooth="yes"/>
      <point x="697.06" y="383.33" type="line" smooth="yes"/>
      <point x="697.06" y="513.142"/>
      <point x="615.941" y="575.645"/>
      <point x="395.32" y="583.3" type="curve" smooth="yes"/>
      <point x="236.52" y="588.81" type="line"/>
      <point x="236.52" y="743.54" type="line"/>
      <point x="384.39" y="747.63" type="line" smooth="yes"/>
      <point x="608.606" y="753.832"/>
      <point x="685.84" y="816.402"/>
      <point x="685.84" y="936.56" type="curve" smooth="yes"/>
      <point x="685.84" y="948.139" type="line" smooth="yes"/>
      <point x="685.84" y="1062.99"/>
      <point x="615" y="1122.37"/>
      <point x="454.15" y="1122.37" type="curve" smooth="yes"/>
      <point x="335" y="1122.37"/>
      <point x="226.5" y="1091.3"/>
      <point x="121.16" y="1036.47" type="curve"/>
      <point x="133.385" y="1209.44" type="line"/>
      <point x="225.377" y="1255.46"/>
      <point x="337.75" y="1279.88"/>
      <point x="475.955" y="1279.67" type="curve" smooth="yes"/>
      <point x="753.014" y="1279.26"/>
      <point x="881.38" y="1157.34"/>
      <point x="881.38" y="962.99" type="curve" smooth="yes"/>
      <point x="881.38" y="949.96" type="line" smooth="yes"/>
      <point x="881.38" y="786.557"/>
      <point x="803.036" y="693.414"/>
      <point x="608.25" y="670" type="curve"/>
      <point x="608.25" y="661.86" type="line"/>
      <point x="805.571" y="639.169"/>
      <point x="892.902" y="532.105"/>
      <point x="892.696" y="363.25" type="curve" smooth="yes"/>
      <point x="892.676" y="346.58" type="line" smooth="yes"/>
      <point x="892.404" y="123.26"/>
      <point x="760.8" y="18.1856"/>
      <point x="468.53" y="18.1949" type="curve" smooth="yes"/>
      <point x="397.015" y="18.1972"/>
      <point x="302.345" y="31.7733"/>
      <point x="236.525" y="52.9" type="curve"/>
      <point x="79.6651" y="97.22" type="line"/>
    </contour>
    <contour>
      <point x="679.97" y="-307.9" type="line"/>
      <point x="459.68" y="-307.9" type="line"/>
      <point x="225.5" y="39.25" type="line"/>
      <point x="79.51" y="97.39" type="line"/>
      <point x="104.22" y="101.6" type="line"/>
      <point x="394.13" y="71.84" type="line"/>
      <point x="394.63" y="25.2" type="line"/>
      <point x="470.559" y="-32.2829"/>
      <point x="515.579" y="-81.5956"/>
      <point x="574" y="-159.5" type="curve" smooth="yes"/>
      <point x="679.97" y="-300.81" type="line"/>
    </contour>
  </outline>
</glyph>
<glyph name="Saha.dv" format="2">
  <advance width="1051"/>
  <unicode hex="096C"/>
  <outline>
    <contour>
      <point x="519.609" y="-12.75" type="curve" smooth="yes"/>
      <point x="260.167" y="-12.75"/>
      <point x="107.108" y="104.893"/>
      <point x="107.522" y="347.82" type="curve" smooth="yes"/>
      <point x="107.548" y="363.366" type="line" smooth="yes"/>
      <point x="107.857" y="544.823"/>
      <point x="194.825" y="652.771"/>
      <point x="403.28" y="671.75" type="curve"/>
      <point x="403.28" y="680" type="line"/>
      <point x="199.602" y="707.421"/>
      <point x="130.143" y="799.394"/>
      <point x="130.983" y="949.5" type="curve" smooth="yes"/>
      <point x="131.054" y="962.06" type="line" smooth="yes"/>
      <point x="132.188" y="1164.83"/>
      <point x="265.258" y="1279.82"/>
      <point x="560.672" y="1279.82" type="curve" smooth="yes"/>
      <point x="696.328" y="1279.82"/>
      <point x="812.374" y="1258.29"/>
      <point x="901.98" y="1217.5" type="curve"/>
      <point x="914.2" y="1053.79" type="line"/>
      <point x="802.487" y="1099.5"/>
      <point x="696.533" y="1121.87"/>
      <point x="580.079" y="1121.87" type="curve" smooth="yes"/>
      <point x="407.714" y="1121.87"/>
      <point x="327.72" y="1063.25"/>
      <point x="327.72" y="939.06" type="curve" smooth="yes"/>
      <point x="327.72" y="931.3" type="line" smooth="yes"/>
      <point x="327.72" y="809.981"/>
      <point x="404.943" y="762.555"/>
      <point x="615.892" y="756.5" type="curve" smooth="yes"/>
      <point x="803.67" y="751.11" type="line"/>
      <point x="803.67" y="595.91" type="line"/>
      <point x="608.247" y="591.07" type="line" smooth="yes"/>
      <point x="388.068" y="585.617"/>
      <point x="304.346" y="524.97"/>
      <point x="304.143" y="370.3" type="curve" smooth="yes"/>
      <point x="304.124" y="356.25" type="line" smooth="yes"/>
      <point x="303.933" y="210.75"/>
      <point x="389.917" y="145.5"/>
      <point x="548.912" y="145.5" type="curve" smooth="yes"/>
      <point x="647.255" y="145.5"/>
      <point x="720.794" y="167.5"/>
      <point x="771.75" y="208.25" type="curve"/>
      <point x="806.25" y="81.713" type="line"/>
      <point x="749.063" y="22.2906"/>
      <point x="654.002" y="-12.75"/>
    </contour>
    <contour>
      <point x="941.715" y="376.61" type="line"/>
      <point x="941.715" y="133.2" type="line"/>
      <point x="1002.43" y="-235.96" type="line"/>
      <point x="822.08" y="-235.995" type="line"/>
      <point x="771.22" y="121.44" type="line"/>
      <point x="756.31" y="130.1" type="line"/>
      <point x="756.31" y="376.61" type="line"/>
    </contour>
  </outline>
  <guideline angle="0" x="0" y="1249"/>
</glyph>
<glyph name="emdash" format="2">
  <advance width="1806"/>
  <unicode hex="2014"/>
  <outline>
    <contour>
      <point x="1692" y="442" type="line"/>
      <point x="1692" y="602" type="line"/>
      <point x="114" y="602" type="line"/>
      <point x="114" y="442" type="line"/>
    </contour>
  </outline>
</glyph>
<glyph name="quotedblright" format="2">
  <advance width="760"/>
  <unicode hex="201D"/>
  <outline>
    <contour>
      <point x="483" y="1324" type="line"/>
      <point x="487" y="1281"/>
      <point x="490" y="1245"/>
      <point x="490" y="1203" type="curve" smooth="yes"/>
      <point x="490" y="1065"/>
      <point x="461" y="953"/>
      <point x="402" y="852" type="curve"/>
      <point x="541" y="814" type="line"/>
      <point x="638" y="930"/>
      <point x="678" y="1059"/>
      <point x="678" y="1213" type="curve" smooth="yes"/>
      <point x="678" y="1258"/>
      <point x="673" y="1298"/>
      <point x="669" y="1324" type="curve"/>
    </contour>
    <contour>
      <point x="130" y="1324" type="line"/>
      <point x="134" y="1281"/>
      <point x="137" y="1245"/>
      <point x="137" y="1203" type="curve" smooth="yes"/>
      <point x="137" y="1065"/>
      <point x="108" y="953"/>
      <point x="49" y="852" type="curve"/>
      <point x="188" y="814" type="line"/>
      <point x="285" y="930"/>
      <point x="325" y="1059"/>
      <point x="325" y="1213" type="curve" smooth="yes"/>
      <point x="325" y="1258"/>
      <point x="320" y="1298"/>
      <point x="316" y="1324" type="curve"/>
    </contour>
  </outline>
</glyph>
<glyph name="ellipsis" format="2">
  <advance width="1190"/>
  <unicode hex="2026"/>
  <outline>
    <contour>
      <point x="989" y="-21" type="curve" smooth="yes"/>
      <point x="1068" y="-21"/>
      <point x="1106" y="24"/>
      <point x="1106" y="102" type="curve" smooth="yes"/>
      <point x="1106" y="112" type="line" smooth="yes"/>
      <point x="1106" y="189"/>
      <point x="1068" y="234"/>
      <point x="989" y="234" type="curve" smooth="yes"/>
      <point x="909" y="234"/>
      <point x="872" y="189"/>
      <point x="872" y="112" type="curve" smooth="yes"/>
      <point x="872" y="102" type="line" smooth="yes"/>
      <point x="872" y="24"/>
      <point x="909" y="-21"/>
    </contour>
    <contour>
      <point x="595" y="-21" type="curve" smooth="yes"/>
      <point x="674" y="-21"/>
      <point x="712" y="24"/>
      <point x="712" y="102" type="curve" smooth="yes"/>
      <point x="712" y="112" type="line" smooth="yes"/>
      <point x="712" y="189"/>
      <point x="674" y="234"/>
      <point x="595" y="234" type="curve" smooth="yes"/>
      <point x="515" y="234"/>
      <point x="478" y="189"/>
      <point x="478" y="112" type="curve" smooth="yes"/>
      <point x="478" y="102" type="line" smooth="yes"/>
      <point x="478" y="24"/>
      <point x="515" y="-21"/>
    </contour>
    <contour>
      <point x="201" y="-21" type="curve" smooth="yes"/>
      <point x="280" y="-21"/>
      <point x="318" y="24"/>
      <point x="318" y="102" type="curve" smooth="yes"/>
      <point x="318" y="112" type="line" smooth="yes"/>
      <point x="318" y="189"/>
      <point x="280" y="234"/>
      <point x="201" y="234" type="curve" smooth="yes"/>
      <point x="121" y="234"/>
      <point x="84" y="189"/>
      <point x="84" y="112" type="curve" smooth="yes"/>
      <point x="84" y="102" type="line" smooth="yes"/>
      <point x="84" y="24"/>
      <point x="121" y="-21"/>
    </contour>
  </outline>
</glyph>
<glyph name="sevensuperior" format="2">
  <advance width="574"/>
  <unicode hex="2077"/>
  <outline>
    <contour>
      <point x="274" y="726" type="line"/>
      <point x="542" y="1283" type="line"/>
      <point x="542" y="1404" type="line"/>
      <point x="31" y="1404" type="line"/>
      <point x="31" y="1285" type="line"/>
      <point x="390" y="1285" type="line"/>
      <point x="115" y="726" type="line"/>
    </contour>
  </outline>
</glyph>
<glyph name="fiveinferior" format="2">
  <advance width="653"/>
  <unicode hex="2085"/>
  <outline>
    <contour>
      <point x="304" y="-216" type="curve" smooth="yes"/>
      <point x="513" y="-216"/>
      <point x="605" y="-128"/>
      <point x="605" y="13" type="curve" smooth="yes"/>
      <point x="605" y="32" type="line" smooth="yes"/>
      <point x="605" y="160"/>
      <point x="538" y="239"/>
      <point x="399" y="239" type="curve" smooth="yes"/>
      <point x="307" y="239"/>
      <point x="243" y="208"/>
      <point x="208" y="151" type="curve"/>
      <point x="202" y="151" type="line"/>
      <point x="204" y="240" type="line"/>
      <point x="204" y="360" type="line"/>
      <point x="577" y="360" type="line"/>
      <point x="577" y="478" type="line"/>
      <point x="69" y="478" type="line"/>
      <point x="69" y="82" type="line"/>
      <point x="196" y="63" type="line"/>
      <point x="231" y="104"/>
      <point x="280" y="131"/>
      <point x="343" y="131" type="curve" smooth="yes"/>
      <point x="428" y="131"/>
      <point x="458" y="92"/>
      <point x="458" y="29" type="curve" smooth="yes"/>
      <point x="458" y="18" type="line" smooth="yes"/>
      <point x="458" y="-50"/>
      <point x="420" y="-95"/>
      <point x="294" y="-95" type="curve" smooth="yes"/>
      <point x="200" y="-95"/>
      <point x="121" y="-71"/>
      <point x="65" y="-46" type="curve"/>
      <point x="78" y="-172" type="line"/>
      <point x="120" y="-191"/>
      <point x="205" y="-216"/>
    </contour>
  </outline>
</glyph>
<glyph name="seveninferior" format="2">
  <advance width="574"/>
  <unicode hex="2087"/>
  <outline>
    <contour>
      <point x="274" y="-200" type="line"/>
      <point x="542" y="357" type="line"/>
      <point x="542" y="478" type="line"/>
      <point x="31" y="478" type="line"/>
      <point x="31" y="359" type="line"/>
      <point x="390" y="359" type="line"/>
      <point x="115" y="-200" type="line"/>
    </contour>
  </outline>
</glyph>
<glyph name="fi" format="2">
  <advance width="1198"/>
  <unicode hex="FB01"/>
  <anchor x="973" y="0" name="bottom"/>
  <anchor x="602" y="0" name="caret_1"/>
  <anchor x="1109" y="0" name="ogonek"/>
  <anchor x="380" y="1313" name="top"/>
  <outline>
    <contour>
      <point x="457" y="1352" type="curve" smooth="yes"/>
      <point x="240" y="1352"/>
      <point x="138" y="1259"/>
      <point x="138" y="1119" type="curve" smooth="yes"/>
      <point x="138" y="1114" type="line" smooth="yes"/>
      <point x="138" y="1034"/>
      <point x="177" y="977"/>
      <point x="227" y="946" type="curve"/>
      <point x="227" y="923" type="line"/>
      <point x="357" y="927" type="line"/>
      <point x="342" y="958"/>
      <point x="328" y="997"/>
      <point x="328" y="1040" type="curve" smooth="yes"/>
      <point x="328" y="1044" type="line" smooth="yes"/>
      <point x="328" y="1133"/>
      <point x="378" y="1190"/>
      <point x="521" y="1190" type="curve" smooth="yes"/>
      <point x="601" y="1190"/>
      <point x="662" y="1175"/>
      <point x="725" y="1154" type="curve"/>
      <point x="706" y="1306" type="line"/>
      <point x="639" y="1333"/>
      <point x="558" y="1352"/>
    </contour>
    <contour>
      <point x="366" y="0" type="line"/>
      <point x="366" y="881" type="line"/>
      <point x="171" y="881" type="line"/>
      <point x="171" y="0" type="line"/>
    </contour>
    <contour>
      <point x="704" y="782" type="line"/>
      <point x="721" y="938" type="line"/>
      <point x="326" y="938" type="line"/>
      <point x="246" y="937" type="line"/>
      <point x="17" y="938" type="line"/>
      <point x="17" y="782" type="line"/>
    </contour>
    <contour>
      <point x="1071" y="0" type="line"/>
      <point x="1071" y="978" type="line"/>
      <point x="875" y="978" type="line"/>
      <point x="875" y="0" type="line"/>
    </contour>
    <contour>
      <point x="973" y="1122" type="curve" smooth="yes"/>
      <point x="1050" y="1122"/>
      <point x="1088" y="1162"/>
      <point x="1088" y="1233" type="curve" smooth="yes"/>
      <point x="1088" y="1237" type="line" smooth="yes"/>
      <point x="1088" y="1306"/>
      <point x="1050" y="1348"/>
      <point x="973" y="1348" type="curve" smooth="yes"/>
      <point x="895" y="1348"/>
      <point x="858" y="1306"/>
      <point x="858" y="1237" type="curve" smooth="yes"/>
      <point x="858" y="1233" type="line" smooth="yes"/>
      <point x="858" y="1163"/>
      <point x="895" y="1122"/>
    </contour>
  </outline>
</glyph>
<glyph name="fl" format="2">
  <advance width="1202"/>
  <unicode hex="FB02"/>
  <anchor x="977" y="0" name="bottom"/>
  <anchor x="604" y="0" name="caret_1"/>
  <anchor x="977" y="657" name="center"/>
  <anchor x="977" y="1324" name="top"/>
  <anchor x="1216" y="1324" name="topright"/>
  <outline>
    <contour>
      <point x="457" y="1352" type="curve" smooth="yes"/>
      <point x="240" y="1352"/>
      <point x="138" y="1259"/>
      <point x="138" y="1119" type="curve" smooth="yes"/>
      <point x="138" y="1114" type="line" smooth="yes"/>
      <point x="138" y="1034"/>
      <point x="177" y="977"/>
      <point x="227" y="946" type="curve"/>
      <point x="227" y="923" type="line"/>
      <point x="357" y="927" type="line"/>
      <point x="342" y="958"/>
      <point x="328" y="997"/>
      <point x="328" y="1040" type="curve" smooth="yes"/>
      <point x="328" y="1044" type="line" smooth="yes"/>
      <point x="328" y="1133"/>
      <point x="378" y="1190"/>
      <point x="521" y="1190" type="curve" smooth="yes"/>
      <point x="601" y="1190"/>
      <point x="662" y="1175"/>
      <point x="725" y="1154" type="curve"/>
      <point x="706" y="1306" type="line"/>
      <point x="639" y="1333"/>
      <point x="558" y="1352"/>
    </contour>
    <contour>
      <point x="366" y="0" type="line"/>
      <point x="366" y="881" type="line"/>
      <point x="171" y="881" type="line"/>
      <point x="171" y="0" type="line"/>
    </contour>
    <contour>
      <point x="704" y="782" type="line"/>
      <point x="721" y="938" type="line"/>
      <point x="326" y="938" type="line"/>
      <point x="246" y="937" type="line"/>
      <point x="17" y="938" type="line"/>
      <point x="17" y="782" type="line"/>
    </contour>
    <contour>
      <point x="1074" y="0" type="line"/>
      <point x="1074" y="1324" type="line"/>
      <point x="878" y="1324" type="line"/>
      <point x="878" y="0" type="line"/>
    </contour>
  </outline>
</glyph>
<glyph name="BaBa.dv" format="2">
  <advance width="1982"/>
  <anchor x="1717" y="23" name="bottom"/>
  <anchor x="1710" y="23" name="bottom2"/>
  <anchor x="1811" y="23" name="bottom3"/>
  <anchor x="1716" y="42.5" name="bottom5"/>
  <anchor x="1716" y="1238" name="top"/>
  <outline>
    <contour>
      <point x="-26.5" y="1124" type="line"/>
      <point x="-38.5" y="1268.75" type="line"/>
      <point x="918.25" y="1268.75" type="line"/>
      <point x="930.25" y="1124" type="line"/>
    </contour>
    <contour>
      <point x="297" y="777.5" type="line"/>
      <point x="422" y="838.5" type="line"/>
      <point x="852.5" y="363.5" type="line"/>
      <point x="744.5" y="288.5" type="line"/>
    </contour>
    <contour>
      <point x="104.5" y="538.578" type="curve" smooth="yes"/>
      <point x="104.5" y="556.877" type="line" smooth="yes"/>
      <point x="104.5" y="806.342"/>
      <point x="254" y="944.5"/>
      <point x="535" y="944.5" type="curve" smooth="yes"/>
      <point x="618" y="944.5"/>
      <point x="691" y="937"/>
      <point x="758" y="918.5" type="curve"/>
      <point x="772" y="766.5" type="line"/>
      <point x="703.814" y="783.154"/>
      <point x="634.112" y="791.5"/>
      <point x="557.5" y="791.5" type="curve" smooth="yes"/>
      <point x="379.5" y="791.5"/>
      <point x="295" y="716.654"/>
      <point x="295" y="554.385" type="curve" smooth="yes"/>
      <point x="295" y="545.165" type="line" smooth="yes"/>
      <point x="295" y="382.174"/>
      <point x="388.183" y="307"/>
      <point x="568.462" y="307" type="curve" smooth="yes"/>
      <point x="743.128" y="307"/>
      <point x="836.076" y="376.337"/>
      <point x="865" y="486" type="curve"/>
      <point x="900" y="330.5" type="line"/>
      <point x="877" y="331.5" type="line"/>
      <point x="831.792" y="221.953"/>
      <point x="727.166" y="150.5"/>
      <point x="532.227" y="150.5" type="curve" smooth="yes"/>
      <point x="264.442" y="150.5"/>
      <point x="104.5" y="279.2"/>
    </contour>
    <contour>
      <point x="1811" y="1174.5" type="line"/>
      <point x="1811" y="0" type="line"/>
      <point x="1622" y="0" type="line"/>
      <point x="1622" y="1174.5" type="line"/>
    </contour>
    <contour>
      <point x="1528.75" y="1123.5" type="line"/>
      <point x="1516.75" y="1268.75" type="line"/>
      <point x="2011.75" y="1268.75" type="line"/>
      <point x="2023.75" y="1123.5" type="line"/>
    </contour>
    <contour>
      <point x="706" y="1124" type="line"/>
      <point x="694" y="1269" type="line"/>
      <point x="1813" y="1269" type="line"/>
      <point x="1825" y="1124" type="line"/>
    </contour>
    <contour>
      <point x="1030" y="777.5" type="line"/>
      <point x="1155" y="838.5" type="line"/>
      <point x="1585.5" y="363.5" type="line"/>
      <point x="1477.5" y="288.5" type="line"/>
    </contour>
    <contour>
      <point x="837.5" y="542.578" type="curve" smooth="yes"/>
      <point x="837.5" y="559.877" type="line" smooth="yes"/>
      <point x="837.5" y="808.342"/>
      <point x="987" y="944.5"/>
      <point x="1268" y="944.5" type="curve" smooth="yes"/>
      <point x="1351" y="944.5"/>
      <point x="1424" y="937"/>
      <point x="1491" y="918.5" type="curve"/>
      <point x="1505" y="766.5" type="line"/>
      <point x="1436.81" y="783.154"/>
      <point x="1367.11" y="791.5"/>
      <point x="1290.5" y="791.5" type="curve" smooth="yes"/>
      <point x="1112.5" y="791.5"/>
      <point x="1028" y="718.654"/>
      <point x="1028" y="556.385" type="curve" smooth="yes"/>
      <point x="1028" y="547.165" type="line" smooth="yes"/>
      <point x="1028" y="387.174"/>
      <point x="1122.69" y="307"/>
      <point x="1299.5" y="307" type="curve" smooth="yes"/>
      <point x="1491.4" y="307"/>
      <point x="1593.71" y="377.696"/>
      <point x="1628" y="500" type="curve"/>
      <point x="1636" y="331.5" type="line"/>
      <point x="1611" y="331.5" type="line"/>
      <point x="1569" y="224.076"/>
      <point x="1466" y="150.5"/>
      <point x="1268.22" y="150.5" type="curve" smooth="yes"/>
      <point x="995.161" y="150.5"/>
      <point x="837.5" y="285.2"/>
    </contour>
  </outline>
  <guideline angle="90" x="484" y="0"/>
  <guideline angle="90" x="1614" y="0"/>
  <guideline angle="0" x="0" y="9"/>
  <guideline angle="90" x="1619" y="0"/>
  <guideline angle="90" x="1602" y="0"/>
  <guideline angle="0" x="0" y="1262"/>
  <guideline angle="90" x="1716" y="0"/>
  <guideline angle="0" x="0" y="30"/>
</glyph>
<glyph name="BaBhaRa.dv" format="2">
  <advance width="1941"/>
  <anchor x="1676.25" y="5.75" name="bottom"/>
  <anchor x="1669" y="5.75" name="bottom2"/>
  <anchor x="1770" y="5.75" name="bottom3"/>
  <anchor x="1675" y="1238" name="top"/>
  <outline>
    <contour>
      <point x="-26.5" y="1124" type="line"/>
      <point x="-38.5" y="1268.75" type="line"/>
      <point x="738.25" y="1268.75" type="line"/>
      <point x="750.25" y="1124" type="line"/>
    </contour>
    <contour>
      <point x="297" y="777.5" type="line"/>
      <point x="422" y="838.5" type="line"/>
      <point x="852.5" y="363.5" type="line"/>
      <point x="744.5" y="288.5" type="line"/>
    </contour>
    <contour>
      <point x="104.5" y="538.578" type="curve" smooth="yes"/>
      <point x="104.5" y="556.877" type="line" smooth="yes"/>
      <point x="104.5" y="806.342"/>
      <point x="254" y="944.5"/>
      <point x="535" y="944.5" type="curve" smooth="yes"/>
      <point x="618" y="944.5"/>
      <point x="691" y="937"/>
      <point x="758" y="918.5" type="curve"/>
      <point x="772" y="766.5" type="line"/>
      <point x="703.814" y="783.154"/>
      <point x="634.112" y="791.5"/>
      <point x="557.5" y="791.5" type="curve" smooth="yes"/>
      <point x="379.5" y="791.5"/>
      <point x="295" y="716.654"/>
      <point x="295" y="554.385" type="curve" smooth="yes"/>
      <point x="295" y="545.165" type="line" smooth="yes"/>
      <point x="295" y="382.174"/>
      <point x="390.422" y="307"/>
      <point x="575.033" y="307" type="curve" smooth="yes"/>
      <point x="751.895" y="307"/>
      <point x="850.076" y="384.337"/>
      <point x="885" y="483" type="curve"/>
      <point x="921" y="339.5" type="line"/>
      <point x="897" y="339.5" type="line"/>
      <point x="851.792" y="223.953"/>
      <point x="747.302" y="150.5"/>
      <point x="542.97" y="150.5" type="curve" smooth="yes"/>
      <point x="267.827" y="150.5"/>
      <point x="104.5" y="279.2"/>
    </contour>
    <contour>
      <point x="1401.75" y="1123.5" type="line"/>
      <point x="1390" y="1268.75" type="line"/>
      <point x="1970.5" y="1268.75" type="line"/>
      <point x="1982.5" y="1123.5" type="line"/>
    </contour>
    <contour>
      <point x="1651.75" y="685.25" type="line"/>
      <point x="1651.75" y="528.5" type="line"/>
      <point x="996.75" y="528.5" type="line"/>
      <point x="996.75" y="685.25" type="line"/>
    </contour>
    <contour>
      <point x="957.75" y="-45.5" type="line"/>
      <point x="957.75" y="-16.5" type="line"/>
      <point x="1625.25" y="460.5" type="line"/>
      <point x="1625.25" y="296" type="line"/>
      <point x="1225.75" y="-46" type="line"/>
    </contour>
    <contour>
      <point x="1586" y="-17.25" type="line"/>
      <point x="1586" y="373.25" type="line"/>
      <point x="1580.25" y="394" type="line"/>
      <point x="1580.25" y="1177.5" type="line"/>
      <point x="1770" y="1177.5" type="line"/>
      <point x="1770" y="-17.25" type="line"/>
    </contour>
    <contour>
      <point x="945.5" y="236" type="line"/>
      <point x="893.75" y="364.5"/>
      <point x="861.25" y="475.75"/>
      <point x="844.75" y="623" type="curve"/>
      <point x="936.5" y="675.75" type="line"/>
      <point x="1122.75" y="675.75" type="line"/>
      <point x="1122.75" y="236" type="line"/>
    </contour>
    <contour>
      <point x="936" y="572.25" type="line"/>
      <point x="936" y="961.668" type="line" smooth="yes"/>
      <point x="936" y="1081.07"/>
      <point x="905.25" y="1123.5"/>
      <point x="799" y="1123.5" type="curve" smooth="yes"/>
      <point x="697.25" y="1123.5" type="line"/>
      <point x="685.25" y="1268.75" type="line"/>
      <point x="829" y="1268.75" type="line" smooth="yes"/>
      <point x="1049.5" y="1268.75"/>
      <point x="1124" y="1180.75"/>
      <point x="1124" y="966.25" type="curve" smooth="yes"/>
      <point x="1124" y="572.25" type="line"/>
    </contour>
  </outline>
  <guideline angle="90" x="1264.25" y="0"/>
</glyph>
<glyph name="BaDha.dv" format="2">
  <advance width="2105"/>
  <anchor x="1840.25" y="23" name="bottom"/>
  <anchor x="1833.25" y="23" name="bottom2"/>
  <anchor x="1934.25" y="23" name="bottom3"/>
  <anchor x="1839.25" y="42.5" name="bottom5"/>
  <anchor x="1839.25" y="1238" name="top"/>
  <outline>
    <contour>
      <point x="-26.5" y="1124" type="line"/>
      <point x="-38.5" y="1268.75" type="line"/>
      <point x="741.25" y="1268.75" type="line"/>
      <point x="753.25" y="1124" type="line"/>
    </contour>
    <contour>
      <point x="297" y="777.5" type="line"/>
      <point x="422" y="838.5" type="line"/>
      <point x="852.5" y="363.5" type="line"/>
      <point x="744.5" y="288.5" type="line"/>
    </contour>
    <contour>
      <point x="104.5" y="539.578" type="curve" smooth="yes"/>
      <point x="104.5" y="557.877" type="line" smooth="yes"/>
      <point x="104.5" y="806.342"/>
      <point x="254" y="944.5"/>
      <point x="535" y="944.5" type="curve" smooth="yes"/>
      <point x="598.883" y="944.5"/>
      <point x="658.843" y="940.057"/>
      <point x="710.702" y="926.575" type="curve"/>
      <point x="725.654" y="776.297" type="line"/>
      <point x="671.765" y="786.426"/>
      <point x="616.38" y="791.5"/>
      <point x="556.805" y="791.5" type="curve" smooth="yes"/>
      <point x="379.276" y="791.5"/>
      <point x="295" y="718.654"/>
      <point x="295" y="556.385" type="curve" smooth="yes"/>
      <point x="295" y="547.165" type="line" smooth="yes"/>
      <point x="295" y="385.174"/>
      <point x="386.797" y="307"/>
      <point x="568.313" y="307" type="curve" smooth="yes"/>
      <point x="744.241" y="307"/>
      <point x="847.058" y="378.442"/>
      <point x="876" y="486" type="curve"/>
      <point x="902" y="321.5" type="line"/>
      <point x="877" y="321.5" type="line"/>
      <point x="832.883" y="217.008"/>
      <point x="732.888" y="150.5"/>
      <point x="534.122" y="150.5" type="curve" smooth="yes"/>
      <point x="265.151" y="150.5"/>
      <point x="104.5" y="281.2"/>
    </contour>
    <contour>
      <point x="1934.25" y="1174.5" type="line"/>
      <point x="1934.25" y="0" type="line"/>
      <point x="1745.25" y="0" type="line"/>
      <point x="1745.25" y="1174.5" type="line"/>
    </contour>
    <contour>
      <point x="1652" y="1123.5" type="line"/>
      <point x="1640" y="1268.75" type="line"/>
      <point x="2135" y="1268.75" type="line"/>
      <point x="2147" y="1123.5" type="line"/>
    </contour>
    <contour>
      <point x="1631.25" y="1124" type="line"/>
      <point x="1619.25" y="1269" type="line"/>
      <point x="2033.75" y="1269" type="line"/>
      <point x="2045.75" y="1124" type="line"/>
    </contour>
    <contour>
      <point x="865.25" y="438.331" type="line" smooth="yes"/>
      <point x="865.25" y="568.117"/>
      <point x="927.885" y="650.239"/>
      <point x="1134.25" y="664" type="curve"/>
      <point x="1134.25" y="672" type="line"/>
      <point x="930.545" y="698.049"/>
      <point x="840.75" y="779.717"/>
      <point x="840.75" y="965" type="curve" smooth="yes"/>
      <point x="840.75" y="980" type="line" smooth="yes"/>
      <point x="840.75" y="1185.9"/>
      <point x="953.945" y="1294"/>
      <point x="1184.16" y="1294" type="curve" smooth="yes"/>
      <point x="1409.59" y="1294"/>
      <point x="1509.25" y="1197"/>
      <point x="1509.25" y="1016" type="curve" smooth="yes"/>
      <point x="1509.25" y="977.161"/>
      <point x="1504.75" y="932.849"/>
      <point x="1494.75" y="890.5" type="curve"/>
      <point x="1328.75" y="890.5" type="line"/>
      <point x="1328.75" y="976.28" type="line" smooth="yes"/>
      <point x="1328.75" y="1097.44"/>
      <point x="1282.01" y="1142"/>
      <point x="1183.05" y="1142" type="curve" smooth="yes"/>
      <point x="1079.07" y="1142"/>
      <point x="1027.75" y="1088.84"/>
      <point x="1027.75" y="968.345" type="curve" smooth="yes"/>
      <point x="1027.75" y="951.739" type="line" smooth="yes"/>
      <point x="1027.75" y="803.407"/>
      <point x="1101.85" y="750.554"/>
      <point x="1324.14" y="743.506" type="curve" smooth="yes"/>
      <point x="1466.25" y="739" type="line"/>
      <point x="1466.25" y="588" type="line"/>
      <point x="1320.39" y="585.103" type="line" smooth="yes"/>
      <point x="1115.63" y="581.035"/>
      <point x="1063.25" y="540.192"/>
      <point x="1063.25" y="456.65" type="curve" smooth="yes"/>
      <point x="1063.25" y="447.474" type="line" smooth="yes"/>
      <point x="1063.25" y="354.756"/>
      <point x="1148.75" y="305.5"/>
      <point x="1374.94" y="305.5" type="curve" smooth="yes"/>
      <point x="1577.17" y="305.5"/>
      <point x="1699.35" y="355.303"/>
      <point x="1749.75" y="491.5" type="curve"/>
      <point x="1755.75" y="325" type="line"/>
      <point x="1733.25" y="325" type="line"/>
      <point x="1688.35" y="208.763"/>
      <point x="1564.94" y="143"/>
      <point x="1337.58" y="143" type="curve" smooth="yes"/>
      <point x="1018.05" y="143"/>
      <point x="865.25" y="241.607"/>
      <point x="865.25" y="427.048" type="curve" smooth="yes"/>
    </contour>
  </outline>
  <guideline angle="90" x="280" y="0"/>
  <guideline angle="90" x="606.25" y="0"/>
  <guideline angle="90" x="1737.25" y="0"/>
  <guideline angle="0" x="0" y="9"/>
  <guideline angle="90" x="1742.25" y="0"/>
  <guideline angle="90" x="1725.25" y="0"/>
  <guideline angle="0" x="0" y="1262"/>
  <guideline angle="90" x="1839.25" y="0"/>
  <guideline angle="0" x="0" y="30"/>
</glyph>
<glyph name="BaHalant.dv" format="2">
  <advance width="742"/>
  <outline>
    <contour>
      <point x="-27" y="1124" type="line"/>
      <point x="-39" y="1269" type="line"/>
      <point x="916" y="1269" type="line"/>
      <point x="928" y="1124" type="line"/>
    </contour>
    <contour>
      <point x="297" y="777.5" type="line"/>
      <point x="422" y="838.5" type="line"/>
      <point x="852.5" y="363.5" type="line"/>
      <point x="744.5" y="288.5" type="line"/>
    </contour>
    <contour>
      <point x="104.5" y="539.578" type="curve" smooth="yes"/>
      <point x="104.5" y="559.877" type="line" smooth="yes"/>
      <point x="104.5" y="808.342"/>
      <point x="254" y="944.5"/>
      <point x="535" y="944.5" type="curve" smooth="yes"/>
      <point x="618" y="944.5"/>
      <point x="691" y="937"/>
      <point x="758" y="918.5" type="curve"/>
      <point x="772" y="766.5" type="line"/>
      <point x="703.814" y="783.154"/>
      <point x="634.112" y="791.5"/>
      <point x="557.5" y="791.5" type="curve" smooth="yes"/>
      <point x="379.5" y="791.5"/>
      <point x="295" y="718.654"/>
      <point x="295" y="556.385" type="curve" smooth="yes"/>
      <point x="295" y="547.165" type="line" smooth="yes"/>
      <point x="295" y="385.174"/>
      <point x="389.689" y="307"/>
      <point x="566.5" y="307" type="curve" smooth="yes"/>
      <point x="758.395" y="307"/>
      <point x="850.709" y="377.696"/>
      <point x="892.587" y="451.904" type="curve"/>
      <point x="888" y="331.5" type="line"/>
      <point x="846" y="224.076"/>
      <point x="733" y="150.5"/>
      <point x="535.217" y="150.5" type="curve" smooth="yes"/>
      <point x="264.161" y="150.5"/>
      <point x="104.5" y="283.2"/>
    </contour>
  </outline>
  <guideline angle="90" x="472" y="0"/>
</glyph>
<glyph name="BaJha.dv" format="2">
  <advance width="2333"/>
  <outline>
    <contour>
      <point x="2276.25" y="1123.5" type="line"/>
      <point x="908.75" y="1123.5" type="line"/>
      <point x="896.5" y="1268.75" type="line"/>
      <point x="2264.25" y="1268.75" type="line"/>
    </contour>
    <contour>
      <point x="1448" y="1166.25" type="line"/>
      <point x="1632.5" y="1166.25" type="line"/>
      <point x="1632.5" y="787.25" type="line"/>
      <point x="1448" y="832.5" type="line"/>
    </contour>
    <contour>
      <point x="2010.25" y="539.5" type="line"/>
      <point x="2010.25" y="385.25" type="line"/>
      <point x="1846.5" y="385.25" type="line" smooth="yes"/>
      <point x="1731.12" y="385.25"/>
      <point x="1659.43" y="410.803"/>
      <point x="1586.25" y="454.656" type="curve"/>
      <point x="1543.25" y="539.5" type="line"/>
    </contour>
    <contour>
      <point x="1520.5" y="-364.5" type="line"/>
      <point x="1298.5" y="-364.5" type="line"/>
      <point x="1006" y="11.8386" type="line"/>
      <point x="877" y="63" type="line"/>
      <point x="1173.5" y="20.5" type="line"/>
      <point x="1173.5" y="-17" type="line"/>
      <point x="1263.65" y="-74.6629"/>
      <point x="1325.55" y="-129.793"/>
      <point x="1393.38" y="-208.148" type="curve" smooth="yes"/>
      <point x="1520.5" y="-355" type="line"/>
    </contour>
    <contour>
      <point x="866.215" y="238.336" type="line"/>
      <point x="988.831" y="169.413"/>
      <point x="1119.11" y="130.5"/>
      <point x="1263.16" y="130.5" type="curve" smooth="yes"/>
      <point x="1451.07" y="130.5"/>
      <point x="1514" y="179.193"/>
      <point x="1514" y="278.985" type="curve" smooth="yes"/>
      <point x="1514" y="286.957" type="line" smooth="yes"/>
      <point x="1514" y="375.045"/>
      <point x="1464.72" y="428.5"/>
      <point x="1316.95" y="428.5" type="curve" smooth="yes"/>
      <point x="1211.42" y="428.5"/>
      <point x="1118.47" y="406.5"/>
      <point x="1031.14" y="369.5" type="curve"/>
      <point x="911.99" y="440.281"/>
      <point x="845" y="531.422"/>
      <point x="845" y="654.431" type="curve" smooth="yes"/>
      <point x="845" y="661.951" type="line" smooth="yes"/>
      <point x="845" y="841.108"/>
      <point x="960.383" y="956"/>
      <point x="1275.72" y="956" type="curve" smooth="yes"/>
      <point x="1398.41" y="956"/>
      <point x="1506" y="944"/>
      <point x="1633.5" y="921" type="curve"/>
      <point x="1633.5" y="778.5" type="line"/>
      <point x="1524.33" y="796"/>
      <point x="1426.5" y="803.5"/>
      <point x="1312.97" y="803.5" type="curve" smooth="yes"/>
      <point x="1105.31" y="803.5"/>
      <point x="1037" y="750.682"/>
      <point x="1037" y="654.165" type="curve" smooth="yes"/>
      <point x="1037" y="646.124" type="line" smooth="yes"/>
      <point x="1037" y="603.454"/>
      <point x="1053.19" y="567.641"/>
      <point x="1086.36" y="539.5" type="curve"/>
      <point x="1166.66" y="567.5"/>
      <point x="1252.04" y="583.5"/>
      <point x="1348.96" y="583.5" type="curve" smooth="yes"/>
      <point x="1609.17" y="583.5"/>
      <point x="1706" y="470.555"/>
      <point x="1706" y="286.957" type="curve" smooth="yes"/>
      <point x="1706" y="273.026" type="line" smooth="yes"/>
      <point x="1706" y="80.6248"/>
      <point x="1582.68" y="-27"/>
      <point x="1269.15" y="-27" type="curve" smooth="yes"/>
      <point x="1178.73" y="-27"/>
      <point x="1094.78" y="-1.488"/>
      <point x="1020.07" y="18.1991" type="curve"/>
      <point x="877" y="62.75" type="line"/>
    </contour>
    <contour>
      <point x="-26.5" y="1124" type="line"/>
      <point x="-38.5" y="1268.75" type="line"/>
      <point x="968.25" y="1268.75" type="line"/>
      <point x="980.25" y="1124" type="line"/>
    </contour>
    <contour>
      <point x="317" y="749.5" type="line"/>
      <point x="431" y="826.5" type="line"/>
      <point x="819.574" y="373.48" type="line"/>
      <point x="717.5" y="280.5" type="line"/>
    </contour>
    <contour>
      <point x="104.5" y="569.422" type="line" smooth="yes"/>
      <point x="104.5" y="816.8"/>
      <point x="265.293" y="964.5"/>
      <point x="546.505" y="964.5" type="curve" smooth="yes"/>
      <point x="752.472" y="964.5"/>
      <point x="857.171" y="902.924"/>
      <point x="925" y="790.5" type="curve"/>
      <point x="856.262" y="688.759" type="line"/>
      <point x="798.421" y="766.651"/>
      <point x="711.038" y="810"/>
      <point x="567.293" y="810" type="curve" smooth="yes"/>
      <point x="389.912" y="810"/>
      <point x="295" y="729.826"/>
      <point x="295" y="569.835" type="curve" smooth="yes"/>
      <point x="295" y="560.615" type="line" smooth="yes"/>
      <point x="295" y="413.346"/>
      <point x="397.5" y="328.5"/>
      <point x="578.5" y="328.5" type="curve" smooth="yes"/>
      <point x="674.112" y="328.5"/>
      <point x="747.9" y="345.1"/>
      <point x="819.574" y="373.48" type="curve"/>
      <point x="795.835" y="215.336" type="line"/>
      <point x="729.149" y="184.174"/>
      <point x="650" y="171.5"/>
      <point x="556" y="171.5" type="curve" smooth="yes"/>
      <point x="267" y="171.5"/>
      <point x="104.5" y="310.658"/>
      <point x="104.5" y="557.123" type="curve" smooth="yes"/>
    </contour>
    <contour>
      <point x="2162.88" y="0" type="line"/>
      <point x="1973.12" y="0" type="line"/>
      <point x="1973.12" y="1174.5" type="line"/>
      <point x="2162.88" y="1174.5" type="line"/>
    </contour>
    <contour>
      <point x="2374.62" y="1123.5" type="line"/>
      <point x="1773.38" y="1123.5" type="line"/>
      <point x="1758.38" y="1268.75" type="line"/>
      <point x="2362.62" y="1268.75" type="line"/>
    </contour>
  </outline>
</glyph>
<glyph name="BaLaYa.dv" format="2">
  <advance width="3010"/>
  <anchor x="2744.25" y="23" name="bottom"/>
  <anchor x="2738.25" y="23" name="bottom2"/>
  <anchor x="2839.25" y="23" name="bottom3"/>
  <anchor x="2744.25" y="42.5" name="bottom5"/>
  <anchor x="2744.25" y="1238" name="top"/>
  <outline>
    <contour>
      <point x="-26.5" y="1124" type="line"/>
      <point x="-38.5" y="1268.75" type="line"/>
      <point x="918.25" y="1268.75" type="line"/>
      <point x="930.25" y="1124" type="line"/>
    </contour>
    <contour>
      <point x="297" y="777.5" type="line"/>
      <point x="422" y="838.5" type="line"/>
      <point x="852.5" y="363.5" type="line"/>
      <point x="744.5" y="288.5" type="line"/>
    </contour>
    <contour>
      <point x="104.5" y="539.578" type="curve" smooth="yes"/>
      <point x="104.5" y="557.877" type="line" smooth="yes"/>
      <point x="104.5" y="806.342"/>
      <point x="254" y="944.5"/>
      <point x="535" y="944.5" type="curve" smooth="yes"/>
      <point x="618" y="944.5"/>
      <point x="691" y="937"/>
      <point x="758" y="918.5" type="curve"/>
      <point x="772" y="766.5" type="line"/>
      <point x="703.814" y="783.154"/>
      <point x="634.112" y="791.5"/>
      <point x="557.5" y="791.5" type="curve" smooth="yes"/>
      <point x="379.5" y="791.5"/>
      <point x="295" y="718.654"/>
      <point x="295" y="556.385" type="curve" smooth="yes"/>
      <point x="295" y="547.165" type="line" smooth="yes"/>
      <point x="295" y="385.174"/>
      <point x="385.839" y="307"/>
      <point x="565.462" y="307" type="curve" smooth="yes"/>
      <point x="739.555" y="307"/>
      <point x="841.3" y="391.206"/>
      <point x="869" y="488" type="curve"/>
      <point x="888" y="328.5" type="line"/>
      <point x="864" y="328.5" type="line"/>
      <point x="824" y="228.076"/>
      <point x="721.83" y="150.5"/>
      <point x="526.562" y="150.5" type="curve" smooth="yes"/>
      <point x="262.324" y="150.5"/>
      <point x="104.5" y="281.2"/>
    </contour>
    <contour>
      <point x="2839.75" y="1174.5" type="line"/>
      <point x="2839.75" y="0" type="line"/>
      <point x="2650.5" y="0" type="line"/>
      <point x="2650.5" y="1174.5" type="line"/>
    </contour>
    <contour>
      <point x="2557" y="1123.5" type="line"/>
      <point x="2545" y="1268.75" type="line"/>
      <point x="3040" y="1268.75" type="line"/>
      <point x="3052" y="1123.5" type="line"/>
    </contour>
    <contour>
      <point x="1607.5" y="1268.75" type="line"/>
      <point x="2948" y="1268.75" type="line"/>
      <point x="2960" y="1123.5" type="line"/>
      <point x="1619.5" y="1123.5" type="line"/>
    </contour>
    <contour>
      <point x="2258.75" y="1154.5" type="line"/>
      <point x="2319" y="1105.69"/>
      <point x="2344.25" y="1028.51"/>
      <point x="2344.25" y="927.259" type="curve" smooth="yes"/>
      <point x="2344.25" y="914.449" type="line" smooth="yes"/>
      <point x="2344.25" y="715.392"/>
      <point x="2234.72" y="618.082"/>
      <point x="1992.38" y="613.682" type="curve" smooth="yes"/>
      <point x="1913.5" y="612.25" type="line"/>
      <point x="1853.5" y="756" type="line"/>
      <point x="1903.33" y="756" type="line" smooth="yes"/>
      <point x="2084.13" y="756"/>
      <point x="2149" y="812.597"/>
      <point x="2149" y="932.883" type="curve" smooth="yes"/>
      <point x="2149" y="943.471" type="line" smooth="yes"/>
      <point x="2149" y="1042.69"/>
      <point x="2119.75" y="1110.64"/>
      <point x="2053.75" y="1154.5" type="curve"/>
    </contour>
    <contour>
      <point x="1845" y="606.547" type="line" smooth="yes"/>
      <point x="1845" y="655.525"/>
      <point x="1848.25" y="700.011"/>
      <point x="1853.5" y="756" type="curve"/>
      <point x="2031" y="711" type="line"/>
      <point x="2031" y="601.207" type="line" smooth="yes"/>
      <point x="2031" y="450.526"/>
      <point x="2124.36" y="348.75"/>
      <point x="2323.07" y="348.75" type="curve" smooth="yes"/>
      <point x="2516.18" y="348.75"/>
      <point x="2622.39" y="418.25"/>
      <point x="2654.75" y="543.5" type="curve"/>
      <point x="2658" y="374.25" type="line"/>
      <point x="2638" y="374.25" type="line"/>
      <point x="2594.58" y="257.115"/>
      <point x="2493.04" y="186.25"/>
      <point x="2285.56" y="186.25" type="curve" smooth="yes"/>
      <point x="2009.4" y="186.25"/>
      <point x="1845" y="336.499"/>
      <point x="1845" y="598.143" type="curve" smooth="yes"/>
    </contour>
    <contour>
      <point x="1706" y="728.75" type="curve" smooth="yes"/>
      <point x="1614.26" y="728.75"/>
      <point x="1565.93" y="672.569"/>
      <point x="1562.61" y="538.511" type="curve" smooth="yes"/>
      <point x="1556.25" y="281" type="line"/>
      <point x="1466.75" y="281" type="line"/>
      <point x="1466.75" y="709.717" type="line"/>
      <point x="1493.31" y="819.466"/>
      <point x="1572.44" y="889"/>
      <point x="1703.97" y="889" type="curve" smooth="yes"/>
      <point x="1861.69" y="889"/>
      <point x="1941.76" y="803.438"/>
      <point x="1963" y="650.612" type="curve"/>
      <point x="1850.5" y="573.25" type="line"/>
      <point x="1838.24" y="680.561"/>
      <point x="1793.25" y="728.75"/>
    </contour>
    <contour>
      <point x="709.75" y="1124" type="line"/>
      <point x="697.75" y="1268.75" type="line"/>
      <point x="1719" y="1268.75" type="line"/>
      <point x="1731" y="1124" type="line"/>
    </contour>
    <contour>
      <point x="1483.5" y="281" type="line"/>
      <point x="1379.5" y="281" type="line"/>
      <point x="1373.53" y="537.107" type="line" smooth="yes"/>
      <point x="1370.43" y="670.096"/>
      <point x="1321.81" y="731.5"/>
      <point x="1217.31" y="731.5" type="curve" smooth="yes"/>
      <point x="1105.7" y="731.5"/>
      <point x="1045.75" y="656.326"/>
      <point x="1045.75" y="517.5" type="curve" smooth="yes"/>
      <point x="1045.75" y="336.693"/>
      <point x="1116.75" y="186.894"/>
      <point x="1283.25" y="2.8804" type="curve"/>
      <point x="1283.25" y="0" type="line"/>
      <point x="1059.21" y="0" type="line"/>
      <point x="910.471" y="168.392"/>
      <point x="845.75" y="340.687"/>
      <point x="845.75" y="526" type="curve" smooth="yes"/>
      <point x="845.75" y="760.344"/>
      <point x="976.488" y="891.5"/>
      <point x="1198.88" y="891.5" type="curve" smooth="yes"/>
      <point x="1353.88" y="891.5"/>
      <point x="1435.78" y="826.681"/>
      <point x="1461.5" y="718.75" type="curve"/>
      <point x="1483.5" y="718.75" type="line"/>
    </contour>
  </outline>
  <guideline angle="90" x="252" y="0"/>
  <guideline angle="0" x="0" y="882"/>
  <guideline angle="90" x="2642.25" y="0"/>
  <guideline angle="0" x="0" y="9"/>
  <guideline angle="90" x="2647.25" y="0"/>
  <guideline angle="90" x="2630.25" y="0"/>
  <guideline angle="0" x="0" y="1262"/>
  <guideline angle="90" x="2744.25" y="0"/>
  <guideline angle="0" x="0" y="30"/>
</glyph>
<glyph name="BaSaTta.dv" format="2">
  <advance width="2659"/>
  <anchor x="2220" y="9" name="bottom"/>
  <anchor x="2130.5" y="9" name="bottom2"/>
  <anchor x="2592.25" y="9" name="bottom3"/>
  <anchor x="2192" y="-42.5" name="bottom4"/>
  <anchor x="2182.25" y="28.25" name="bottom5"/>
  <anchor x="2414.5" y="1238" name="top"/>
  <outline>
    <contour>
      <point x="2224" y="1124" type="line"/>
      <point x="2212" y="1268.75" type="line"/>
      <point x="2683" y="1268.75" type="line"/>
      <point x="2695" y="1124" type="line"/>
    </contour>
    <contour>
      <point x="2508.25" y="1174.75" type="line"/>
      <point x="2508.25" y="950.5" type="line"/>
      <point x="2326" y="951.5" type="line"/>
      <point x="2326" y="1174.75" type="line"/>
    </contour>
    <contour>
      <point x="1587" y="1124" type="line"/>
      <point x="1575" y="1269" type="line"/>
      <point x="2704" y="1269" type="line"/>
      <point x="2715.5" y="1124" type="line"/>
    </contour>
    <contour>
      <point x="2324" y="770.5" type="line"/>
      <point x="2324" y="1178" type="line"/>
      <point x="2508.5" y="1178" type="line"/>
      <point x="2508.5" y="715.5" type="line"/>
    </contour>
    <contour>
      <point x="2545.5" y="66.0263" type="line"/>
      <point x="2463.25" y="15.9738"/>
      <point x="2349.43" y="-14.0003"/>
      <point x="2206" y="-14.0003" type="curve" smooth="yes"/>
      <point x="1888.65" y="-14.0003"/>
      <point x="1717" y="125.5"/>
      <point x="1717" y="424.5" type="curve" smooth="yes"/>
      <point x="1717" y="456.5" type="line" smooth="yes"/>
      <point x="1717" y="750"/>
      <point x="1869.66" y="886.5"/>
      <point x="2193.5" y="886.5" type="curve" smooth="yes"/>
      <point x="2294.42" y="886.5"/>
      <point x="2389.73" y="879"/>
      <point x="2508.5" y="858.5" type="curve"/>
      <point x="2508.5" y="710.5" type="line"/>
      <point x="2404.36" y="727.293"/>
      <point x="2319.16" y="733"/>
      <point x="2225" y="733" type="curve" smooth="yes"/>
      <point x="2008.29" y="733"/>
      <point x="1913" y="645.736"/>
      <point x="1913" y="452.72" type="curve" smooth="yes"/>
      <point x="1913" y="431.236" type="line" smooth="yes"/>
      <point x="1913" y="234.231"/>
      <point x="2012" y="152"/>
      <point x="2222.5" y="152" type="curve" smooth="yes"/>
      <point x="2340.5" y="152"/>
      <point x="2460" y="186.5"/>
      <point x="2557" y="244" type="curve"/>
    </contour>
    <contour>
      <point x="-27" y="1124" type="line"/>
      <point x="-38.75" y="1268.75" type="line"/>
      <point x="1659.75" y="1268.75" type="line"/>
      <point x="1671.5" y="1124" type="line"/>
    </contour>
    <contour>
      <point x="296.75" y="807.5" type="line"/>
      <point x="421.75" y="868.5" type="line"/>
      <point x="852.25" y="393.5" type="line"/>
      <point x="744.25" y="318.5" type="line"/>
    </contour>
    <contour>
      <point x="1314.75" y="654" type="line"/>
      <point x="1789.25" y="654" type="line"/>
      <point x="1789.25" y="498.5" type="line"/>
      <point x="1349.75" y="498.5" type="line"/>
    </contour>
    <contour>
      <point x="1478.75" y="-0.0003" type="line"/>
      <point x="1260.25" y="-0.0003" type="line"/>
      <point x="972.49" y="480" type="line"/>
      <point x="856.25" y="485.5" type="line"/>
      <point x="856.25" y="648" type="line"/>
      <point x="1108.25" y="608.5" type="line"/>
      <point x="1108.25" y="532.5" type="line"/>
      <point x="1191.66" y="452.5"/>
      <point x="1230.14" y="397.551"/>
      <point x="1308.25" y="275" type="curve" smooth="yes"/>
      <point x="1478.75" y="7.4997" type="line"/>
    </contour>
    <contour>
      <point x="1311.75" y="1159.5" type="line"/>
      <point x="1394.42" y="1100.62"/>
      <point x="1432.75" y="1003.61"/>
      <point x="1432.75" y="873.779" type="curve" smooth="yes"/>
      <point x="1432.75" y="861.5" type="line" smooth="yes"/>
      <point x="1432.75" y="626.482"/>
      <point x="1315.85" y="510.487"/>
      <point x="1038.73" y="501.171" type="curve" smooth="yes"/>
      <point x="959.25" y="498.5" type="line"/>
      <point x="856.25" y="648" type="line"/>
      <point x="952.227" y="648" type="line" smooth="yes"/>
      <point x="1162.84" y="648"/>
      <point x="1237.25" y="708"/>
      <point x="1237.25" y="879.5" type="curve" smooth="yes"/>
      <point x="1237.25" y="889" type="line" smooth="yes"/>
      <point x="1237.25" y="1013.02"/>
      <point x="1195.38" y="1103.35"/>
      <point x="1104.25" y="1159.5" type="curve"/>
    </contour>
    <contour>
      <point x="104.25" y="570.578" type="curve" smooth="yes"/>
      <point x="104.25" y="588.877" type="line" smooth="yes"/>
      <point x="104.25" y="835.342"/>
      <point x="253.75" y="974.5"/>
      <point x="536.75" y="974.5" type="curve" smooth="yes"/>
      <point x="610.828" y="974.5"/>
      <point x="676.572" y="967"/>
      <point x="728.495" y="951.801" type="curve"/>
      <point x="745.076" y="802.36" type="line"/>
      <point x="688.015" y="815.111"/>
      <point x="624.277" y="821.5"/>
      <point x="557.25" y="821.5" type="curve" smooth="yes"/>
      <point x="379.25" y="821.5"/>
      <point x="294.75" y="748.654"/>
      <point x="294.75" y="588.385" type="curve" smooth="yes"/>
      <point x="294.75" y="579.165" type="line" smooth="yes"/>
      <point x="294.75" y="415.174"/>
      <point x="385.589" y="337"/>
      <point x="567.212" y="337" type="curve" smooth="yes"/>
      <point x="741.212" y="337"/>
      <point x="845.054" y="436.212"/>
      <point x="858.462" y="557.25" type="curve"/>
      <point x="976.727" y="508.236" type="line"/>
      <point x="936.684" y="298.261"/>
      <point x="810.393" y="180.5"/>
      <point x="544.512" y="180.5" type="curve" smooth="yes"/>
      <point x="261.481" y="180.5"/>
      <point x="104.25" y="312.2"/>
    </contour>
  </outline>
  <guideline angle="0" x="0" y="-46"/>
  <guideline angle="0" x="0" y="-27"/>
  <guideline angle="90" x="2317.5" y="0"/>
</glyph>
<glyph name="BhaHalant.dv" format="2">
  <advance width="680"/>
  <outline>
    <contour>
      <point x="700.5" y="1123.5" type="line"/>
      <point x="688.5" y="1268.75" type="line"/>
      <point x="934.25" y="1268.75" type="line"/>
      <point x="946.25" y="1123.5" type="line"/>
    </contour>
    <contour>
      <point x="267.25" y="496.5" type="line"/>
      <point x="267.25" y="652.25" type="line"/>
      <point x="875.5" y="652.25" type="line"/>
      <point x="875.5" y="496.5" type="line"/>
    </contour>
    <contour>
      <point x="220.75" y="167.5" type="line"/>
      <point x="168.5" y="302.5"/>
      <point x="132.75" y="421.25"/>
      <point x="117.25" y="585.5" type="curve"/>
      <point x="209.75" y="640.5" type="line"/>
      <point x="397.75" y="640.5" type="line"/>
      <point x="397.75" y="167.5" type="line"/>
    </contour>
    <contour>
      <point x="209.75" y="528" type="line"/>
      <point x="209.75" y="963.33" type="line" smooth="yes"/>
      <point x="209.75" y="1085.57"/>
      <point x="180.25" y="1123.5"/>
      <point x="72" y="1123.5" type="curve" smooth="yes"/>
      <point x="-29" y="1123.5" type="line"/>
      <point x="-41" y="1268.75" type="line"/>
      <point x="101.75" y="1268.75" type="line" smooth="yes"/>
      <point x="321.5" y="1268.75"/>
      <point x="397.75" y="1182.33"/>
      <point x="397.75" y="968.261" type="curve" smooth="yes"/>
      <point x="397.75" y="528" type="line"/>
    </contour>
  </outline>
</glyph>
<glyph name="BhaLa.MAR.dv" format="2">
  <advance width="2116"/>
  <anchor x="1718.25" y="28" name="bottom"/>
  <anchor x="1685.25" y="23" name="bottom2"/>
  <anchor x="1804" y="23" name="bottom3"/>
  <anchor x="1402" y="42.5" name="bottom5"/>
  <anchor x="1689.75" y="1238" name="top"/>
  <outline>
    <contour>
      <point x="831.5" y="1124.5" type="line"/>
      <point x="819.5" y="1268.75" type="line"/>
      <point x="2145.25" y="1268.75" type="line"/>
      <point x="2157.25" y="1124" type="line"/>
    </contour>
    <contour>
      <point x="1784" y="1152.5" type="line"/>
      <point x="1784" y="856.25" type="line"/>
      <point x="1599.25" y="856.5" type="line"/>
      <point x="1599.25" y="1152.5" type="line"/>
    </contour>
    <contour>
      <point x="1119.38" y="889.75" type="curve" smooth="yes"/>
      <point x="1281.02" y="889.75"/>
      <point x="1358.61" y="821.144"/>
      <point x="1386.5" y="707" type="curve"/>
      <point x="1394.5" y="707" type="line"/>
      <point x="1423.07" y="821.821"/>
      <point x="1510.49" y="890.75"/>
      <point x="1670.05" y="890.75" type="curve" smooth="yes"/>
      <point x="1889.61" y="890.75"/>
      <point x="2010" y="776.074"/>
      <point x="2010" y="495.059" type="curve" smooth="yes"/>
      <point x="2010" y="457.185" type="line" smooth="yes"/>
      <point x="2010" y="241.467"/>
      <point x="1955.67" y="113.545"/>
      <point x="1825.02" y="0" type="curve"/>
      <point x="1586.25" y="0" type="line"/>
      <point x="1586.25" y="4.20295" type="line"/>
      <point x="1734.64" y="131.505"/>
      <point x="1812.62" y="250.437"/>
      <point x="1812.62" y="456.192" type="curve" smooth="yes"/>
      <point x="1812.62" y="486.384" type="line" smooth="yes"/>
      <point x="1812.62" y="663.229"/>
      <point x="1759.56" y="730.5"/>
      <point x="1645.81" y="730.5" type="curve" smooth="yes"/>
      <point x="1547.25" y="730.5"/>
      <point x="1493.05" y="671.38"/>
      <point x="1489.21" y="538.188" type="curve" smooth="yes"/>
      <point x="1481.75" y="280" type="line"/>
      <point x="1297.75" y="280" type="line"/>
      <point x="1291.73" y="538.321" type="line" smooth="yes"/>
      <point x="1288.63" y="670.923"/>
      <point x="1247.39" y="729.5"/>
      <point x="1142.31" y="729.5" type="curve" smooth="yes"/>
      <point x="1027.75" y="729.5"/>
      <point x="966.5" y="667.238"/>
      <point x="966.5" y="483.5" type="curve" smooth="yes"/>
      <point x="966.5" y="455.25" type="line" smooth="yes"/>
      <point x="966.5" y="245.914"/>
      <point x="1048.4" y="133.229"/>
      <point x="1193.75" y="4.19424" type="curve"/>
      <point x="1193.75" y="0" type="line"/>
      <point x="956.979" y="0" type="line"/>
      <point x="827.304" y="115.196"/>
      <point x="770.25" y="243.47"/>
      <point x="770.25" y="455.5" type="curve" smooth="yes"/>
      <point x="770.25" y="494.75" type="line" smooth="yes"/>
      <point x="770.25" y="769.468"/>
      <point x="898.308" y="889.75"/>
    </contour>
    <contour>
      <point x="700.5" y="1123.5" type="line"/>
      <point x="688.5" y="1268.75" type="line"/>
      <point x="934.25" y="1268.75" type="line"/>
      <point x="946.25" y="1123.5" type="line"/>
    </contour>
    <contour>
      <point x="267.25" y="496.5" type="line"/>
      <point x="267.25" y="652.25" type="line"/>
      <point x="875.5" y="652.25" type="line"/>
      <point x="875.5" y="496.5" type="line"/>
    </contour>
    <contour>
      <point x="220.75" y="167.5" type="line"/>
      <point x="168.5" y="302.5"/>
      <point x="132.75" y="421.25"/>
      <point x="117.25" y="585.5" type="curve"/>
      <point x="209.75" y="640.5" type="line"/>
      <point x="397.75" y="640.5" type="line"/>
      <point x="397.75" y="167.5" type="line"/>
    </contour>
    <contour>
      <point x="209.75" y="528" type="line"/>
      <point x="209.75" y="963.33" type="line" smooth="yes"/>
      <point x="209.75" y="1085.57"/>
      <point x="180.25" y="1123.5"/>
      <point x="72" y="1123.5" type="curve" smooth="yes"/>
      <point x="-29" y="1123.5" type="line"/>
      <point x="-41" y="1268.75" type="line"/>
      <point x="101.75" y="1268.75" type="line" smooth="yes"/>
      <point x="321.5" y="1268.75"/>
      <point x="397.75" y="1182.33"/>
      <point x="397.75" y="968.261" type="curve" smooth="yes"/>
      <point x="397.75" y="528" type="line"/>
    </contour>
    <contour>
      <point x="1499.25" y="1124" type="line"/>
      <point x="1487.25" y="1268.75" type="line"/>
      <point x="1958.25" y="1268.75" type="line"/>
      <point x="1970.25" y="1124" type="line"/>
    </contour>
    <contour>
      <point x="1783.5" y="1174.75" type="line"/>
      <point x="1783.5" y="950.5" type="line"/>
      <point x="1601.25" y="951.5" type="line"/>
      <point x="1601.25" y="1174.75" type="line"/>
    </contour>
  </outline>
  <guideline angle="0" x="0" y="518"/>
  <guideline angle="90" x="816" y="0"/>
  <guideline angle="0" x="0" y="9"/>
  <guideline angle="90" x="1107" y="0"/>
  <guideline angle="90" x="1592.75" y="0"/>
</glyph>
<glyph name="BhaRaYa.dv" format="2">
  <advance width="1939"/>
  <anchor x="1673.75" y="23" name="bottom"/>
  <anchor x="1666.75" y="23" name="bottom2"/>
  <anchor x="1767.75" y="23" name="bottom3"/>
  <anchor x="1672.75" y="42.5" name="bottom5"/>
  <anchor x="1672.75" y="1238" name="top"/>
  <outline>
    <contour>
      <point x="845.25" y="685.25" type="line"/>
      <point x="845.25" y="531.25" type="line"/>
      <point x="270.5" y="531.25" type="line"/>
      <point x="270.5" y="685.25" type="line"/>
    </contour>
    <contour>
      <point x="309.5" y="-45.5" type="line"/>
      <point x="309.5" y="-21.75" type="line"/>
      <point x="912.257" y="426.125" type="line"/>
      <point x="992.432" y="312.642" type="line"/>
      <point x="589.84" y="-45.5" type="line"/>
    </contour>
    <contour>
      <point x="219.25" y="236" type="line"/>
      <point x="167.5" y="364.5"/>
      <point x="135" y="475.75"/>
      <point x="118.5" y="623" type="curve"/>
      <point x="210.25" y="675.75" type="line"/>
      <point x="396.5" y="675.75" type="line"/>
      <point x="396.5" y="236" type="line"/>
    </contour>
    <contour>
      <point x="209.75" y="572.25" type="line"/>
      <point x="209.75" y="961.668" type="line" smooth="yes"/>
      <point x="209.75" y="1081.07"/>
      <point x="178.75" y="1123.5"/>
      <point x="72" y="1123.5" type="curve" smooth="yes"/>
      <point x="-28.75" y="1123.5" type="line"/>
      <point x="-41" y="1268.75" type="line"/>
      <point x="101.75" y="1268.75" type="line" smooth="yes"/>
      <point x="323" y="1268.75"/>
      <point x="397.75" y="1180.75"/>
      <point x="397.75" y="966.25" type="curve" smooth="yes"/>
      <point x="397.75" y="572.25" type="line"/>
    </contour>
    <contour>
      <point x="1767.75" y="1174.5" type="line"/>
      <point x="1767.75" y="0" type="line"/>
      <point x="1578.75" y="0" type="line"/>
      <point x="1578.75" y="1174.5" type="line"/>
    </contour>
    <contour>
      <point x="1485.5" y="1123.5" type="line"/>
      <point x="1473.5" y="1268.75" type="line"/>
      <point x="1968.5" y="1268.75" type="line"/>
      <point x="1980.5" y="1123.5" type="line"/>
    </contour>
    <contour>
      <point x="636.5" y="1268.75" type="line"/>
      <point x="1877" y="1268.75" type="line"/>
      <point x="1889" y="1123.5" type="line"/>
      <point x="648.5" y="1123.5" type="line"/>
    </contour>
    <contour>
      <point x="1187.75" y="1154.5" type="line"/>
      <point x="1248" y="1105.69"/>
      <point x="1273.25" y="1028.51"/>
      <point x="1273.25" y="927.259" type="curve" smooth="yes"/>
      <point x="1273.25" y="914.449" type="line" smooth="yes"/>
      <point x="1273.25" y="715.392"/>
      <point x="1163.72" y="618.082"/>
      <point x="921.384" y="613.682" type="curve" smooth="yes"/>
      <point x="842.5" y="612.25" type="line"/>
      <point x="782.5" y="756" type="line"/>
      <point x="832.326" y="756" type="line" smooth="yes"/>
      <point x="1013.13" y="756"/>
      <point x="1076" y="812.597"/>
      <point x="1076" y="932.883" type="curve" smooth="yes"/>
      <point x="1076" y="943.471" type="line" smooth="yes"/>
      <point x="1076" y="1042.69"/>
      <point x="1046.75" y="1110.64"/>
      <point x="980.75" y="1154.5" type="curve"/>
    </contour>
    <contour>
      <point x="774" y="606.547" type="line" smooth="yes"/>
      <point x="774" y="655.525"/>
      <point x="777.25" y="700.011"/>
      <point x="782.5" y="756" type="curve"/>
      <point x="960" y="711" type="line"/>
      <point x="960" y="601.207" type="line" smooth="yes"/>
      <point x="960" y="450.526"/>
      <point x="1053.36" y="348.75"/>
      <point x="1252.07" y="348.75" type="curve" smooth="yes"/>
      <point x="1445.18" y="348.75"/>
      <point x="1551.39" y="418.25"/>
      <point x="1583.75" y="543.5" type="curve"/>
      <point x="1587" y="374.25" type="line"/>
      <point x="1567" y="374.25" type="line"/>
      <point x="1523.58" y="257.115"/>
      <point x="1422.04" y="186.25"/>
      <point x="1214.56" y="186.25" type="curve" smooth="yes"/>
      <point x="938.402" y="186.25"/>
      <point x="774" y="336.499"/>
      <point x="774" y="598.143" type="curve" smooth="yes"/>
    </contour>
  </outline>
  <guideline angle="90" x="774.25" y="0"/>
  <guideline angle="90" x="1570.75" y="0"/>
  <guideline angle="0" x="0" y="9"/>
  <guideline angle="90" x="1575.75" y="0"/>
  <guideline angle="90" x="1558.75" y="0"/>
  <guideline angle="0" x="0" y="1262"/>
  <guideline angle="90" x="1672.75" y="0"/>
  <guideline angle="0" x="0" y="30"/>
</glyph>
<glyph name="BhaVa.dv" format="2">
  <advance width="1877"/>
  <anchor x="1612" y="23" name="bottom"/>
  <anchor x="1605" y="23" name="bottom2"/>
  <anchor x="1706" y="23" name="bottom3"/>
  <anchor x="1611" y="42.5" name="bottom5"/>
  <anchor x="1611" y="1238" name="top"/>
  <outline>
    <contour>
      <point x="845" y="1124" type="line"/>
      <point x="833" y="1269" type="line"/>
      <point x="1805" y="1269" type="line"/>
      <point x="1817.5" y="1124" type="line"/>
    </contour>
    <contour>
      <point x="778" y="542.746" type="curve" smooth="yes"/>
      <point x="778" y="562.661" type="line" smooth="yes"/>
      <point x="778" y="811.354"/>
      <point x="920.392" y="937"/>
      <point x="1188.5" y="937" type="curve" smooth="yes"/>
      <point x="1260.52" y="937"/>
      <point x="1327.67" y="928"/>
      <point x="1383.5" y="911.5" type="curve"/>
      <point x="1398" y="757" type="line"/>
      <point x="1343.24" y="771.5"/>
      <point x="1283.96" y="779"/>
      <point x="1216.16" y="779" type="curve" smooth="yes"/>
      <point x="1054.89" y="779"/>
      <point x="974" y="707.911"/>
      <point x="974" y="560.123" type="curve" smooth="yes"/>
      <point x="974" y="549.758" type="line" smooth="yes"/>
      <point x="974" y="396.395"/>
      <point x="1055.53" y="328"/>
      <point x="1221.42" y="328" type="curve" smooth="yes"/>
      <point x="1386.35" y="328"/>
      <point x="1491.29" y="386.221"/>
      <point x="1520" y="506.5" type="curve"/>
      <point x="1528.5" y="334.5" type="line"/>
      <point x="1506" y="334.5" type="line"/>
      <point x="1463.46" y="226.57"/>
      <point x="1366.59" y="164.5"/>
      <point x="1180.5" y="164.5" type="curve" smooth="yes"/>
      <point x="928.158" y="164.5"/>
      <point x="778" y="287.845"/>
    </contour>
    <contour>
      <point x="700.5" y="1123.5" type="line"/>
      <point x="688.5" y="1268.75" type="line"/>
      <point x="934.25" y="1268.75" type="line"/>
      <point x="946.25" y="1123.5" type="line"/>
    </contour>
    <contour>
      <point x="267.25" y="496.5" type="line"/>
      <point x="267.25" y="652.25" type="line"/>
      <point x="875.5" y="652.25" type="line"/>
      <point x="875.5" y="496.5" type="line"/>
    </contour>
    <contour>
      <point x="220.75" y="167.5" type="line"/>
      <point x="168.5" y="302.5"/>
      <point x="132.75" y="421.25"/>
      <point x="117.25" y="585.5" type="curve"/>
      <point x="209.75" y="640.5" type="line"/>
      <point x="397.75" y="640.5" type="line"/>
      <point x="397.75" y="167.5" type="line"/>
    </contour>
    <contour>
      <point x="209.75" y="528" type="line"/>
      <point x="209.75" y="963.33" type="line" smooth="yes"/>
      <point x="209.75" y="1085.57"/>
      <point x="180.25" y="1123.5"/>
      <point x="72" y="1123.5" type="curve" smooth="yes"/>
      <point x="-29" y="1123.5" type="line"/>
      <point x="-41" y="1268.75" type="line"/>
      <point x="101.75" y="1268.75" type="line" smooth="yes"/>
      <point x="321.5" y="1268.75"/>
      <point x="397.75" y="1182.33"/>
      <point x="397.75" y="968.261" type="curve" smooth="yes"/>
      <point x="397.75" y="528" type="line"/>
    </contour>
    <contour>
      <point x="1706" y="1174.5" type="line"/>
      <point x="1706" y="0" type="line"/>
      <point x="1517" y="0" type="line"/>
      <point x="1517" y="1174.5" type="line"/>
    </contour>
    <contour>
      <point x="1423.75" y="1123.5" type="line"/>
      <point x="1411.75" y="1268.75" type="line"/>
      <point x="1906.75" y="1268.75" type="line"/>
      <point x="1918.75" y="1123.5" type="line"/>
    </contour>
  </outline>
  <guideline angle="90" x="1509" y="0"/>
  <guideline angle="0" x="0" y="9"/>
  <guideline angle="90" x="1514" y="0"/>
  <guideline angle="90" x="1497" y="0"/>
  <guideline angle="0" x="0" y="1262"/>
  <guideline angle="90" x="1611" y="0"/>
  <guideline angle="0" x="0" y="30"/>
</glyph>
<glyph name="CaHalant.dv" format="2">
  <advance width="793"/>
  <outline>
    <contour>
      <point x="-29.5" y="1123.5" type="line"/>
      <point x="-41.5" y="1268.75" type="line"/>
      <point x="1225" y="1268.75" type="line"/>
      <point x="1236.75" y="1123.5" type="line"/>
    </contour>
    <contour>
      <point x="770.75" y="902.25" type="line"/>
      <point x="770.75" y="753" type="line"/>
      <point x="428.68" y="752.75" type="line"/>
      <point x="282.25" y="747.75" type="line"/>
      <point x="50" y="747.75" type="line"/>
      <point x="50" y="902.25" type="line"/>
    </contour>
    <contour>
      <point x="599.166" y="160" type="curve" smooth="yes"/>
      <point x="339.446" y="160"/>
      <point x="201.5" y="273.722"/>
      <point x="201.5" y="490.79" type="curve" smooth="yes"/>
      <point x="201.5" y="501.372" type="line" smooth="yes"/>
      <point x="201.5" y="629.789"/>
      <point x="253.119" y="712.284"/>
      <point x="367" y="741.25" type="curve"/>
      <point x="367" y="792.75" type="line"/>
      <point x="770.75" y="792.75" type="line"/>
      <point x="770.75" y="753" type="line"/>
      <point x="633.974" y="748.275" type="line" smooth="yes"/>
      <point x="468.462" y="742.557"/>
      <point x="401.75" y="669.605"/>
      <point x="401.75" y="539.305" type="curve" smooth="yes"/>
      <point x="401.75" y="526.653" type="line" smooth="yes"/>
      <point x="401.75" y="385.864"/>
      <point x="484.48" y="323.25"/>
      <point x="645.777" y="323.25" type="curve" smooth="yes"/>
      <point x="802.277" y="323.25"/>
      <point x="911.287" y="379.993"/>
      <point x="951.537" y="478.993" type="curve"/>
      <point x="952.25" y="360" type="line"/>
      <point x="917.75" y="247.75"/>
      <point x="806" y="160"/>
    </contour>
  </outline>
  <guideline angle="0" x="0" y="94"/>
</glyph>
<glyph name="ChaVa.dv" format="2">
  <advance width="1450"/>
  <anchor x="988.25" y="-549.25" name="bottom"/>
  <anchor x="982.25" y="-549.25" name="bottom2"/>
  <anchor x="1174.25" y="-549.25" name="bottom3"/>
  <anchor x="1066" y="1238" name="top"/>
  <outline>
    <contour>
      <point x="875.5" y="1124" type="line"/>
      <point x="863.5" y="1268.75" type="line"/>
      <point x="1334.5" y="1268.75" type="line"/>
      <point x="1346.5" y="1124" type="line"/>
    </contour>
    <contour>
      <point x="1159.75" y="1174.75" type="line"/>
      <point x="1159.75" y="950.5" type="line"/>
      <point x="977.5" y="951.5" type="line"/>
      <point x="977.5" y="1174.75" type="line"/>
    </contour>
    <contour>
      <point x="1471.75" y="1269" type="line"/>
      <point x="1483.75" y="1124.25" type="line"/>
      <point x="-43.75" y="1124.25" type="line"/>
      <point x="-55.75" y="1269" type="line"/>
    </contour>
    <contour>
      <point x="974.5" y="927.5" type="line"/>
      <point x="974.5" y="1177.5" type="line"/>
      <point x="1159.75" y="1177.5" type="line"/>
      <point x="1159.75" y="927.5" type="line"/>
    </contour>
    <contour>
      <point x="1089" y="129" type="line"/>
      <point x="1089" y="-565" type="line"/>
      <point x="913" y="-565" type="line"/>
      <point x="913" y="129" type="line"/>
    </contour>
    <contour>
      <point x="301" y="-157.54" type="curve" smooth="yes"/>
      <point x="301" y="-143.989" type="line" smooth="yes"/>
      <point x="301" y="-1.21592"/>
      <point x="372.823" y="92.1937"/>
      <point x="527.321" y="114.5" type="curve"/>
      <point x="615.75" y="43.25" type="line"/>
      <point x="535.87" y="28.6681"/>
      <point x="490" y="-34.4525"/>
      <point x="490" y="-120.852" type="curve" smooth="yes"/>
      <point x="490" y="-130.036" type="line" smooth="yes"/>
      <point x="490" y="-242.817"/>
      <point x="556.946" y="-300"/>
      <point x="689.198" y="-300" type="curve" smooth="yes"/>
      <point x="809.884" y="-300"/>
      <point x="888.012" y="-258.774"/>
      <point x="914.75" y="-171.75" type="curve"/>
      <point x="922.25" y="-324.5" type="line"/>
      <point x="902" y="-324.5" type="line"/>
      <point x="861.429" y="-410.863"/>
      <point x="776.665" y="-456"/>
      <point x="637.439" y="-456" type="curve" smooth="yes"/>
      <point x="426.009" y="-456"/>
      <point x="301" y="-350.202"/>
    </contour>
    <contour>
      <point x="700.5" y="28" type="curve" smooth="yes"/>
      <point x="316.021" y="28"/>
      <point x="122.5" y="155.898"/>
      <point x="122.5" y="393.563" type="curve" smooth="yes"/>
      <point x="122.5" y="405.938" type="line" smooth="yes"/>
      <point x="122.5" y="548.876"/>
      <point x="189.033" y="651.551"/>
      <point x="381" y="672" type="curve"/>
      <point x="381" y="680" type="line"/>
      <point x="190.017" y="706.099"/>
      <point x="125.5" y="802.4"/>
      <point x="125.5" y="953.259" type="curve" smooth="yes"/>
      <point x="125.5" y="966.736" type="line" smooth="yes"/>
      <point x="125.5" y="1041.1"/>
      <point x="144" y="1111.32"/>
      <point x="194" y="1150.5" type="curve"/>
      <point x="400.5" y="1150.5" type="line"/>
      <point x="344" y="1112.48"/>
      <point x="323.5" y="1044.9"/>
      <point x="323.5" y="965.423" type="curve" smooth="yes"/>
      <point x="323.5" y="955.841" type="line" smooth="yes"/>
      <point x="323.5" y="838.287"/>
      <point x="372.25" y="763.97"/>
      <point x="548.538" y="755" type="curve" smooth="yes"/>
      <point x="607.5" y="752" type="line"/>
      <point x="607.5" y="593" type="line"/>
      <point x="545.087" y="590.771" type="line" smooth="yes"/>
      <point x="373.266" y="584.633"/>
      <point x="320.5" y="523.218"/>
      <point x="320.5" y="419.74" type="curve" smooth="yes"/>
      <point x="320.5" y="408.604" type="line" smooth="yes"/>
      <point x="320.5" y="264.511"/>
      <point x="451.582" y="186.5"/>
      <point x="701.841" y="186.5" type="curve" smooth="yes"/>
      <point x="1005.83" y="186.5"/>
      <point x="1168.5" y="308.417"/>
      <point x="1168.5" y="525.792" type="curve" smooth="yes"/>
      <point x="1168.5" y="539.345" type="line"/>
      <point x="1165.5" y="560.154" type="line"/>
      <point x="1165.5" y="633.308" type="line" smooth="yes"/>
      <point x="1165.5" y="752.503"/>
      <point x="1128.49" y="807.5"/>
      <point x="1031.76" y="807.5" type="curve" smooth="yes"/>
      <point x="945.943" y="807.5"/>
      <point x="904.5" y="770.145"/>
      <point x="904.5" y="669.269" type="curve" smooth="yes"/>
      <point x="904.5" y="658.928" type="line" smooth="yes"/>
      <point x="904.5" y="560.84"/>
      <point x="948.8" y="528.5"/>
      <point x="1031.35" y="528.5" type="curve" smooth="yes"/>
      <point x="1099.6" y="528.5"/>
      <point x="1150.15" y="555.427"/>
      <point x="1169.5" y="605" type="curve"/>
      <point x="1176" y="499.5" type="line"/>
      <point x="1155" y="499.5" type="line"/>
      <point x="1129.2" y="424.787"/>
      <point x="1065.3" y="383.5"/>
      <point x="973.017" y="383.5" type="curve" smooth="yes"/>
      <point x="816.85" y="383.5"/>
      <point x="732.5" y="468.592"/>
      <point x="732.5" y="652.102" type="curve" smooth="yes"/>
      <point x="732.5" y="673.994" type="line" smooth="yes"/>
      <point x="732.5" y="856.973"/>
      <point x="831.229" y="953.5"/>
      <point x="1030.1" y="953.5" type="curve" smooth="yes"/>
      <point x="1268.79" y="953.5"/>
      <point x="1348.5" y="829.752"/>
      <point x="1348.5" y="614.705" type="curve" smooth="yes"/>
      <point x="1348.5" y="568.717" type="line" smooth="yes"/>
      <point x="1348.5" y="195.263"/>
      <point x="1122.5" y="28"/>
    </contour>
  </outline>
  <guideline angle="0" x="0" y="-525"/>
  <guideline angle="90" x="585" y="0"/>
  <guideline angle="90" x="969" y="0"/>
</glyph>
<glyph name="Component_matraA.dv" format="2">
  <advance width="531"/>
  <anchor x="266" y="23" name="bottom"/>
  <anchor x="259" y="23" name="bottom2"/>
  <anchor x="360" y="23" name="bottom3"/>
  <anchor x="265" y="42.5" name="bottom5"/>
  <anchor x="265" y="1238" name="top"/>
  <outline>
    <contour>
      <point x="360" y="1174.5" type="line"/>
      <point x="360" y="0" type="line"/>
      <point x="171" y="0" type="line"/>
      <point x="171" y="1174.5" type="line"/>
    </contour>
    <contour>
      <point x="77.75" y="1123.5" type="line"/>
      <point x="65.75" y="1268.75" type="line"/>
      <point x="560.75" y="1268.75" type="line"/>
      <point x="572.75" y="1123.5" type="line"/>
    </contour>
  </outline>
  <guideline angle="90" x="163" y="0"/>
  <guideline angle="0" x="0" y="9"/>
  <guideline angle="90" x="168" y="0"/>
  <guideline angle="90" x="151" y="0"/>
  <guideline angle="0" x="0" y="1262"/>
  <guideline angle="90" x="265" y="0"/>
  <guideline angle="0" x="0" y="30"/>
</glyph>
<glyph name="DaBha.dv" format="2">
  <advance width="1722"/>
  <anchor x="1527.75" y="-157" name="bottom"/>
  <anchor x="1314.25" y="-170.5" name="bottom2"/>
  <anchor x="1588.25" y="-165.5" name="bottom3"/>
  <anchor x="1461" y="1238" name="top"/>
  <outline>
    <contour>
      <point x="-29.5" y="1124" type="line"/>
      <point x="-41.5" y="1268.75" type="line"/>
      <point x="1757" y="1268.75" type="line"/>
      <point x="1769" y="1124" type="line"/>
    </contour>
    <contour>
      <point x="1370.75" y="803.75" type="line"/>
      <point x="1370.75" y="1177.5" type="line"/>
      <point x="1558" y="1177.5" type="line"/>
      <point x="1558" y="753.25" type="line"/>
    </contour>
    <contour>
      <point x="1439.25" y="135.75" type="line"/>
      <point x="435.5" y="-67.75" type="line"/>
      <point x="407.25" y="73.75" type="line"/>
      <point x="1034.59" y="195.25" type="line"/>
      <point x="1063.19" y="168.5" type="line"/>
      <point x="1420.25" y="250.25" type="line"/>
    </contour>
    <contour>
      <point x="447.5" y="-323.5" type="line"/>
      <point x="377.22" y="-222.1"/>
      <point x="331.53" y="-138.261"/>
      <point x="294" y="-13.75" type="curve"/>
      <point x="371.978" y="60.5" type="line"/>
      <point x="537.75" y="94.75" type="line"/>
      <point x="609" y="-291.75" type="line"/>
    </contour>
    <contour>
      <point x="1572.75" y="535.25" type="line"/>
      <point x="1572.75" y="220" type="line"/>
      <point x="1631.5" y="-189.75" type="line"/>
      <point x="1447.5" y="-189.75" type="line"/>
      <point x="1396.75" y="215.75" type="line"/>
      <point x="1385.75" y="238.5" type="line"/>
      <point x="1385.75" y="535.25" type="line"/>
    </contour>
    <contour>
      <point x="381" y="-6.5" type="line"/>
      <point x="311.5" y="364.25" type="line" smooth="yes"/>
      <point x="289.906" y="479.446"/>
      <point x="249.248" y="506.754"/>
      <point x="149.25" y="487.5" type="curve" smooth="yes"/>
      <point x="68.75" y="472" type="line"/>
      <point x="26" y="611.25" type="line"/>
      <point x="130.25" y="632.5" type="line" smooth="yes"/>
      <point x="339.759" y="675.206"/>
      <point x="440.347" y="608.75"/>
      <point x="478.75" y="403.75" type="curve" smooth="yes"/>
      <point x="548.25" y="32.75" type="line"/>
    </contour>
    <contour>
      <point x="712.749" y="517.776" type="line" smooth="yes"/>
      <point x="712.726" y="784.446"/>
      <point x="865.567" y="923.75"/>
      <point x="1199.97" y="923.75" type="curve" smooth="yes"/>
      <point x="1309.03" y="923.75"/>
      <point x="1434.43" y="913.659"/>
      <point x="1558" y="892.75" type="curve"/>
      <point x="1558" y="748.75" type="line"/>
      <point x="1432.64" y="763.75"/>
      <point x="1328.29" y="770.5"/>
      <point x="1221.55" y="770.5" type="curve" smooth="yes"/>
      <point x="1005.48" y="770.5"/>
      <point x="908.5" y="681.923"/>
      <point x="908.5" y="507.046" type="curve" smooth="yes"/>
      <point x="908.5" y="496.703" type="line" smooth="yes"/>
      <point x="908.5" y="339.679"/>
      <point x="994.788" y="239.5"/>
      <point x="1154.5" y="239.5" type="curve" smooth="yes"/>
      <point x="1230.5" y="239.5"/>
      <point x="1318.39" y="255.844"/>
      <point x="1396.5" y="277.75" type="curve"/>
      <point x="1410" y="194.75" type="line"/>
      <point x="1137.25" y="132.25" type="line"/>
      <point x="835.875" y="124.222"/>
      <point x="712.771" y="266.961"/>
      <point x="712.75" y="507.114" type="curve" smooth="yes"/>
    </contour>
    <contour>
      <point x="1270.5" y="1124" type="line"/>
      <point x="1258.5" y="1268.75" type="line"/>
      <point x="1729.5" y="1268.75" type="line"/>
      <point x="1741.5" y="1124" type="line"/>
    </contour>
    <contour>
      <point x="1554.75" y="1174.75" type="line"/>
      <point x="1554.75" y="950.5" type="line"/>
      <point x="1372.5" y="951.5" type="line"/>
      <point x="1372.5" y="1174.75" type="line"/>
    </contour>
  </outline>
  <guideline angle="0" x="0" y="-146"/>
  <guideline angle="90" x="1364" y="0"/>
</glyph>
<glyph name="DaDha.dv" format="2">
  <advance width="1555"/>
  <anchor x="1385" y="-328.25" name="bottom"/>
  <anchor x="1165.25" y="-333" name="bottom2"/>
  <anchor x="1420" y="-333" name="bottom3"/>
  <anchor x="1290.25" y="1238" name="top"/>
  <outline>
    <contour>
      <point x="-29.5" y="1123.5" type="line"/>
      <point x="-41.5" y="1268.75" type="line"/>
      <point x="1589.25" y="1268.75" type="line"/>
      <point x="1601.25" y="1123.5" type="line"/>
    </contour>
    <contour>
      <point x="1197.75" y="803.75" type="line"/>
      <point x="1197.75" y="1177.5" type="line"/>
      <point x="1385" y="1177.5" type="line"/>
      <point x="1385" y="753.25" type="line"/>
    </contour>
    <contour>
      <point x="1398.5" y="535.5" type="line"/>
      <point x="1398.5" y="220" type="line"/>
      <point x="1466.25" y="-356.75" type="line"/>
      <point x="1288.25" y="-356.75" type="line"/>
      <point x="1231.25" y="192.25" type="line"/>
      <point x="1211.5" y="215.25" type="line"/>
      <point x="1211.5" y="535.5" type="line"/>
    </contour>
    <contour>
      <point x="995.284" y="243.75" type="curve" smooth="yes"/>
      <point x="1090.86" y="243.75"/>
      <point x="1167.14" y="268.015"/>
      <point x="1223" y="310.5" type="curve"/>
      <point x="1255.75" y="175.183" type="line"/>
      <point x="1197.57" y="119.064"/>
      <point x="1103.51" y="84.75"/>
      <point x="975.5" y="84.75" type="curve" smooth="yes"/>
      <point x="709.055" y="84.75"/>
      <point x="539.75" y="220.418"/>
      <point x="539.75" y="489.114" type="curve" smooth="yes"/>
      <point x="539.75" y="507.776" type="line" smooth="yes"/>
      <point x="539.75" y="783.446"/>
      <point x="690.567" y="923.75"/>
      <point x="1023.97" y="923.75" type="curve" smooth="yes"/>
      <point x="1134.03" y="923.75"/>
      <point x="1261.43" y="913.658"/>
      <point x="1385" y="892.75" type="curve"/>
      <point x="1385" y="748.75" type="line"/>
      <point x="1259.64" y="763.75"/>
      <point x="1152.29" y="770.5"/>
      <point x="1044.55" y="770.5" type="curve" smooth="yes"/>
      <point x="832.478" y="770.5"/>
      <point x="735.5" y="682.923"/>
      <point x="735.5" y="507.046" type="curve" smooth="yes"/>
      <point x="735.5" y="493.703" type="line" smooth="yes"/>
      <point x="735.5" y="325.698"/>
      <point x="829.794" y="243.75"/>
    </contour>
    <contour>
      <point x="279" y="662.5" type="line"/>
      <point x="298.75" y="623"/>
      <point x="306.75" y="577.75"/>
      <point x="306.75" y="528.25" type="curve" smooth="yes"/>
      <point x="306.75" y="458.516"/>
      <point x="286" y="400.414"/>
      <point x="286" y="322" type="curve" smooth="yes"/>
      <point x="286" y="201.451"/>
      <point x="347.394" y="139.5"/>
      <point x="465.731" y="139.5" type="curve" smooth="yes"/>
      <point x="554.827" y="139.5"/>
      <point x="608.191" y="170.986"/>
      <point x="664.5" y="236.25" type="curve"/>
      <point x="803.5" y="126.5" type="line"/>
      <point x="770.318" y="82.1503"/>
      <point x="759" y="40.0631"/>
      <point x="759" y="-14.1416" type="curve" smooth="yes"/>
      <point x="759" y="-124.055"/>
      <point x="844.862" y="-184.5"/>
      <point x="983.511" y="-184.5" type="curve" smooth="yes"/>
      <point x="1140.66" y="-184.5"/>
      <point x="1237.01" y="-110.216"/>
      <point x="1258.75" y="27.25" type="curve"/>
      <point x="1286.75" y="-147.5" type="line"/>
      <point x="1255.5" y="-148" type="line"/>
      <point x="1223.8" y="-268.69"/>
      <point x="1127.07" y="-343.25"/>
      <point x="939.052" y="-343.25" type="curve" smooth="yes"/>
      <point x="728.023" y="-343.25"/>
      <point x="602" y="-238.956"/>
      <point x="602" y="-73.9492" type="curve" smooth="yes"/>
      <point x="602" y="-28.7219"/>
      <point x="614.466" y="20.5281"/>
      <point x="635.75" y="61" type="curve"/>
      <point x="628" y="66.75" type="line"/>
      <point x="588.99" y="22.898"/>
      <point x="516.727" y="-5"/>
      <point x="421.374" y="-5" type="curve" smooth="yes"/>
      <point x="219.81" y="-5"/>
      <point x="98.75" y="100.941"/>
      <point x="98.75" y="305.25" type="curve" smooth="yes"/>
      <point x="98.75" y="395.274"/>
      <point x="121" y="456.923"/>
      <point x="121" y="533.5" type="curve" smooth="yes"/>
      <point x="121" y="583.25"/>
      <point x="112.5" y="623"/>
      <point x="92.5" y="662.5" type="curve"/>
    </contour>
    <contour>
      <point x="1099.75" y="1124" type="line"/>
      <point x="1087.75" y="1268.75" type="line"/>
      <point x="1558.75" y="1268.75" type="line"/>
      <point x="1570.75" y="1124" type="line"/>
    </contour>
    <contour>
      <point x="1384" y="1174.75" type="line"/>
      <point x="1384" y="950.5" type="line"/>
      <point x="1201.75" y="951.5" type="line"/>
      <point x="1201.75" y="1174.75" type="line"/>
    </contour>
  </outline>
  <guideline angle="90" x="1343" y="0"/>
  <guideline angle="0" x="0" y="-209"/>
  <guideline angle="90" x="1193.25" y="0"/>
</glyph>
<glyph name="DaDhaYa.dv" format="2">
  <advance width="2723"/>
  <anchor x="2458.25" y="23" name="bottom"/>
  <anchor x="2451.25" y="23" name="bottom2"/>
  <anchor x="2552.25" y="23" name="bottom3"/>
  <anchor x="2457.25" y="42.5" name="bottom5"/>
  <anchor x="2457.25" y="1238" name="top"/>
  <outline>
    <contour>
      <point x="1204.5" y="826.5" type="line"/>
      <point x="1204.5" y="1177.5" type="line"/>
      <point x="1391.75" y="1177.5" type="line"/>
      <point x="1391.75" y="788.25" type="line"/>
    </contour>
    <contour>
      <point x="1032.97" y="924.749" type="curve" smooth="yes"/>
      <point x="1156.72" y="924.742"/>
      <point x="1254.75" y="919.75"/>
      <point x="1391.75" y="908.75" type="curve"/>
      <point x="1391.75" y="774.25" type="line"/>
      <point x="1326.55" y="774.208"/>
      <point x="1099.34" y="774.06"/>
      <point x="1052.25" y="774.029" type="curve" smooth="yes"/>
      <point x="832.478" y="773.5"/>
      <point x="735.5" y="682.923"/>
      <point x="735.5" y="507.046" type="curve" smooth="yes"/>
      <point x="735.5" y="493.703" type="line" smooth="yes"/>
      <point x="735.5" y="325.698"/>
      <point x="829.794" y="243.75"/>
      <point x="995.284" y="243.75" type="curve" smooth="yes"/>
      <point x="1090.86" y="243.75"/>
      <point x="1167.14" y="268.015"/>
      <point x="1223" y="310.5" type="curve"/>
      <point x="1255.75" y="175.183" type="line"/>
      <point x="1197.57" y="119.064"/>
      <point x="1103.51" y="84.75"/>
      <point x="975.5" y="84.75" type="curve" smooth="yes"/>
      <point x="709.055" y="84.75"/>
      <point x="539.75" y="220.418"/>
      <point x="539.75" y="489.114" type="curve" smooth="yes"/>
      <point x="539.75" y="507.776" type="line" smooth="yes"/>
      <point x="539.75" y="783.446"/>
      <point x="690.567" y="924.771"/>
    </contour>
    <contour>
      <point x="1398.5" y="535.5" type="line"/>
      <point x="1398.5" y="220" type="line"/>
      <point x="1466.25" y="-356.75" type="line"/>
      <point x="1288.25" y="-356.75" type="line"/>
      <point x="1231.25" y="192.25" type="line"/>
      <point x="1211.5" y="215.25" type="line"/>
      <point x="1211.5" y="535.5" type="line"/>
    </contour>
    <contour>
      <point x="279" y="662.5" type="line"/>
      <point x="298.75" y="623"/>
      <point x="306.75" y="577.75"/>
      <point x="306.75" y="528.25" type="curve" smooth="yes"/>
      <point x="306.75" y="458.516"/>
      <point x="286" y="400.414"/>
      <point x="286" y="322" type="curve" smooth="yes"/>
      <point x="286" y="201.451"/>
      <point x="347.394" y="139.5"/>
      <point x="465.731" y="139.5" type="curve" smooth="yes"/>
      <point x="554.827" y="139.5"/>
      <point x="608.191" y="170.986"/>
      <point x="664.5" y="236.25" type="curve"/>
      <point x="803.5" y="126.5" type="line"/>
      <point x="770.318" y="82.1503"/>
      <point x="759" y="40.063"/>
      <point x="759" y="-14.1416" type="curve" smooth="yes"/>
      <point x="759" y="-124.055"/>
      <point x="844.862" y="-184.5"/>
      <point x="983.511" y="-184.5" type="curve" smooth="yes"/>
      <point x="1140.66" y="-184.5"/>
      <point x="1237.01" y="-110.216"/>
      <point x="1258.75" y="27.25" type="curve"/>
      <point x="1286.75" y="-147.5" type="line"/>
      <point x="1255.5" y="-148" type="line"/>
      <point x="1223.8" y="-268.69"/>
      <point x="1127.07" y="-343.25"/>
      <point x="939.052" y="-343.25" type="curve" smooth="yes"/>
      <point x="728.023" y="-343.25"/>
      <point x="602" y="-238.956"/>
      <point x="602" y="-73.9492" type="curve" smooth="yes"/>
      <point x="602" y="-28.7219"/>
      <point x="614.466" y="20.5281"/>
      <point x="635.75" y="61" type="curve"/>
      <point x="628" y="66.75" type="line"/>
      <point x="588.99" y="22.898"/>
      <point x="516.727" y="-5"/>
      <point x="421.374" y="-5" type="curve" smooth="yes"/>
      <point x="219.81" y="-5"/>
      <point x="98.75" y="100.941"/>
      <point x="98.75" y="305.25" type="curve" smooth="yes"/>
      <point x="98.75" y="395.274"/>
      <point x="121" y="456.923"/>
      <point x="121" y="533.5" type="curve" smooth="yes"/>
      <point x="121" y="583.25"/>
      <point x="112.5" y="623"/>
      <point x="92.5" y="662.5" type="curve"/>
    </contour>
    <contour>
      <point x="2552.25" y="1174.5" type="line"/>
      <point x="2552.25" y="0" type="line"/>
      <point x="2363.25" y="0" type="line"/>
      <point x="2363.25" y="1174.5" type="line"/>
    </contour>
    <contour>
      <point x="2270" y="1123.5" type="line"/>
      <point x="2258" y="1268.75" type="line"/>
      <point x="2753" y="1268.75" type="line"/>
      <point x="2765" y="1123.5" type="line"/>
    </contour>
    <contour>
      <point x="1634.75" y="921.75" type="line"/>
      <point x="1823.19" y="921.75" type="line" smooth="yes"/>
      <point x="2052.84" y="921.75"/>
      <point x="2147.5" y="829.606"/>
      <point x="2147.5" y="667.386" type="curve" smooth="yes"/>
      <point x="2147.5" y="658.567" type="line" smooth="yes"/>
      <point x="2147.5" y="483.572"/>
      <point x="2045.73" y="409.75"/>
      <point x="1825.97" y="409.75" type="curve" smooth="yes"/>
      <point x="1704" y="409.75" type="line"/>
      <point x="1641.25" y="550.5" type="line"/>
      <point x="1779.56" y="550.5" type="line" smooth="yes"/>
      <point x="1913.53" y="550.5"/>
      <point x="1955.75" y="588.278"/>
      <point x="1955.75" y="657.726" type="curve" smooth="yes"/>
      <point x="1955.75" y="664.066" type="line" smooth="yes"/>
      <point x="1955.75" y="738.071"/>
      <point x="1915.49" y="773.5"/>
      <point x="1786.42" y="773.5" type="curve" smooth="yes"/>
      <point x="1635.25" y="773.5" type="line"/>
    </contour>
    <contour>
      <point x="1634.75" y="410.506" type="line" smooth="yes"/>
      <point x="1634.75" y="453.811"/>
      <point x="1636.4" y="502.25"/>
      <point x="1641.25" y="550" type="curve"/>
      <point x="1672.03" y="533.972"/>
      <point x="1787.73" y="473.732"/>
      <point x="1816.5" y="458.75" type="curve"/>
      <point x="1816.5" y="402" type="line" smooth="yes"/>
      <point x="1816.5" y="278.512"/>
      <point x="1897.85" y="225.25"/>
      <point x="2071.25" y="225.25" type="curve" smooth="yes"/>
      <point x="2246.5" y="225.25"/>
      <point x="2335.4" y="286.782"/>
      <point x="2368.5" y="402.5" type="curve"/>
      <point x="2370.75" y="232.25" type="line"/>
      <point x="2351.5" y="232.25" type="line"/>
      <point x="2317.07" y="131.478"/>
      <point x="2225.79" y="63.75"/>
      <point x="2030.67" y="63.75" type="curve" smooth="yes"/>
      <point x="1770.5" y="63.75"/>
      <point x="1634.75" y="179.068"/>
      <point x="1634.75" y="404.591" type="curve" smooth="yes"/>
    </contour>
    <contour>
      <point x="-41.5" y="1268.75" type="line"/>
      <point x="2652.25" y="1268.75" type="line"/>
      <point x="2664" y="1123.5" type="line"/>
      <point x="-29.5" y="1123.5" type="line"/>
    </contour>
    <contour>
      <point x="1713.87" y="774.185" type="line"/>
      <point x="1319.62" y="774.185" type="line"/>
      <point x="1318.75" y="921.75" type="line"/>
      <point x="1713" y="921.75" type="line"/>
    </contour>
  </outline>
  <guideline angle="90" x="1560" y="0"/>
  <guideline angle="90" x="2355.25" y="0"/>
  <guideline angle="0" x="0" y="9"/>
  <guideline angle="90" x="2360.25" y="0"/>
  <guideline angle="90" x="2343.25" y="0"/>
  <guideline angle="0" x="0" y="1262"/>
  <guideline angle="90" x="2457.25" y="0"/>
  <guideline angle="0" x="0" y="30"/>
</glyph>
<glyph name="DaYa.dv" format="2">
  <advance width="1402"/>
  <anchor x="1138" y="7.25" name="bottom"/>
  <anchor x="1131" y="7.25" name="bottom2"/>
  <anchor x="1232" y="7.25" name="bottom3"/>
  <anchor x="1137" y="1238" name="top"/>
  <outline>
    <contour>
      <point x="-29.5" y="1123.5" type="line"/>
      <point x="-41.5" y="1268.75" type="line"/>
      <point x="1431.5" y="1268.75" type="line"/>
      <point x="1443.5" y="1123.5" type="line"/>
    </contour>
    <contour>
      <point x="1232" y="1174.5" type="line"/>
      <point x="1232" y="-15.75" type="line"/>
      <point x="1042.25" y="-15.75" type="line"/>
      <point x="1042.25" y="1174.5" type="line"/>
    </contour>
    <contour>
      <point x="607" y="844" type="line"/>
      <point x="607" y="1177.5" type="line"/>
      <point x="792.25" y="1177.5" type="line"/>
      <point x="792.25" y="797.75" type="line"/>
    </contour>
    <contour>
      <point x="635.25" y="195" type="curve" smooth="yes"/>
      <point x="860.299" y="195"/>
      <point x="995.025" y="253.154"/>
      <point x="1047.25" y="384.5" type="curve"/>
      <point x="1051.75" y="225" type="line"/>
      <point x="1031.5" y="225" type="line"/>
      <point x="981.755" y="100.031"/>
      <point x="846.699" y="32.75"/>
      <point x="588.75" y="32.75" type="curve" smooth="yes"/>
      <point x="263.323" y="32.75"/>
      <point x="116.25" y="125.882"/>
      <point x="116.25" y="301.76" type="curve" smooth="yes"/>
      <point x="116.25" y="309.864" type="line" smooth="yes"/>
      <point x="116.25" y="420.24"/>
      <point x="179.06" y="497.093"/>
      <point x="349.75" y="513.5" type="curve"/>
      <point x="349.75" y="521.25" type="line"/>
      <point x="178.485" y="538.359"/>
      <point x="108.25" y="604.248"/>
      <point x="108.25" y="723.043" type="curve" smooth="yes"/>
      <point x="108.25" y="729.982" type="line" smooth="yes"/>
      <point x="108.25" y="879.627"/>
      <point x="222.063" y="957"/>
      <point x="478.5" y="957" type="curve" smooth="yes"/>
      <point x="587.864" y="957"/>
      <point x="682.576" y="948"/>
      <point x="792.25" y="933" type="curve"/>
      <point x="792.25" y="793.25" type="line"/>
      <point x="692.582" y="803.909"/>
      <point x="619.321" y="808.5"/>
      <point x="529.5" y="808.5" type="curve" smooth="yes"/>
      <point x="362.287" y="808.5"/>
      <point x="305.25" y="771.458"/>
      <point x="305.25" y="701.163" type="curve" smooth="yes"/>
      <point x="305.25" y="696.115" type="line" smooth="yes"/>
      <point x="305.25" y="629.195"/>
      <point x="355.353" y="596.149"/>
      <point x="545.5" y="593.538" type="curve" smooth="yes"/>
      <point x="748.5" y="590.75" type="line"/>
      <point x="748.25" y="441" type="line"/>
      <point x="548.5" y="438.261" type="line" smooth="yes"/>
      <point x="364.509" y="435.737"/>
      <point x="313.25" y="399.699"/>
      <point x="313.25" y="327.309" type="curve" smooth="yes"/>
      <point x="313.25" y="320.187" type="line" smooth="yes"/>
      <point x="313.25" y="236.724"/>
      <point x="395.84" y="195"/>
    </contour>
  </outline>
  <guideline angle="90" x="619" y="0"/>
  <guideline angle="0" x="0" y="9"/>
  <guideline angle="90" x="624" y="0"/>
  <guideline angle="90" x="607" y="0"/>
  <guideline angle="0" x="0" y="1262"/>
  <guideline angle="90" x="642" y="0"/>
  <guideline angle="0" x="0" y="18"/>
</glyph>
<glyph name="DamatraRu.dv" format="2">
  <advance width="1115"/>
  <anchor x="856.25" y="1238" name="top"/>
  <outline>
    <contour>
      <point x="-24.25" y="1124" type="line"/>
      <point x="-36.25" y="1268.75" type="line"/>
      <point x="1149.75" y="1268.75" type="line"/>
      <point x="1161.75" y="1124" type="line"/>
    </contour>
    <contour>
      <point x="763.75" y="803.75" type="line"/>
      <point x="763.75" y="1177.5" type="line"/>
      <point x="951" y="1177.5" type="line"/>
      <point x="951" y="753.25" type="line"/>
    </contour>
    <contour>
      <point x="965.5" y="536" type="line"/>
      <point x="965.5" y="219.615" type="line"/>
      <point x="1020.75" y="-204.25" type="line"/>
      <point x="846.5" y="-204.25" type="line"/>
      <point x="796.286" y="202.164" type="line"/>
      <point x="779.5" y="225.703" type="line"/>
      <point x="779.5" y="536" type="line"/>
    </contour>
    <contour>
      <point x="561.284" y="243.75" type="curve" smooth="yes"/>
      <point x="656.856" y="243.75"/>
      <point x="733.14" y="268.015"/>
      <point x="789" y="310.5" type="curve"/>
      <point x="821.75" y="175.183" type="line"/>
      <point x="763.569" y="119.063"/>
      <point x="669.508" y="84.75"/>
      <point x="541.5" y="84.75" type="curve" smooth="yes"/>
      <point x="275.055" y="84.75"/>
      <point x="105.75" y="220.418"/>
      <point x="105.75" y="489.114" type="curve" smooth="yes"/>
      <point x="105.75" y="507.776" type="line" smooth="yes"/>
      <point x="105.75" y="783.446"/>
      <point x="256.567" y="923.75"/>
      <point x="589.965" y="923.75" type="curve" smooth="yes"/>
      <point x="700.03" y="923.75"/>
      <point x="827.434" y="913.658"/>
      <point x="951" y="892.75" type="curve"/>
      <point x="951" y="748.75" type="line"/>
      <point x="825.642" y="763.75"/>
      <point x="718.287" y="770.5"/>
      <point x="608.551" y="770.5" type="curve" smooth="yes"/>
      <point x="398.478" y="770.5"/>
      <point x="301.5" y="682.923"/>
      <point x="301.5" y="507.046" type="curve" smooth="yes"/>
      <point x="301.5" y="493.703" type="line" smooth="yes"/>
      <point x="301.5" y="325.698"/>
      <point x="395.794" y="243.75"/>
    </contour>
    <contour>
      <point x="833.486" y="-634.265" type="curve"/>
      <point x="607.354" y="-634.265"/>
      <point x="474.986" y="-531.148"/>
      <point x="474.986" y="-345.469" type="curve" smooth="yes"/>
      <point x="474.986" y="-334.36" type="line" smooth="yes"/>
      <point x="474.986" y="-157.51"/>
      <point x="591.989" y="-63.7652"/>
      <point x="830.587" y="-63.7652" type="curve" smooth="yes"/>
      <point x="870.633" y="-63.7652"/>
      <point x="927.984" y="-63.7652"/>
      <point x="967.397" y="-63.7652" type="curve"/>
      <point x="1021.25" y="-204.765" type="line"/>
      <point x="974.355" y="-204.765"/>
      <point x="907.663" y="-204.765"/>
      <point x="860.934" y="-204.765" type="curve" smooth="yes"/>
      <point x="719.056" y="-204.765"/>
      <point x="658.736" y="-243.42"/>
      <point x="658.736" y="-337.377" type="curve" smooth="yes"/>
      <point x="658.736" y="-343.438" type="line" smooth="yes"/>
      <point x="658.736" y="-431.816"/>
      <point x="720.421" y="-479.265"/>
      <point x="853.555" y="-479.265" type="curve" smooth="yes"/>
      <point x="944.486" y="-479.265"/>
      <point x="1027.63" y="-455.953"/>
      <point x="1102.24" y="-412.765" type="curve"/>
      <point x="1088.49" y="-574.765" type="line"/>
      <point x="1021.89" y="-613.765"/>
      <point x="938.986" y="-634.265"/>
    </contour>
    <contour>
      <point x="665.75" y="1124" type="line"/>
      <point x="653.75" y="1268.75" type="line"/>
      <point x="1124.75" y="1268.75" type="line"/>
      <point x="1136.75" y="1124" type="line"/>
    </contour>
    <contour>
      <point x="950" y="1174.75" type="line"/>
      <point x="950" y="950.5" type="line"/>
      <point x="767.75" y="951.5" type="line"/>
      <point x="767.75" y="1174.75" type="line"/>
    </contour>
  </outline>
  <guideline angle="0" x="0" y="5861"/>
  <guideline angle="90" x="1215" y="0"/>
  <guideline angle="0" x="0" y="661"/>
  <guideline angle="90" x="759.25" y="0"/>
</glyph>
